<svg viewBox="0 0 57 57" fill="none" xmlns="http://www.w3.org/2000/svg">
<path d="M49.9467 9.81967C42.3754 1.4346 32.8987 -1.65832 21.8764 0.841294C10.6667 3.38403 2.4246 12.3535 0.428395 23.653C0.24841 24.6716 0.141311 25.7021 0 26.7266V30.2879C0.147261 31.3496 0.23651 32.4217 0.450708 33.4686C2.66855 44.2759 8.94722 51.6201 19.3031 55.4521C21.573 56.2922 23.9396 56.7368 26.3552 56.9093C26.4787 56.9182 26.6007 56.9688 26.7227 57H30.2852C30.4265 56.9673 30.5678 56.9257 30.7106 56.9048C32.0107 56.713 33.3286 56.5985 34.6093 56.3219C47.2544 53.5933 56.569 42.4856 56.9825 29.589C57.2235 22.0976 54.9744 15.3884 49.9453 9.81818L49.9467 9.81967ZM7.81524 45.0551C1.2242 37.6544 -1.367 22.9304 7.97589 11.6115C17.8721 -0.379516 34.7298 -0.780999 45.099 7.78697C32.6533 20.227 20.2342 32.6418 7.81524 45.0536V45.0551ZM9.15695 46.6551C21.6607 34.1556 34.1616 21.659 46.6743 9.15053C47.0566 9.54755 47.476 9.98175 47.8464 10.3669C35.3486 22.8605 22.8478 35.357 10.3321 47.8685C9.94829 47.4714 9.52734 47.0372 9.15695 46.6551ZM46.2414 48.319C35.4453 57.9769 20.4514 56.4766 11.9519 49.2305C24.3769 36.8098 36.8063 24.3846 49.258 11.9371C57.7293 22.291 57.2577 38.4633 46.2414 48.319ZM22.1843 43.8596C22.0029 44.1941 21.9136 44.4633 21.7411 44.6566C21.3469 45.0967 20.92 45.5101 20.4916 45.9161C20.0557 46.3294 19.4756 46.3399 19.1023 45.9651C18.714 45.5755 18.7245 45.0298 19.1514 44.5837C19.5857 44.1302 20.0007 43.641 20.502 43.2722C20.7504 43.0893 21.21 43.0254 21.506 43.122C21.7738 43.2083 21.9478 43.5845 22.1858 43.8596H22.1843ZM48.7791 14.9944C49.1361 14.6821 49.5749 14.7103 49.9467 15.0226C50.2993 15.317 50.4599 15.7735 50.1818 16.1081C49.6344 16.7698 48.9814 17.3453 48.3596 17.943C48.2778 18.0218 48.1201 18.0204 47.8598 18.0962C47.6545 17.9282 47.2827 17.7661 47.1726 17.4969C47.061 17.2233 47.0893 16.7534 47.2633 16.5304C47.7036 15.9668 48.2361 15.4672 48.7791 14.9944ZM34.0574 32.2269C33.5056 32.8857 32.857 33.4656 32.2353 34.0634C32.1535 34.1422 31.9928 34.1377 31.7251 34.2135C31.5272 34.0485 31.1583 33.8834 31.0483 33.6128C30.9367 33.3392 30.965 32.8693 31.139 32.6478C31.5793 32.0842 32.1118 31.5831 32.6547 31.1102C33.0117 30.7994 33.4624 30.8292 33.8269 31.14C34.1675 31.4284 34.3475 31.8805 34.056 32.2284L34.0574 32.2269ZM17.9048 48.4112C17.3902 49.0328 16.7833 49.5785 16.1957 50.1361C16.0886 50.2372 15.8893 50.2432 15.5978 50.3354C15.388 50.1554 15.0236 49.9844 14.9195 49.7123C14.8139 49.4387 14.854 48.9778 15.0295 48.7532C15.4564 48.203 15.9771 47.7183 16.5007 47.2514C16.877 46.9153 17.3277 46.9346 17.713 47.2677C18.0759 47.583 18.2083 48.0454 17.9063 48.4097L17.9048 48.4112ZM26.0801 39.7332C26.0756 40.5377 24.3828 42.2626 23.7878 42.1838C23.4993 42.1451 23.117 41.9369 23.0025 41.699C22.8775 41.4373 22.8894 40.9525 23.059 40.7369C23.5142 40.1585 24.0482 39.6247 24.6283 39.1726C24.8425 39.0061 25.32 39.0135 25.5951 39.1325C25.845 39.241 25.9849 39.6068 26.0801 39.7332ZM46.1284 20.1676C45.5914 20.8174 44.9503 21.3824 44.3389 21.9683C44.2571 22.0456 44.098 22.0426 43.8332 22.117C43.6279 21.9534 43.256 21.7943 43.1445 21.5266C43.0314 21.256 43.0582 20.7846 43.2308 20.5631C43.6725 19.9995 44.2095 19.4999 44.751 19.0241C45.1154 18.7029 45.5542 18.7534 45.9186 19.0687C46.2682 19.3705 46.4021 19.836 46.1284 20.1661V20.1676ZM29.8211 35.2143C30.1647 35.5593 30.2644 36.0098 29.9639 36.3712C29.47 36.9659 28.8929 37.4938 28.3276 38.0276C28.2072 38.1421 27.9915 38.1555 27.7118 38.2537C27.4902 38.0752 27.1287 37.9236 27.0276 37.6678C26.916 37.3882 26.9235 36.9184 27.093 36.6983C27.5318 36.1317 28.0718 35.6366 28.6073 35.1548C28.9613 34.8351 29.4923 34.8871 29.8196 35.2158L29.8211 35.2143ZM41.8846 23.1177C42.2341 23.4508 42.365 23.8999 42.0646 24.2642C41.5618 24.8709 40.9683 25.4062 40.3941 25.9504C40.287 26.0515 40.0892 26.0575 39.7947 26.1511C39.5849 25.9787 39.219 25.8151 39.1104 25.5474C39.0003 25.2753 39.0286 24.8114 39.2012 24.5883C39.6281 24.0382 40.1531 23.5579 40.6723 23.0865C41.0278 22.7638 41.5499 22.798 41.8846 23.1162V23.1177ZM38.0469 28.2731C37.5352 28.8946 36.9268 29.4403 36.3377 29.9965C36.2306 30.0976 36.0298 30.0976 35.7561 30.1779C35.5494 30.0099 35.1909 29.8567 35.0912 29.6024C34.9812 29.3244 34.9856 28.8575 35.1552 28.6389C35.5925 28.0738 36.1236 27.5727 36.6665 27.1028C37.022 26.7935 37.4712 26.8233 37.8371 27.1355C38.2001 27.4448 38.3488 27.9088 38.0469 28.2746V28.2731ZM21.7931 27.1623C22.1278 27.5177 22.2067 27.9682 21.9017 28.3266C21.4004 28.9169 20.8218 29.4448 20.2536 29.9757C20.1316 30.0902 19.9159 30.1065 19.6393 30.2047C19.4161 30.0247 19.0562 29.8686 18.955 29.6128C18.8449 29.3348 18.8509 28.8634 19.0219 28.6463C19.4771 28.0679 20.026 27.5563 20.5808 27.0656C20.9393 26.7489 21.4718 26.8218 21.7916 27.1608L21.7931 27.1623ZM38.0513 11.2739C38.1629 11.552 38.1584 12.0234 37.9889 12.2405C37.5337 12.8189 36.9848 13.3304 36.43 13.8211C36.0655 14.1438 35.5464 14.0769 35.2206 13.7334C34.886 13.381 34.7997 12.9304 35.1031 12.5706C35.6029 11.9788 36.1816 11.4524 36.7483 10.9215C36.8703 10.8085 37.086 10.7951 37.3701 10.6985C37.5887 10.871 37.9487 11.0211 38.0513 11.2739ZM18.0328 31.6693C18.0253 32.4426 16.2999 34.224 15.7406 34.1466C15.4386 34.105 15.0489 33.879 14.921 33.6247C14.7945 33.3704 14.8258 32.8842 14.9983 32.6641C15.4371 32.0991 15.9577 31.5786 16.5215 31.14C16.7431 30.9675 17.2147 30.9437 17.4883 31.0567C17.7576 31.1667 17.9212 31.5355 18.0313 31.6708L18.0328 31.6693ZM14.1311 35.8091C13.9437 36.1392 13.847 36.4054 13.6715 36.6001C13.2758 37.0388 12.8504 37.4522 12.4205 37.8581C11.9698 38.2834 11.4239 38.2908 11.0386 37.9013C10.6653 37.525 10.6772 36.9481 11.0937 36.5139C11.528 36.0604 11.9445 35.5726 12.4458 35.2068C12.6957 35.0254 13.1583 34.966 13.4528 35.0656C13.7235 35.1563 13.8961 35.534 14.1326 35.8091H14.1311ZM9.96466 39.7362C9.94383 40.5109 8.26892 42.2477 7.71112 42.1897C7.40618 42.1585 7.00456 41.9577 6.87069 41.7109C6.73533 41.4641 6.75169 40.9689 6.92126 40.7518C7.37197 40.1734 7.903 39.641 8.48015 39.1875C8.69732 39.0165 9.17183 39.0031 9.44106 39.1191C9.70732 39.2351 9.86202 39.6053 9.96466 39.7362ZM34.1571 15.5356C34.1616 16.3193 32.4361 18.0947 31.8649 18.0129C31.5629 17.9698 31.1732 17.7378 31.0497 17.4821C30.9263 17.2263 30.9694 16.743 31.1449 16.5185C31.5733 15.9668 32.0821 15.4598 32.6339 15.0315C32.8585 14.8576 33.3241 14.8204 33.5978 14.9289C33.87 15.036 34.0411 15.4018 34.1556 15.5371L34.1571 15.5356ZM26.0815 23.6099C26.0652 24.4054 24.3992 26.1244 23.8265 26.056C23.5231 26.0203 23.1244 25.8091 22.995 25.5608C22.8656 25.311 22.8968 24.8218 23.0679 24.6017C23.5082 24.0367 24.0288 23.5147 24.5941 23.0746C24.8142 22.9021 25.2872 22.8813 25.558 22.9958C25.8242 23.1088 25.9789 23.4805 26.0801 23.6084L26.0815 23.6099ZM30.123 19.5876C30.1022 20.3713 28.4169 22.1021 27.8561 22.0322C27.5527 21.995 27.1555 21.7809 27.0261 21.5311C26.8967 21.2783 26.9294 20.7891 27.102 20.5675C27.5423 20.0025 28.0644 19.4821 28.6296 19.0419C28.8498 18.8709 29.3228 18.8531 29.5935 18.969C29.8612 19.0835 30.0174 19.4553 30.123 19.5876ZM42.2089 7.49106C42.1984 8.27619 40.5414 9.99067 39.9672 9.92673C39.6653 9.89253 39.2666 9.68435 39.1357 9.43752C39.0033 9.18919 39.0286 8.69997 39.1982 8.48139C39.6355 7.91782 40.1546 7.39738 40.7169 6.95872C40.9385 6.78623 41.4101 6.76244 41.6808 6.87545C41.9471 6.98698 42.1032 7.35872 42.2089 7.49106Z" fill="#00BBD6"/>
<defs>
<linearGradient id="paint0_linear_167_31356" x1="30.7608" y1="53.5166" x2="30.7608" y2="0.316648" gradientUnits="userSpaceOnUse">
<stop stop-color="#3D2876"/>
<stop offset="0.5" stop-color="#755AB8"/>
<stop offset="1" stop-color="#B79DF6"/>
</linearGradient>
</defs>
</svg>
