<svg viewBox="0 0 102 150" fill="none" xmlns="http://www.w3.org/2000/svg">
<g clip-path="url(#clip0_8680_174051)">
<path d="M42.9384 18.1289C42.9384 18.1289 24.2622 19.5671 28.501 41.6677C28.501 41.6677 29.4368 44.8812 25.0195 50.4617C25.0195 50.4617 32.3037 49.8563 32.5951 41.1034C32.8865 32.3506 42.9364 18.1289 42.9364 18.1289H42.9384Z" fill="#00BBD6" stroke="#00BBD6" stroke-width="1.11477" stroke-miterlimit="10"/>
<path d="M45.4349 14.1241C45.3476 14.0242 45.2207 13.9654 45.0859 13.9595L40.2127 13.8008C40.1016 13.8027 39.9529 13.8478 39.8578 13.9399C39.7646 14.032 39.713 14.1594 39.717 14.2906L39.7685 16.1404C39.7765 16.3931 39.9807 16.595 40.2345 16.6028L40.3574 16.6067L41.3209 16.64L44.4059 16.7458L44.8123 16.7595H44.8421H44.8579C44.9967 16.7595 45.1216 16.7027 45.2088 16.6106C45.2782 16.5362 45.3258 16.4421 45.3377 16.3383L45.3694 16.06L45.5479 14.4885C45.5637 14.3553 45.5221 14.224 45.4349 14.1221V14.1241ZM40.7202 15.6681L40.6925 14.7707L44.5328 14.8942L44.4297 15.7955L40.7202 15.6681Z" fill="#00BBD6"/>
<path d="M64.0122 21.4698L62.7929 22.4319L62.7413 22.4731C62.662 22.5358 62.5649 22.573 62.4637 22.5789L61.4526 22.624L59.3669 22.72L58.4509 22.7611L55.0626 22.9159L54.3608 22.9473L54.0396 22.9335L46.7436 22.6298L45.6988 22.4554L44.1087 22.189L43.1967 22.0361L42.3521 21.895L41.6522 21.7775C41.5491 21.7598 41.456 21.7109 41.3886 21.6384C41.3231 21.5737 41.2775 21.4914 41.2597 21.3993L41.1962 21.0701L40.992 20.014L40.3596 16.7456C40.3497 16.6986 40.3497 16.6516 40.3556 16.6065C40.3754 16.4027 40.5281 16.2283 40.7422 16.1891C41 16.1401 41.2557 16.3087 41.3053 16.5653L41.3192 16.6398L42.142 20.8957L45.9307 21.5325L46.8447 21.6854L47.1699 21.6991L54.3588 21.995L62.2615 21.6325L63.0546 21.0094L62.0514 19.6299C62.0137 19.5809 61.9879 19.5241 61.974 19.4653L61.6965 18.3524L61.6033 17.984C61.5398 17.7312 61.6965 17.4726 61.9542 17.4099C62.2139 17.3511 62.4737 17.5 62.5371 17.7586L62.6759 18.3112L62.6977 18.3935L62.886 19.1479L63.0347 19.3517L64.1034 20.8193C64.2521 21.025 64.2124 21.3111 64.0122 21.4698Z" fill="#00BBD6"/>
<path d="M64.6054 17.5897C64.3338 18.0442 63.7727 18.2951 63.0233 18.2951C62.9737 18.297 62.9004 18.3009 62.8072 18.3048C62.7675 18.3068 62.7239 18.3088 62.6763 18.3107C62.4384 18.3205 62.1054 18.3362 61.6969 18.3519C58.1738 18.5047 49.0578 18.877 46.5002 18.877C46.0065 18.8672 45.5882 18.83 45.2432 18.7575C44.5731 18.6242 44.1706 18.3734 44.0041 17.9913C43.9248 17.8111 43.9129 17.6386 43.9387 17.4858C43.9882 17.1488 44.2004 16.9019 44.2361 16.8647C44.2836 16.8118 44.3431 16.7706 44.4046 16.7451C44.5334 16.6903 44.6841 16.6942 44.811 16.7588C44.8487 16.7765 44.8824 16.8 44.9141 16.8294C45.1104 17.0057 45.1282 17.3036 44.9557 17.4976C44.924 17.5348 44.8903 17.5994 44.8903 17.6249C44.8943 17.6249 44.9538 17.6935 45.1837 17.766C45.4157 17.8365 45.8182 17.913 46.5081 17.9247C49.4701 17.9247 61.9269 17.3957 62.9995 17.3428C63.4734 17.3428 63.7073 17.2193 63.7767 17.1057C63.8461 16.9881 63.8044 16.7726 63.6617 16.5139C63.4139 16.0691 62.8924 15.9065 62.5514 15.8457C62.3651 15.8124 62.2322 15.8105 62.2283 15.8105C62.0994 15.8085 61.9745 15.7556 61.8853 15.6655C61.8139 15.593 61.7683 15.497 61.7544 15.399C61.7505 15.3755 61.7485 15.35 61.7485 15.3245C61.7505 15.2501 61.8298 8.03343 56.5639 5.50575C53.6654 4.10278 50.0094 4.13805 47.0157 5.60176C44.0596 7.04587 42.0512 9.74599 41.3573 13.2064C41.3057 13.4631 41.054 13.6237 40.7923 13.5806C40.5305 13.5297 40.362 13.2789 40.4136 13.0222C41.165 9.26592 43.3578 6.32871 46.5874 4.74744C49.8409 3.15637 53.826 3.11326 56.9862 4.65143C58.3681 5.31372 59.4149 6.24642 60.21 7.28688C60.2516 7.33979 60.2893 7.39073 60.3269 7.44168C60.4062 7.54945 60.4816 7.65722 60.5569 7.76695V7.77087C60.6243 7.86688 60.6878 7.96485 60.7492 8.06282C62.4067 10.712 62.6684 13.7766 62.7061 14.9052C63.2335 14.9973 64.0662 15.2677 64.5063 16.0574C64.6431 16.3062 64.7204 16.5276 64.7521 16.7236C64.8176 17.1057 64.7224 17.3937 64.6054 17.5897Z" fill="#00BBD6"/>
<path d="M63.7782 17.1066C63.7088 17.2203 63.4749 17.3437 63.001 17.3437C61.9284 17.3966 49.4716 17.9257 46.5096 17.9257C45.8197 17.9139 45.4172 17.8375 45.1852 17.7669C44.9552 17.6944 44.8958 17.6259 44.8918 17.6259C44.8918 17.6004 44.9255 17.5357 44.9572 17.4985C45.1297 17.3045 45.1119 17.0067 44.9156 16.8303C44.8839 16.8009 44.8502 16.7774 44.8125 16.7598H44.8422H44.8581C44.9969 16.7598 45.1218 16.703 45.209 16.6109C45.2764 16.7872 45.4469 16.9146 45.6492 16.9185L45.8415 16.9303C46.9874 17.0086 48.1611 17.0459 49.3547 17.0459C50.8595 17.0459 52.398 16.9851 53.9543 16.8636C58.6056 16.4992 62.0593 16.3365 62.095 16.3365C62.3586 16.3248 62.5609 16.1053 62.5529 15.8447C62.8939 15.9055 63.4154 16.0681 63.6632 16.5129C63.8059 16.7715 63.8476 16.9871 63.7782 17.1047V17.1066Z" fill="#00BBD6"/>
<path d="M62.5514 15.8405V15.8463C62.5593 16.1069 62.3571 16.3264 62.0934 16.3382C62.0577 16.3382 58.604 16.5008 53.9528 16.8653C52.3965 16.9867 50.858 17.0475 49.3532 17.0475C48.1596 17.0475 46.9859 17.0103 45.84 16.9319L45.6476 16.9201C45.4454 16.9162 45.2749 16.7888 45.2075 16.6125C45.1857 16.5596 45.1758 16.5008 45.1758 16.4401C45.1778 16.2833 45.2511 16.1461 45.3681 16.0619C45.4474 16.0031 45.5465 15.9698 45.6516 15.9698C45.6814 15.9698 45.7686 15.9737 45.9054 15.9835C48.4511 16.1501 51.1316 16.1285 53.8775 15.9169C57.7654 15.6112 60.8206 15.4486 61.7544 15.3996C61.9408 15.3898 62.0419 15.3859 62.0478 15.3859C62.3294 15.38 62.5375 15.5779 62.5514 15.8405Z" fill="#00BBD6"/>
<path d="M45.0883 14.6106V16.1091L61.7619 15.7345V12.3629L59.4882 7.1181L56.0777 4.87034L50.7725 4.12109L46.983 5.6196L43.5725 7.86735L41.6778 10.4897L40.9199 13.1121V14.236H41.6778L45.0883 14.6106Z" fill="#00BBD6" stroke="#00BBD6" stroke-width="1.11477"/>
<path d="M45.9319 21.5324L42.1431 20.8956L41.3203 16.6396L44.4053 16.7455C44.3438 16.7709 44.2843 16.8121 44.2367 16.865C44.2011 16.9022 43.9889 17.1491 43.9393 17.4861C43.9096 17.4959 43.8799 17.5096 43.8521 17.5273C43.6301 17.6703 43.5686 17.9662 43.7133 18.1876L45.9319 21.5324Z" fill="#00BBD6"/>
<path d="M47.1093 22.1042L46.7445 22.6293L45.7849 24.0087C45.767 24.0362 45.7452 24.0597 45.7234 24.0812C45.6322 24.1694 45.5113 24.2164 45.3884 24.2164C45.2932 24.2164 45.198 24.189 45.1148 24.1322C44.8967 23.9833 44.8412 23.6874 44.9918 23.4719L45.087 23.3347L45.6996 22.4549L46.1318 21.8318L45.9316 21.532L43.7131 18.1872C43.5683 17.9658 43.6298 17.6699 43.8518 17.5269C43.8796 17.5093 43.9093 17.4955 43.9391 17.4858C44.1472 17.4035 44.3911 17.4701 44.518 17.6641L45.2436 18.7574L47.1132 21.5751C47.139 21.6143 47.1588 21.6555 47.1707 21.6986C47.2143 21.8338 47.1925 21.9827 47.1093 22.1042Z" fill="#00BBD6"/>
<path d="M47.5054 27.3889C47.4697 27.3889 47.4321 27.385 47.3944 27.3772L44.2163 26.6365C44.1013 26.6091 44.0002 26.5405 43.9308 26.4445C43.9308 26.4445 42.9196 25.0121 42.0691 23.7385C41.1829 22.3825 41.395 21.4479 41.4228 21.3479C41.4902 21.0932 41.7439 20.9365 42.0116 21.009C42.2674 21.0756 42.422 21.3362 42.3546 21.589C42.3526 21.6046 42.2277 22.2258 42.876 23.2192C43.5541 24.2342 44.3372 25.357 44.6168 25.7508L46.1989 26.1212L43.217 22.6216C43.0465 22.4198 43.0723 22.12 43.2745 21.9515C43.4787 21.781 43.7801 21.8065 43.9526 22.0083L47.8722 26.6091C48.005 26.7658 48.0229 26.9892 47.9138 27.1636C47.8246 27.3066 47.668 27.3909 47.5034 27.3909L47.5054 27.3889Z" fill="#00BBD6"/>
<path d="M54.233 33.0458C54.1795 33.0458 54.1259 33.0361 54.0724 33.0184C53.8206 32.9302 53.6898 32.6598 53.777 32.411L55.6764 27.0813L54.0486 22.9625C53.9515 22.7176 54.0724 22.4413 54.3222 22.3453C54.5701 22.2513 54.8496 22.3727 54.9448 22.6157L56.6399 26.8991C56.6835 27.0049 56.6855 27.1224 56.6458 27.2302L54.687 32.7284C54.6176 32.9224 54.4313 33.0458 54.233 33.0458Z" fill="#00BBD6"/>
<path d="M56.1926 27.5483C55.9646 27.5483 55.7623 27.3857 55.7207 27.1564C55.6731 26.8958 55.8476 26.6489 56.1093 26.6019C56.1708 26.5902 57.6538 26.3296 59.2141 26.3296C60.0706 26.3002 61.0123 26.0513 61.6527 25.8456L58.5876 23.31C58.3834 23.1415 58.3576 22.8417 58.5281 22.6419C58.7006 22.4381 59 22.4087 59.2062 22.5831L62.9136 25.6496C63.0425 25.7554 63.1059 25.922 63.0802 26.0866C63.0544 26.2512 62.9434 26.3903 62.7887 26.455C62.7114 26.4863 60.8874 27.2289 59.2299 27.2838C57.741 27.2838 56.2937 27.5385 56.2798 27.5425C56.2501 27.5483 56.2223 27.5503 56.1926 27.5503V27.5483Z" fill="#00BBD6"/>
<path d="M47.8236 27.4935C47.5599 27.4935 47.3438 27.2819 47.3418 27.0213C47.3418 26.7587 47.5539 26.5431 47.8216 26.5412L56.1367 26.4883H56.1387C56.4023 26.4883 56.6184 26.6999 56.6204 26.9605C56.6204 27.2231 56.4083 27.4386 56.1406 27.4406L47.8256 27.4935H47.8236Z" fill="#00BBD6"/>
<path d="M56.1102 33.1736C53.6775 33.1736 50.8563 32.2663 49.5953 31.555C48.0132 30.6302 44.6983 27.1757 44.5595 27.0268C44.3771 26.8347 44.385 26.5349 44.5773 26.3547C44.7716 26.1764 45.077 26.1842 45.2574 26.3743C45.2911 26.4076 48.6199 29.8778 50.0791 30.7321C51.5284 31.5531 55.4659 32.7131 57.7954 32.0096C59.4608 31.4786 59.897 27.4049 59.891 25.081C59.891 24.889 59.891 24.6931 62.0521 21.8186C62.2127 21.6069 62.5121 21.5638 62.7262 21.7186C62.9403 21.8754 62.9839 22.1732 62.8253 22.3848C61.9748 23.5174 61.039 24.8146 60.8546 25.1535C60.8506 26.8955 60.6246 32.1076 58.0829 32.9169C57.4881 33.0971 56.814 33.1755 56.1062 33.1755L56.1102 33.1736Z" fill="#00BBD6"/>
<path d="M57.7814 32.5696C57.7358 32.5696 57.6902 32.5618 57.6446 32.55C57.3908 32.4736 57.2441 32.2091 57.3214 31.9563L58.858 26.8794C58.9333 26.6286 59.2049 26.4875 59.4567 26.56C59.7105 26.6364 59.8572 26.901 59.7799 27.1537L58.2433 32.2307C58.1799 32.4364 57.9896 32.5696 57.7814 32.5696Z" fill="#00BBD6"/>
<path d="M46.9865 34.635C46.9389 34.635 46.8992 34.6252 46.8596 34.6154C46.5424 34.537 38.9014 29.6247 38.5524 25.8958C38.2154 22.2493 40.7393 20.1782 40.8463 20.09C41.0525 19.9293 41.3559 19.9548 41.5224 20.1586C41.6909 20.3624 41.6592 20.6622 41.455 20.8268C41.3638 20.9012 39.2226 22.6804 39.512 25.8077C39.7698 28.5568 45.6799 32.8323 47.0004 33.6219C47.4464 33.3457 48.642 32.4522 49.6432 31.6645C49.8494 31.4979 50.1527 31.5312 50.3193 31.7409C50.4838 31.9466 50.4501 32.2464 50.2419 32.409C47.7637 34.3607 47.2422 34.635 46.9865 34.635Z" fill="#00BBD6"/>
<path d="M49.8349 32.6205C49.7398 32.6205 49.6446 32.5931 49.5594 32.5362C49.5157 32.5069 45.2551 29.5736 42.0373 26.5717C40.4711 25.0864 39.6959 23.8167 39.7296 22.7958C39.7514 22.1531 40.0844 21.8455 40.1519 21.7887C40.3541 21.6182 40.6594 21.6437 40.8299 21.8455C40.9965 22.0415 40.9766 22.3314 40.7883 22.5019C40.5722 22.739 40.5028 23.7952 42.7015 25.882C45.8658 28.8329 50.0689 31.725 50.1105 31.7544C50.3286 31.9033 50.3841 32.2012 50.2315 32.4167C50.1383 32.55 49.9896 32.6225 49.8369 32.6225L49.8349 32.6205Z" fill="#00BBD6"/>
<path d="M60.5872 8.09095C60.5238 8.09095 60.4583 8.0792 60.3949 8.05177C60.151 7.94792 60.04 7.66771 60.1451 7.4267C60.1986 7.30326 61.5051 4.36801 64.5009 2.35957C67.7306 0.286478 71.2933 -0.0250743 72.4194 0.000398476C73.8469 0.000398476 75.7661 3.3922 76.3192 4.43071C76.4441 4.66388 76.3529 4.95192 76.117 5.07341C75.8831 5.19685 75.5916 5.10868 75.4667 4.8755C74.4774 3.01991 72.9746 0.95269 72.3976 0.95269C71.4143 0.921339 68.028 1.22701 65.0322 3.14923C62.2863 4.99307 61.0412 7.77548 61.0273 7.80292C60.948 7.98123 60.7716 8.08899 60.5852 8.08899L60.5872 8.09095Z" fill="#00BBD6"/>
<path d="M62.601 19.5632C62.4623 19.5632 62.3255 19.5044 62.2283 19.3907C62.0598 19.1869 62.0895 18.8871 62.2957 18.7206L68.2812 13.8553C68.4874 13.6907 68.7908 13.7181 68.9593 13.9199C69.1278 14.1237 69.0981 14.4235 68.8919 14.5901L62.9064 19.4554C62.8171 19.5279 62.7081 19.5632 62.601 19.5632Z" fill="#00BBD6"/>
<path d="M66.0442 9.57158C65.9549 9.57158 65.8677 9.54806 65.7864 9.49712C63.9406 8.34301 63.3716 5.70559 63.3478 5.5939C63.2943 5.33721 63.4628 5.08445 63.7225 5.0335C63.9842 4.97668 64.238 5.14519 64.2915 5.40188C64.2955 5.42539 64.805 7.75713 66.3019 8.69375C66.5259 8.83483 66.5933 9.12874 66.4506 9.35016C66.3594 9.4932 66.2028 9.57158 66.0442 9.57158Z" fill="#00BBD6"/>
<path d="M65.7268 16.8144C65.5067 16.8144 65.3084 16.6655 65.2569 16.4441C63.9781 10.8891 62.049 8.87084 60.5125 7.73044C60.3003 7.57368 60.2567 7.27389 60.4173 7.06423C60.5779 6.85456 60.8813 6.8095 61.0914 6.96821C63.5697 8.80617 65.1439 11.663 66.1986 16.2305C66.2561 16.4892 66.0955 16.7419 65.8358 16.8007C65.8001 16.8105 65.7644 16.8125 65.7287 16.8125L65.7268 16.8144Z" fill="#00BBD6"/>
<path d="M53.0143 39.4415C52.8953 39.4415 52.7744 39.3984 52.6812 39.3102C49.1561 35.9772 45.4169 35.4776 43.8209 35.2659L43.4065 35.2091C43.1428 35.168 42.9644 34.9269 43.006 34.6663C43.0457 34.4057 43.2836 34.2235 43.5552 34.2686L43.9498 34.3254C45.6389 34.5507 49.5943 35.0798 53.3473 38.6244C53.5397 38.8067 53.5456 39.1084 53.3612 39.2965C53.268 39.3964 53.1412 39.4435 53.0143 39.4435V39.4415Z" fill="#00BBD6"/>
<path d="M61.489 46.4722C61.3483 46.4722 61.2075 46.4115 61.1123 46.2939C58.7986 43.4351 56.4056 41.5481 54.8076 40.4685C54.1514 40.0315 53.4317 39.6435 52.8349 39.4064C52.5871 39.3065 52.4681 39.0322 52.5692 38.7853C52.6664 38.5443 52.9519 38.4267 53.1958 38.5227C53.5824 38.6756 54.3754 39.0322 55.3509 39.6808C57.0063 40.7996 59.4787 42.7473 61.8657 45.6982C62.0323 45.904 61.9986 46.2038 61.7904 46.3664C61.7012 46.4369 61.5961 46.4702 61.489 46.4702V46.4722Z" fill="#00BBD6"/>
<path d="M61.4735 46.4745C61.3843 46.4745 61.305 46.4627 61.2336 46.449C60.8411 46.3707 60.621 46.0924 60.5516 45.8769C60.4723 45.6261 60.6111 45.3596 60.8648 45.2792C61.0928 45.2028 61.3367 45.3125 61.4398 45.5163C61.5429 45.5124 62.3835 45.4536 64.6695 42.8299C68.141 38.7896 72.6039 34.6414 72.6495 34.6003C72.7784 34.4788 72.9667 34.4415 73.1352 34.4964C73.6963 34.6884 76.5255 35.6584 77.1877 36.1521C77.3998 36.3109 77.4415 36.6106 77.2809 36.8203C77.1203 37.0339 76.8189 37.0672 76.6068 36.9144C76.2182 36.6244 74.3546 35.9268 73.0956 35.4938C72.1737 36.3618 68.4087 39.9476 65.3991 43.4511C63.1686 46.0101 62.0861 46.4745 61.4695 46.4745H61.4735ZM61.4616 45.5673L61.4695 45.5888C61.4695 45.5888 61.4656 45.5751 61.4616 45.5673Z" fill="#00BBD6"/>
<path d="M80.0114 33.3809C79.9717 33.4867 79.9261 33.5788 79.8885 33.6533C79.8548 33.7199 79.7418 33.9629 79.5514 34.3665C79.5078 34.4606 79.4622 34.5546 79.4186 34.6487C75.2115 43.6425 72.4715 49.178 71.274 51.11C69.2081 54.5272 67.7826 55.5168 64.8028 55.5168C64.7195 55.5168 64.6362 55.5168 64.5529 55.5148C61.466 55.4599 51.5113 52.8695 45.5318 50.5652C39.4015 48.2237 36.5128 45.02 36.3939 44.8848C36.2174 44.6869 36.2373 44.3871 36.4375 44.2147C36.6378 44.0403 36.9411 44.0599 37.1175 44.2578C37.1453 44.2872 39.9864 47.4282 45.8787 49.6776C47.0247 50.1185 48.3153 50.5711 49.6754 51.014C49.9926 51.1158 50.3158 51.2197 50.6409 51.3216C56.0793 53.0341 62.2848 54.5214 64.5708 54.5625C67.3167 54.635 68.5043 53.8356 70.4492 50.6181C71.272 49.2936 73.3617 45.3335 78.6791 33.9668C78.8258 33.6533 78.9289 33.4338 78.9804 33.326C78.9963 33.2908 79.0082 33.2672 79.0121 33.2574C79.0597 33.1614 79.141 33.0008 79.1529 32.9185C79.1351 32.9185 79.0815 32.8969 78.9844 32.8773C78.9348 32.8695 78.8793 32.8558 78.8179 32.8401C77.9058 32.5893 75.7151 31.4979 74.7396 30.9982C74.123 32.3012 73.5084 33.6474 73.1456 34.4997C72.9632 34.9328 72.8442 35.2385 72.8244 35.3462C72.868 35.6068 72.6896 35.7969 72.4259 35.84C72.1602 35.8811 71.9144 35.6558 71.8708 35.3952C71.8688 35.3795 71.8668 35.3639 71.8648 35.3443C71.8549 35.1424 72.0016 34.4997 74.0834 30.1439C74.0873 30.1341 74.0933 30.1263 74.0992 30.1165C74.1547 30.0126 74.2499 29.9342 74.3649 29.897C74.4898 29.8578 74.6266 29.8656 74.7436 29.9284C75.1421 30.1361 75.6258 30.381 76.1274 30.6279C76.9502 31.0335 77.8186 31.443 78.4392 31.6958C78.7604 31.8271 79.0122 31.9152 79.1589 31.9427C79.3175 31.9721 79.4563 32.0152 79.5772 32.0739C79.7834 32.1739 79.9341 32.315 80.0253 32.4972C80.1819 32.8087 80.1125 33.132 80.0114 33.3809Z" fill="#00BBD6"/>
<path d="M48.2914 71.5027C46.4852 71.5027 44.8139 71.34 43.4657 70.9912C37.8113 69.5412 32.9281 68.2892 33.8916 58.3273C34.421 53.1779 34.3734 52.2883 34.2862 50.6737C34.2168 49.3707 34.1196 47.5837 34.2604 42.8673C34.5241 32.1942 37.9877 25.9396 38.1344 25.6771C38.2653 25.4478 38.5567 25.3655 38.7887 25.4949C39.0207 25.6203 39.1039 25.9122 38.975 26.1395C38.9413 26.2022 35.4817 32.4685 35.222 42.8908C35.0832 47.57 35.1764 49.3335 35.2458 50.6208C35.335 52.2824 35.3845 53.1975 34.8473 58.4175C34.0027 67.1429 37.4822 68.4734 43.7056 70.0683C49.59 71.5908 61.1209 69.312 62.9805 66.2631C63.1173 66.0397 63.4108 65.9633 63.6427 66.1005C63.8707 66.2357 63.9421 66.5276 63.8053 66.753C62.0527 69.6275 54.4057 71.4987 48.2894 71.4987L48.2914 71.5027Z" fill="#00BBD6"/>
<path d="M64.348 64.715C64.3064 64.715 64.2628 64.7092 64.2211 64.6974C63.9654 64.6288 63.8147 64.3663 63.8841 64.1135C64.5304 61.7974 64.4749 58.9523 64.4412 57.2515C64.4293 56.601 64.4194 56.1719 64.4531 55.9289C64.4868 55.6683 64.7366 55.5037 64.9924 55.5174C65.2561 55.5507 65.4404 55.7917 65.4067 56.0504C65.3849 56.2228 65.3929 56.6911 65.4048 57.23C65.4385 58.9837 65.4959 61.917 64.8119 64.3643C64.7525 64.5759 64.5602 64.715 64.348 64.715Z" fill="#00BBD6"/>
<path d="M82.9387 81.4722C82.7801 81.4722 82.6235 81.3939 82.5323 81.2508C79.7467 76.9087 74.2192 72.0297 69.3419 67.7267C67.5219 66.118 65.799 64.5994 64.3338 63.2082C64.1415 63.026 64.1356 62.7243 64.32 62.5361C64.5043 62.3441 64.8097 62.3441 65 62.5244C66.4552 63.9038 68.1682 65.4165 69.9823 67.0174C74.9071 71.3635 80.4882 76.2895 83.3451 80.7433C83.4879 80.9647 83.4205 81.2587 83.1964 81.3997C83.1171 81.4507 83.0259 81.4742 82.9387 81.4742V81.4722Z" fill="#00BBD6"/>
<path d="M64.772 43.8836C64.7383 43.8836 64.7026 43.8796 64.6669 43.8718C64.4072 43.815 64.2426 43.5602 64.3021 43.3036C64.7997 41.1011 63.2949 36.9197 61.9686 33.2281C61.124 30.8807 60.3269 28.6626 60.0593 27.0382C60.0157 26.7795 60.1941 26.5346 60.4578 26.4935C60.7155 26.4406 60.9673 26.6247 61.0109 26.8873C61.2647 28.4235 62.0479 30.6024 62.8766 32.9107C64.314 36.906 65.799 41.0424 65.2419 43.5093C65.1923 43.7307 64.992 43.8836 64.772 43.8836Z" fill="#00BBD6"/>
<path d="M35.5289 65.4519C35.4377 65.8516 35.3425 66.2729 35.2473 66.7157C34.9737 67.956 34.6763 69.359 34.3552 70.8776C31.9998 82.0229 28.5421 98.3765 23.0959 105.542C22.8183 105.909 22.5348 106.25 22.2473 106.567C22.0055 106.831 21.7596 107.078 21.5098 107.306C21.371 107.431 21.2342 107.556 21.1014 107.68C20.7861 107.968 20.4828 108.248 20.1914 108.519C18.9364 109.688 17.9034 110.692 17.0271 111.589C16.7595 111.863 16.5057 112.13 16.2638 112.387C15.3082 113.405 14.5508 114.301 13.8728 115.181C13.6091 115.52 13.3613 115.855 13.1154 116.194C12.4532 117.113 11.8287 118.057 11.1031 119.152C10.5559 119.975 9.95513 120.881 9.24139 121.921C6.73933 125.603 5.19884 126.953 4.28287 127.376L4.58621 127.839L4.79835 128.162C4.94308 128.383 4.87765 128.677 4.6556 128.818C4.57431 128.871 4.48509 128.897 4.39389 128.897C4.23727 128.897 4.08263 128.818 3.98944 128.679L3.89031 128.528L3.08934 127.304C2.9684 127.12 2.99021 126.879 3.14485 126.72C3.29553 126.563 3.53542 126.526 3.72575 126.63C3.72575 126.591 5.02437 126.422 8.44438 121.39C9.15415 120.352 9.75092 119.45 10.2961 118.629C12.8934 114.712 14.3228 112.555 20.8575 106.606C27.0036 101.002 31.0145 82.021 33.4134 70.6816C33.8337 68.6869 34.2124 66.896 34.5514 65.4048C34.5653 65.348 34.5772 65.2951 34.5891 65.2422C34.6486 64.9875 34.8984 64.817 35.166 64.8836C35.2691 64.9071 35.3564 64.9601 35.4178 65.0326C35.4872 65.109 35.5308 65.205 35.5388 65.3069C35.5427 65.3559 35.5408 65.4029 35.5289 65.4519Z" fill="#00BBD6"/>
<path d="M2.41903 133.381C2.37938 133.297 2.34369 133.213 2.31396 133.13C2.34171 133.215 2.37145 133.303 2.40318 133.395C2.48446 133.632 2.56971 133.887 2.66091 134.159L2.73824 134.4L2.78383 134.357L2.9365 134.21C2.72436 133.943 2.5479 133.659 2.41903 133.381ZM2.41903 133.381C2.37938 133.297 2.34369 133.213 2.31396 133.13C2.34171 133.215 2.37145 133.303 2.40318 133.395C2.48446 133.632 2.56971 133.887 2.66091 134.159L2.73824 134.4L2.78383 134.357L2.9365 134.21C2.72436 133.943 2.5479 133.659 2.41903 133.381ZM2.41903 133.381C2.37938 133.297 2.34369 133.213 2.31396 133.13C2.34171 133.215 2.37145 133.303 2.40318 133.395C2.48446 133.632 2.56971 133.887 2.66091 134.159L2.73824 134.4L2.78383 134.357L2.9365 134.21C2.72436 133.943 2.5479 133.659 2.41903 133.381ZM2.41903 133.381C2.37938 133.297 2.34369 133.213 2.31396 133.13C2.34171 133.215 2.37145 133.303 2.40318 133.395C2.48446 133.632 2.56971 133.887 2.66091 134.159L2.73824 134.4L2.78383 134.357L2.9365 134.21C2.72436 133.943 2.5479 133.659 2.41903 133.381ZM44.6091 105.177C44.1531 104.162 41.8651 104.422 39.9915 104.832C39.5633 104.924 39.1569 105.024 38.8 105.12C38.681 105.151 38.5839 105.226 38.5224 105.322C38.5185 105.326 38.5165 105.328 38.5165 105.33C38.4947 105.365 38.4788 105.4 38.4689 105.437C38.4629 105.453 38.459 105.469 38.457 105.484C38.453 105.498 38.4511 105.514 38.4491 105.528C38.4431 105.565 38.4431 105.604 38.4491 105.643C38.4491 105.665 38.455 105.684 38.461 105.706C38.4649 105.722 38.4709 105.737 38.4788 105.753C38.4867 105.772 38.4947 105.79 38.5046 105.808C38.5125 105.821 38.5204 105.835 38.5304 105.849C38.5323 105.855 38.5383 105.861 38.5423 105.867C38.5502 105.876 38.5581 105.886 38.566 105.894C38.5958 105.929 38.6315 105.959 38.6731 105.984C38.6929 105.996 38.7128 106.008 38.7346 106.015C38.7504 106.023 38.7683 106.031 38.7861 106.035C38.796 106.039 38.8079 106.041 38.8178 106.043C38.8297 106.047 38.8416 106.049 38.8555 106.051C38.8773 106.055 38.9011 106.057 38.9249 106.057C38.9467 106.057 38.9685 106.055 38.9883 106.053C39.0062 106.049 39.022 106.047 39.0399 106.043C39.0439 106.043 39.0478 106.041 39.0518 106.041C41.2109 105.463 43.4453 105.241 43.7506 105.555C43.7367 105.584 43.707 105.618 43.6614 105.653C43.586 105.675 43.5166 105.716 43.4611 105.771C42.68 106.139 40.2314 106.635 34.236 106.374C32.987 106.309 31.7221 106.462 30.4552 106.789C29.0217 107.156 27.5883 107.746 26.1767 108.496H26.1747C25.8099 108.69 25.4471 108.894 25.0863 109.107C24.773 109.292 24.4617 109.484 24.1505 109.684C23.522 110.085 22.9014 110.514 22.2888 110.965C22.0172 111.165 21.7456 111.369 21.4779 111.576C20.3914 112.417 19.3367 113.314 18.3295 114.235C18.0936 114.455 17.8576 114.672 17.6277 114.892C16.7771 115.695 15.9623 116.51 15.193 117.318C14.961 117.559 14.733 117.802 14.511 118.041C14.3901 118.17 14.2731 118.297 14.1561 118.425C12.4055 120.31 10.0045 122.614 7.68089 124.844C6.56666 125.914 5.50993 126.929 4.58801 127.838C4.34613 128.075 4.11417 128.306 3.89211 128.528C2.65893 129.766 1.75684 130.746 1.43566 131.304C1.34248 131.467 1.27705 131.639 1.23541 131.819C1.1343 132.249 1.17594 132.721 1.31869 133.193C1.32463 133.211 1.3286 133.226 1.33454 133.244C1.3623 133.332 1.39402 133.42 1.42773 133.508C1.51298 133.72 1.61608 133.932 1.73305 134.137C1.90554 134.435 2.10975 134.723 2.33577 134.984C2.4686 135.139 2.60738 135.284 2.75211 135.417C2.86512 135.523 2.97813 135.619 3.09511 135.709C3.11691 135.727 3.13674 135.742 3.15855 135.758C3.51146 136.022 3.87626 136.218 4.24106 136.342C4.26485 136.352 4.28864 136.359 4.31243 136.365C4.33028 136.373 4.3501 136.379 4.36993 136.385C5.08168 136.6 5.79146 136.546 6.40409 136.209C6.4596 136.179 6.51313 136.148 6.56666 136.113C6.87595 135.909 7.18722 135.727 7.50047 135.566C8.87641 134.855 10.286 134.559 11.7076 134.71C12.3043 134.768 13.4126 135.335 14.1462 135.752C13.8666 136.03 13.5772 136.352 13.3472 136.675C13.0538 137.086 12.8575 137.502 12.909 137.843C12.9487 138.099 13.1053 138.305 13.375 138.433L13.4047 138.444C13.7715 138.585 14.0649 138.636 14.3028 138.636C14.6716 138.636 14.8956 138.511 15.0205 138.421C15.0542 138.386 16.4659 136.9 18.3592 134.87C18.6467 134.565 18.9421 134.247 19.2475 133.92C21.7396 131.237 24.7631 127.934 26.6386 125.712C30.0547 121.648 30.5325 121.491 30.7466 121.421C30.7863 121.413 30.8576 121.403 30.9528 121.391C31.7478 121.282 33.8772 120.992 36.0243 119.377C36.068 119.346 36.1116 119.314 36.1532 119.279C36.1532 119.277 36.1572 119.277 36.1592 119.275C36.5854 118.944 37.0117 118.56 37.426 118.115C40.0946 115.252 43.6475 107.595 44.1768 106.439C44.3434 106.327 44.4742 106.206 44.5615 106.07C44.7459 105.782 44.7578 105.457 44.6091 105.177ZM38.5522 114.998C38.3341 115.339 38.116 115.668 37.8999 115.975C37.4915 116.557 37.0949 117.067 36.7183 117.47C36.3634 117.852 35.9986 118.184 35.6338 118.472C35.2095 118.807 34.7832 119.083 34.3708 119.312C33.5302 119.779 32.7352 120.049 32.0888 120.212C31.5377 120.351 31.0936 120.412 30.822 120.447C30.6376 120.472 30.5147 120.496 30.4334 120.521C30.3957 120.533 30.358 120.545 30.3184 120.562C29.8981 120.719 29.1744 121.203 25.8971 125.102C22.491 129.145 15.2406 136.796 14.398 137.686C14.3226 137.692 14.1621 137.696 13.8944 137.608C14.0372 137.28 14.628 136.583 15.2584 136.015C15.3695 135.917 15.427 135.77 15.4131 135.623C15.3992 135.474 15.3179 135.341 15.191 135.262C14.963 135.119 12.9447 133.877 11.8027 133.761C9.84789 133.571 7.86329 134.114 6.03532 135.319C5.91438 135.397 5.78948 135.454 5.66656 135.493C5.22047 135.638 4.77041 135.546 4.38777 135.378C3.93573 135.18 3.57291 134.876 3.40836 134.723C3.23587 134.563 3.07726 134.39 2.9365 134.21C2.72436 133.943 2.5479 133.659 2.41903 133.381C2.37938 133.297 2.34369 133.213 2.31396 133.13C2.31197 133.128 2.31197 133.126 2.31197 133.126C2.29413 133.081 2.27827 133.038 2.26637 132.995C2.10777 132.517 2.09587 132.076 2.27034 131.776C2.80168 130.853 5.49804 128.265 8.35102 125.526C10.6826 123.288 13.0934 120.974 14.8659 119.063C15.99 117.839 17.3957 116.395 18.9917 114.943C18.9937 114.941 18.9977 114.939 18.9996 114.937C19.6638 114.335 20.3577 113.732 21.0794 113.144C21.3312 112.938 21.585 112.734 21.8427 112.535C22.3146 112.164 22.7983 111.804 23.288 111.457C23.5616 111.261 23.8372 111.071 24.1148 110.885C24.4241 110.677 24.7373 110.475 25.0545 110.277C25.3281 110.109 25.6017 109.944 25.8793 109.785C26.0022 109.713 26.1291 109.642 26.254 109.574C26.254 109.572 26.256 109.572 26.258 109.572C28.7065 108.214 31.2542 107.315 33.7047 107.315C33.8653 107.315 34.0298 107.317 34.1904 107.326C37.2278 107.454 40.7826 107.456 42.8782 106.944C42.0535 108.684 40.287 112.288 38.5522 114.998ZM2.41903 133.381C2.37938 133.297 2.34369 133.213 2.31396 133.13C2.34171 133.215 2.37145 133.303 2.40318 133.395C2.48446 133.632 2.56971 133.887 2.66091 134.159L2.73824 134.4L2.78383 134.357L2.9365 134.21C2.72436 133.943 2.5479 133.659 2.41903 133.381ZM2.41903 133.381C2.37938 133.297 2.34369 133.213 2.31396 133.13C2.34171 133.215 2.37145 133.303 2.40318 133.395C2.48446 133.632 2.56971 133.887 2.66091 134.159L2.73824 134.4L2.78383 134.357L2.9365 134.21C2.72436 133.943 2.5479 133.659 2.41903 133.381ZM2.41903 133.381C2.37938 133.297 2.34369 133.213 2.31396 133.13C2.34171 133.215 2.37145 133.303 2.40318 133.395C2.48446 133.632 2.56971 133.887 2.66091 134.159L2.73824 134.4L2.78383 134.357L2.9365 134.21C2.72436 133.943 2.5479 133.659 2.41903 133.381Z" fill="#00BBD6"/>
<path d="M37.8997 115.975C37.4913 116.557 37.0947 117.067 36.718 117.47C36.3631 117.852 35.9983 118.183 35.6335 118.471C31.0834 118.254 25.5817 115.399 24.1602 111.033C24.4714 110.812 24.7867 110.591 25.1059 110.365C27.8795 115.129 31.9915 116.003 36.4742 116.003C36.946 116.003 37.4219 115.993 37.8997 115.975Z" fill="#00BBD6"/>
<path d="M28.0596 119.581C26.7153 121.108 19.9943 128.085 15.3213 132.9L13.5508 132.171C15.7654 129.968 25.5198 120.271 26.8502 118.946C27.2447 119.172 27.6492 119.383 28.0596 119.581Z" fill="#00BBD6"/>
<path d="M24.1019 116.996L4.38877 135.378C3.93673 135.18 3.57391 134.876 3.40936 134.723C3.23687 134.562 3.07827 134.39 2.9375 134.21L22.6843 115.53C23.1304 116.067 23.6043 116.555 24.1019 116.996Z" fill="#00BBD6"/>
<path d="M39.2479 115.444C39.2598 115.707 39.0556 115.93 38.788 115.942C38.4906 115.956 38.1952 115.968 37.8998 115.975C37.422 115.993 36.9461 116.003 36.4743 116.003C31.9916 116.003 27.8796 115.129 25.106 110.366C25.0881 110.336 25.0703 110.307 25.0544 110.277C25.0167 110.213 24.9811 110.148 24.9434 110.081C24.9255 110.048 24.9077 110.017 24.8899 109.983C24.763 109.752 24.8522 109.464 25.0861 109.339C25.219 109.268 25.3697 109.264 25.4985 109.317C25.5977 109.358 25.6849 109.431 25.7384 109.533C25.784 109.619 25.8316 109.703 25.8792 109.786C25.8851 109.797 25.8931 109.809 25.897 109.819C28.8412 114.941 33.3655 115.231 38.5521 114.998C38.6155 114.996 38.6809 114.994 38.7444 114.99C38.9962 114.986 39.2341 115.182 39.2479 115.444Z" fill="#00BBD6"/>
<path d="M36.2828 118.971C36.2788 119.087 36.2332 119.195 36.1599 119.275C36.1579 119.277 36.1559 119.277 36.1539 119.279C36.1182 119.318 36.0746 119.351 36.025 119.377C35.9576 119.412 35.8823 119.432 35.801 119.432H35.7871C35.3212 119.416 34.8494 119.377 34.3715 119.312C29.8016 118.701 24.9006 115.885 23.3462 111.619C23.3264 111.567 23.3066 111.512 23.2887 111.457C23.2174 111.249 23.1539 111.039 23.1004 110.826C23.0845 110.763 23.0825 110.698 23.0905 110.638C23.1182 110.456 23.255 110.297 23.4493 110.248C23.5167 110.232 23.5841 110.23 23.6476 110.242C23.83 110.273 23.9866 110.405 24.0342 110.593C24.06 110.691 24.0857 110.789 24.1155 110.885C24.1313 110.936 24.1472 110.985 24.1611 111.034C25.5826 115.399 31.0844 118.254 35.6345 118.472C35.6959 118.476 35.7554 118.477 35.8169 118.479C36.0845 118.489 36.2927 118.709 36.2828 118.971Z" fill="#00BBD6"/>
<path d="M32.4917 120.866C32.4223 121.058 32.2379 121.178 32.0417 121.178C31.9862 121.178 31.9306 121.168 31.8751 121.148C31.3517 120.958 30.8323 120.764 30.3188 120.563C29.8509 120.378 29.3909 120.188 28.9349 119.986C28.6395 119.857 28.3481 119.722 28.0606 119.581C27.6502 119.383 27.2457 119.171 26.8512 118.946C26.5637 118.785 26.2822 118.615 26.0026 118.437C25.6061 118.182 25.2175 117.908 24.8408 117.614C24.589 117.418 24.3432 117.214 24.1013 116.996C23.6037 116.556 23.1298 116.068 22.6837 115.531C22.4815 115.288 22.2852 115.035 22.0949 114.77C21.7578 114.302 21.4386 113.799 21.1413 113.256C21.1194 113.219 21.0996 113.181 21.0798 113.144C21.0045 113.005 20.9291 112.864 20.8577 112.719C20.7824 112.564 20.7963 112.39 20.8815 112.256C20.8815 112.256 20.8822 112.256 20.8835 112.255C20.9291 112.182 20.9926 112.123 21.0758 112.082C21.0996 112.07 21.1234 112.061 21.1492 112.055C21.3693 111.986 21.6151 112.086 21.7202 112.296C21.7598 112.376 21.8015 112.456 21.8431 112.535C21.8669 112.58 21.8907 112.625 21.9165 112.67C24.2619 117.038 28.0606 118.744 32.0893 120.212C32.1289 120.228 32.1666 120.241 32.2062 120.255C32.456 120.347 32.5849 120.619 32.4917 120.866Z" fill="#00BBD6"/>
<path d="M22.9467 115.283L22.683 115.531L2.93614 134.211L2.78347 134.358L2.73788 134.401L2.71408 134.422C2.6209 134.511 2.49996 134.554 2.381 134.554C2.25411 134.554 2.12723 134.505 2.03404 134.407C1.95077 134.323 1.90716 134.213 1.90121 134.103C1.89328 133.97 1.94284 133.833 2.04792 133.733L2.40281 133.398L2.41867 133.382L22.0941 114.771L22.2805 114.595C22.4708 114.413 22.7781 114.42 22.9605 114.61C23.1449 114.801 23.137 115.102 22.9467 115.283Z" fill="#00BBD6"/>
<path d="M24.9587 117.507L24.8417 117.614L10.3964 131.084L10.2437 131.229L5.66785 135.494L4.83119 136.274C4.73801 136.36 4.61905 136.403 4.50009 136.403C4.45647 136.403 4.41286 136.398 4.37122 136.386C4.3514 136.38 4.33158 136.374 4.31373 136.366C4.28796 136.356 4.26218 136.343 4.23839 136.327C4.20667 136.307 4.17693 136.284 4.15116 136.255C4.00642 136.102 3.98065 135.88 4.07582 135.706C4.09961 135.661 4.13133 135.62 4.17098 135.582L4.38907 135.379L24.1022 116.997L24.2965 116.815C24.4908 116.635 24.7981 116.644 24.9785 116.834C25.1609 117.025 25.151 117.326 24.9587 117.507Z" fill="#00BBD6"/>
<path d="M26.9822 118.815C26.9584 118.839 26.9148 118.882 26.8513 118.946C25.521 120.271 15.7665 129.968 13.552 132.171C13.2645 132.457 13.1039 132.615 13.1039 132.615L12.4219 131.943L12.5924 131.775C14.0258 130.348 24.0915 120.34 26.0028 118.437C26.1554 118.286 26.2565 118.186 26.2962 118.145C26.4826 117.957 26.7879 117.961 26.9782 118.141C27.1666 118.327 27.1686 118.629 26.9822 118.815Z" fill="#00BBD6"/>
<path d="M29.1855 119.538C29.1855 119.606 29.1855 119.669 28.9337 119.986C28.2497 120.847 25.708 123.57 16.2747 133.293C16.1221 133.452 15.9654 133.61 15.8088 133.773C15.7156 133.869 15.5887 133.918 15.4618 133.918C15.3429 133.918 15.222 133.873 15.1288 133.785C14.9365 133.605 14.9305 133.301 15.1149 133.113C15.1843 133.042 15.2517 132.972 15.3211 132.899C19.9941 128.085 26.7152 121.107 28.0594 119.581C28.1625 119.465 28.2338 119.379 28.2715 119.33C28.3488 119.171 28.5134 119.062 28.7037 119.062C28.9694 119.062 29.1855 119.275 29.1855 119.538Z" fill="#00BBD6"/>
<path d="M16.8612 134.05C16.7839 134.232 16.6054 134.342 16.4171 134.342C16.3556 134.342 16.2922 134.33 16.2327 134.307L10.4593 131.928C10.2135 131.826 10.0965 131.548 10.1996 131.305C10.2115 131.279 10.2234 131.254 10.2393 131.232C10.2393 131.23 10.2432 131.228 10.2432 131.228C10.2809 131.168 10.3344 131.121 10.3939 131.085H10.3959C10.5228 131.009 10.6834 130.993 10.8281 131.048L12.5926 131.775L13.5522 132.171L15.3227 132.9L16.2763 133.294L16.6015 133.427C16.8473 133.529 16.9643 133.807 16.8612 134.05Z" fill="#00BBD6"/>
<path d="M25.1563 110.127C25.1028 110.127 25.0473 110.117 24.9937 110.097C22.1665 109.098 22.1328 105.673 22.1328 105.528C22.1328 105.265 22.3489 105.054 22.6146 105.052C22.8803 105.052 23.0964 105.265 23.0964 105.526C23.0964 105.557 23.1321 108.43 25.3189 109.204C25.5687 109.292 25.6995 109.564 25.6103 109.811C25.5409 110.005 25.3546 110.127 25.1563 110.127Z" fill="#00BBD6"/>
<path d="M22.5179 111.606C22.4346 111.775 22.2621 111.873 22.0837 111.873C22.0143 111.873 21.9409 111.857 21.8735 111.824C21.7923 111.785 21.713 111.74 21.6396 111.691C21.5821 111.655 21.5286 111.618 21.477 111.577C20.5155 110.83 20.2597 109.379 20.1923 108.518C20.1645 108.138 20.1725 107.874 20.1744 107.836C20.1824 107.576 20.4064 107.415 20.6721 107.38C20.8684 107.388 21.0349 107.509 21.1023 107.68C21.1261 107.74 21.138 107.805 21.136 107.874C21.1102 108.565 21.2708 110.466 22.2879 110.966C22.2899 110.968 22.2939 110.968 22.2958 110.97C22.3593 111.001 22.4128 111.044 22.4564 111.095C22.5714 111.234 22.6012 111.434 22.5179 111.606Z" fill="#00BBD6"/>
<path d="M21.4763 111.577C20.3899 112.418 19.3351 113.315 18.3279 114.236C17.4992 113.18 17.1304 111.981 17.0273 111.589C17.9037 110.692 18.9366 109.688 20.1916 108.519C20.259 109.379 20.5148 110.831 21.4763 111.577Z" fill="#00BBD6"/>
<path d="M18.5022 115.006C18.4784 115.038 18.4526 115.067 18.4209 115.092C18.3317 115.167 18.2207 115.204 18.1116 115.204C17.9748 115.204 17.838 115.147 17.7429 115.034C17.7032 114.987 17.6636 114.94 17.6259 114.893C16.9062 114.003 16.4879 113.031 16.2638 112.386C16.1191 111.965 16.0576 111.683 16.0517 111.654C15.9962 111.397 16.1627 111.144 16.4224 111.091C16.6861 111.034 16.9379 111.201 16.9934 111.458C16.9934 111.46 17.0053 111.507 17.0271 111.589C17.1302 111.981 17.499 113.18 18.3277 114.236C18.3317 114.24 18.3357 114.244 18.3376 114.25C18.3852 114.307 18.4308 114.365 18.4804 114.422C18.6251 114.593 18.6291 114.834 18.5022 115.006Z" fill="#00BBD6"/>
<path d="M14.5095 118.041C14.3886 118.17 14.2716 118.298 14.1546 118.425C12.404 120.31 10.003 122.614 7.67942 124.844C6.56519 125.914 5.50846 126.929 4.58654 127.838L4.2832 127.376C5.19917 126.953 6.73966 125.603 9.24172 121.921C9.95546 120.88 10.5562 119.975 11.1034 119.152C11.829 118.057 12.4536 117.112 13.1158 116.195C13.316 116.807 13.7185 117.581 14.5095 118.041Z" fill="#00BBD6"/>
<path d="M15.5424 117.962C15.469 118.152 15.2866 118.27 15.0923 118.27C15.0348 118.27 14.9773 118.258 14.9198 118.237C14.7731 118.18 14.6343 118.115 14.5094 118.041C13.7184 117.58 13.3159 116.806 13.1157 116.195V116.193C12.9551 115.711 12.9214 115.331 12.9174 115.294C12.8976 115.033 13.0938 114.804 13.3575 114.782C13.6014 114.782 13.8334 114.941 13.873 115.18C13.873 115.192 13.877 115.204 13.877 115.215C13.879 115.233 14.0296 116.818 15.1915 117.318C15.2152 117.33 15.239 117.339 15.2648 117.349C15.5126 117.443 15.6375 117.717 15.5424 117.962Z" fill="#00BBD6"/>
<path d="M60.1951 80.255C60.1554 80.3138 57.578 84.1367 54.2909 88.1868C54.1342 88.3808 53.9756 88.5729 53.815 88.7668C52.217 90.7067 50.4763 92.6603 48.7931 94.2415C48.1487 94.845 47.5222 95.474 46.9175 96.1108L46.9155 96.1128C46.2851 96.779 45.6784 97.4531 45.1034 98.1232C42.756 100.849 40.9161 103.459 39.9922 104.832C39.5759 105.45 39.3459 105.816 39.336 105.832C39.2567 105.957 39.1278 106.033 38.989 106.053C38.9692 106.055 38.9474 106.057 38.9256 106.057C38.9018 106.057 38.878 106.055 38.8562 106.051C38.8423 106.049 38.8304 106.047 38.8185 106.043C38.8086 106.041 38.7967 106.039 38.7868 106.035C38.769 106.032 38.7511 106.024 38.7353 106.016C38.7135 106.008 38.6936 105.996 38.6738 105.984C38.6322 105.959 38.5965 105.93 38.5667 105.894C38.5588 105.885 38.5509 105.877 38.543 105.867C38.539 105.861 38.533 105.855 38.5311 105.849C38.5211 105.836 38.5132 105.822 38.5053 105.808C38.4954 105.791 38.4874 105.773 38.4795 105.753C38.4656 105.718 38.4557 105.681 38.4498 105.644C38.4438 105.604 38.4438 105.565 38.4498 105.528C38.4498 105.514 38.4537 105.499 38.4577 105.485C38.4577 105.469 38.4636 105.453 38.4696 105.438C38.4795 105.401 38.4954 105.365 38.5172 105.33C38.5172 105.33 38.5172 105.326 38.5231 105.322C38.6262 105.156 40.2797 102.55 42.7976 99.4027H42.7996C43.2933 98.7835 43.8227 98.1428 44.3798 97.4942H44.3818C45.5257 96.1657 46.7906 94.8117 48.1289 93.5538C53.4284 88.5729 59.3346 79.8161 59.3921 79.7279C59.5428 79.5104 59.8382 79.4516 60.0603 79.5947C60.2823 79.7416 60.3418 80.0375 60.1951 80.255Z" fill="#00BBD6"/>
<path d="M74.5679 96.4344C74.3439 96.4344 74.1436 96.2796 74.098 96.0543C73.8839 95.0314 72.3652 94.2418 64.9542 92.9917C57.0733 91.6083 54.0934 89.1276 53.9705 89.0218C53.7703 88.8514 53.7485 88.5516 53.921 88.3517C54.0934 88.1557 54.3968 88.1283 54.599 88.3008C54.6268 88.3243 57.5432 90.7246 65.1207 92.0531C73.2653 93.4267 74.7166 94.3006 75.0417 95.8623C75.0953 96.1189 74.9268 96.3717 74.667 96.4227C74.6333 96.4305 74.6016 96.4344 74.5679 96.4344Z" fill="#00BBD6"/>
<path d="M74.4174 95.2235C74.4134 95.2333 74.354 95.3489 74.2548 95.5585C74.2033 95.6663 74.1438 95.7976 74.0724 95.9524C73.1327 98.0372 70.6584 104.192 71.7052 109.079C71.961 110.219 72.0938 111.481 72.1374 112.784C72.2028 114.73 72.074 116.764 71.8717 118.617C71.6378 120.735 71.3087 122.615 71.0688 123.849C70.8983 124.715 70.7714 125.266 70.7496 125.356C70.7357 125.417 70.7099 125.471 70.6782 125.518H70.6762C70.587 125.646 70.4403 125.724 70.2797 125.724C70.244 125.724 70.2083 125.72 70.1726 125.712C70.0695 125.689 69.9823 125.634 69.9208 125.562C69.8792 125.516 69.8475 125.466 69.8277 125.409C69.7959 125.326 69.79 125.232 69.8118 125.14C69.8177 125.115 69.9645 124.476 70.1607 123.436C70.3768 122.305 70.6485 120.698 70.8586 118.899C71.2214 115.79 71.3959 112.102 70.7635 109.281C69.56 103.667 72.6033 96.7851 73.3825 95.147C73.4777 94.9511 73.5391 94.8296 73.557 94.7943C73.6779 94.5592 73.9654 94.4632 74.2033 94.5827C74.2449 94.6043 74.2826 94.6297 74.3143 94.6591C74.467 94.8002 74.5165 95.0295 74.4174 95.2235Z" fill="#00BBD6"/>
<path d="M88.6313 137.569C87.9869 138.397 86.498 138.797 83.4923 138.94C82.5902 138.983 81.6961 139.001 80.8217 139.001C77.0686 139.001 73.6447 138.648 71.2279 138.356C69.3761 138.1 68.3055 137.633 67.7484 136.842C67.3637 136.295 67.2547 135.631 67.2864 134.923C67.2983 134.612 67.34 134.292 67.3955 133.971C67.4351 133.744 67.4827 133.514 67.5323 133.287C67.7305 132.437 67.8614 131.778 67.9506 131.202C68.0755 130.242 68.1627 129.302 68.2401 128.5C68.3273 127.587 68.3967 126.866 68.4839 126.425C68.5831 126.027 68.8051 125.739 69.1303 125.573C69.3503 125.461 69.5942 125.414 69.8281 125.408C69.8658 125.406 69.9015 125.406 69.9372 125.406C70.2247 125.412 70.4903 125.467 70.6767 125.518H70.6787C70.7659 125.541 70.8333 125.563 70.8789 125.579C70.9027 125.588 70.9186 125.594 70.9285 125.598C71.1783 125.692 71.3012 125.965 71.2061 126.212C71.1386 126.386 70.9741 126.5 70.7937 126.511C70.7263 126.519 70.6549 126.511 70.5855 126.486C70.4289 126.427 70.1136 126.347 69.8519 126.357C69.7469 126.357 69.6497 126.378 69.5744 126.417C69.5189 126.445 69.4574 126.494 69.4237 126.631C69.3503 127.003 69.2809 127.738 69.1996 128.59C69.1203 129.4 69.0311 130.35 68.9042 131.334C68.8111 131.943 68.6743 132.627 68.472 133.497C68.4026 133.804 68.3491 134.083 68.3114 134.337C68.2936 134.455 68.2797 134.565 68.2698 134.671L68.2678 134.674C68.1925 135.431 68.2817 135.93 68.5375 136.297C68.93 136.853 69.7984 137.196 71.3528 137.414C74.289 137.768 78.7499 138.217 83.4447 137.988C86.0301 137.866 87.4338 137.549 87.8679 136.989C87.9909 136.828 88.1158 136.563 87.977 135.923C87.6756 134.721 85.925 134.106 84.9852 133.775C84.8167 133.716 84.672 133.665 84.559 133.62C84.1862 133.448 83.7917 133.128 83.3357 132.758C82.62 132.18 81.7298 131.459 80.7067 131.089C80.0465 130.844 79.4736 131.328 78.5259 132.204C77.7725 132.897 76.918 133.687 75.7621 134.094C75.7443 134.102 75.7264 134.108 75.7066 134.114C74.0333 134.684 72.1101 134.508 70.9126 133.667C70.1612 133.14 69.7469 132.386 69.7469 131.539C69.7469 131.459 69.7667 131.381 69.8024 131.314C69.8856 131.165 70.0442 131.063 70.2286 131.063C70.4943 131.063 70.7104 131.277 70.7104 131.539C70.7104 131.966 70.867 132.339 71.1803 132.648C71.2655 132.735 71.3607 132.815 71.4697 132.889C71.7136 133.062 72.0011 133.197 72.3203 133.297C72.6157 133.387 72.9369 133.448 73.27 133.475C73.8628 133.526 74.4952 133.471 75.094 133.305C75.203 133.277 75.3101 133.244 75.4171 133.207C75.6471 133.126 75.8652 133.027 76.0754 132.911C76.7594 132.531 77.3423 131.994 77.8696 131.508C78.8114 130.64 79.7868 129.741 81.0398 130.195C81.9459 130.522 82.725 131.059 83.3872 131.577C83.5835 131.729 83.7699 131.88 83.9463 132.023C84.0514 132.11 84.1545 132.19 84.2497 132.266C84.5272 132.488 84.7652 132.666 84.9436 132.748C85.0229 132.778 85.1557 132.825 85.3084 132.88C85.9329 133.099 86.8588 133.424 87.6261 133.971C87.9948 134.234 88.3259 134.547 88.5698 134.925C88.7244 135.16 88.8434 135.421 88.9148 135.709C89.0258 136.217 89.113 136.947 88.6313 137.569Z" fill="#00BBD6"/>
<path d="M92.3151 79.8691C92.1486 80.0728 91.8452 80.1022 91.639 79.9396C91.6331 79.9357 91.6153 79.92 91.5835 79.8985C91.5399 79.8651 91.4685 79.8181 91.3714 79.7613C91.1692 79.6418 90.8539 79.483 90.4396 79.3518C90.0629 79.2322 89.6049 79.1362 89.0696 79.1127C88.7722 79.099 88.449 79.1088 88.1041 79.1519C88.0466 79.1578 87.9891 79.1656 87.9296 79.1735C87.6243 79.2185 87.3189 79.2891 87.0096 79.3831C86.6825 79.4791 86.3554 79.6026 86.0263 79.7515C85.598 79.9435 85.1678 80.1806 84.7356 80.4588C84.4005 80.6744 84.0635 80.9154 83.7264 81.1838C83.1237 81.658 82.521 82.2106 81.9163 82.8455H81.9143C81.5396 83.2432 81.1669 83.6645 80.7902 84.1211V84.125C80.2232 84.8127 79.6601 85.5691 79.101 86.3901C78.4923 87.2875 77.9749 88.1046 77.5367 88.857C77.3622 89.1529 77.2017 89.439 77.053 89.7153C76.4562 90.8184 76.0418 91.7727 75.7623 92.6251C75.6552 92.9484 75.566 93.258 75.4966 93.5558C75.3241 94.2671 75.2488 94.9117 75.229 95.527C75.2171 95.8542 75.223 96.1756 75.2389 96.493C75.2666 97.0397 75.3261 97.5785 75.3876 98.1409C75.3895 98.1448 75.3895 98.1468 75.3895 98.1507C75.4252 98.4662 75.4589 98.7875 75.4907 99.1187C75.6869 101.196 75.7286 103.682 74.5013 107.727C73.3633 111.463 72.493 115.212 71.8724 118.617C71.5314 120.483 71.2657 122.246 71.0694 123.849C70.9961 124.45 70.9326 125.026 70.8791 125.579C70.8474 125.898 70.8196 126.21 70.7939 126.512C70.5302 129.745 70.6313 131.937 71.0536 132.374C71.1269 132.453 71.1705 132.551 71.1805 132.649C71.1983 132.794 71.1487 132.943 71.0357 133.048C70.9425 133.137 70.8236 133.18 70.7046 133.18C70.5777 133.18 70.4509 133.129 70.3557 133.031C70.0841 132.751 69.9037 132.157 69.8025 131.314C69.6598 130.109 69.6836 128.395 69.8521 126.357C69.8719 126.096 69.8957 125.832 69.9215 125.561C69.9274 125.51 69.9314 125.459 69.9374 125.407C70.0008 124.774 70.0742 124.115 70.1614 123.435C70.3438 122.001 70.5777 120.475 70.8593 118.899C71.2161 116.905 71.6464 114.835 72.1381 112.784C72.5722 110.971 73.058 109.173 73.5814 107.452C74.8622 103.226 74.7016 100.77 74.4756 98.666C74.4716 98.621 74.4676 98.5739 74.4617 98.5289C74.4518 98.4368 74.4419 98.3447 74.4319 98.2545C74.3606 97.5962 74.2912 96.9672 74.2654 96.3245C74.2535 96.0717 74.2495 95.817 74.2555 95.5583C74.2634 95.2644 74.2813 94.9666 74.315 94.659C74.315 94.6492 74.3169 94.6413 74.3169 94.6315C74.4835 93.1267 75.0168 91.4004 76.3273 89.0334C76.3709 88.957 76.4126 88.8806 76.4582 88.8022C76.4582 88.8022 76.4582 88.8009 76.4582 88.7983C76.9578 87.9145 77.5665 86.9407 78.3 85.8591C79.6522 83.8683 81.0182 82.2596 82.3902 81.0349C82.636 80.8174 82.8838 80.6097 83.1297 80.4157C83.2704 80.3041 83.4112 80.1982 83.552 80.0964C83.552 80.0964 83.552 80.0944 83.5559 80.0944C84.9735 79.0578 86.395 78.4347 87.8166 78.229C88.0426 78.1957 88.2607 78.1741 88.4708 78.1624H88.4728C88.5045 78.1604 88.5343 78.1585 88.566 78.1585H88.57C88.6195 78.1565 88.6691 78.1545 88.7167 78.1545C90.6577 78.1173 91.9008 78.9442 92.1862 79.1558C92.22 79.1813 92.2418 79.197 92.2477 79.2028C92.4519 79.3674 92.4817 79.6653 92.3131 79.8691H92.3151Z" fill="#00BBD6"/>
<path d="M91.7362 88.8747C91.7362 89.8564 91.6688 90.6029 91.5399 91.0869C92.0891 91.4592 92.6878 92.2018 92.5253 93.3794C92.436 94.2259 92.1922 94.7236 91.9483 95.0156C92.1069 95.335 92.1783 95.8425 91.9245 96.6321C91.7302 97.218 91.4844 97.6118 91.183 97.8313C91.2603 98.2016 91.2703 98.7385 91.1473 99.5203C91.0185 100.314 90.729 100.845 90.2849 101.106C90.2016 101.156 90.1164 101.192 90.0331 101.217C90.0628 101.584 90.0946 102.111 90.0946 102.675C90.0946 103.192 89.8705 103.512 89.6842 103.686C89.4462 103.909 89.1548 104.013 88.9149 104.06L84.2498 132.267L84.2082 132.515C84.1685 132.749 83.9663 132.913 83.7343 132.913C83.7086 132.913 83.6828 132.913 83.655 132.907C83.3933 132.866 83.2149 132.619 83.2585 132.361L83.3874 131.577L84.3787 125.587L84.5135 124.774L88.0247 103.547C88.0644 103.31 88.2666 103.137 88.5243 103.149C88.5957 103.188 88.8812 103.128 89.022 102.992C89.0696 102.949 89.131 102.869 89.131 102.675C89.131 101.983 89.0795 101.337 89.0478 101.023C89.0359 100.898 89.0279 100.827 89.0279 100.823C89.0101 100.661 89.0775 100.5 89.2064 100.398C89.3352 100.294 89.5117 100.265 89.6683 100.322C89.6624 100.32 89.7298 100.332 89.8071 100.279C89.8329 100.263 89.8705 100.232 89.9142 100.175C90.0073 100.055 90.1243 99.8201 90.1957 99.3714C90.3602 98.3329 90.2314 97.9783 90.1957 97.9058C90.164 97.8783 90.1362 97.8489 90.1144 97.8156C90.0212 97.6824 89.9994 97.506 90.0728 97.3493C90.1759 97.1259 90.4336 97.0201 90.6656 97.0945C90.6438 97.0749 90.6874 97.0279 90.7647 96.8927C90.8281 96.781 90.9154 96.6066 91.0066 96.3382C91.2147 95.6877 91.1057 95.4251 91.0502 95.3859C90.848 95.3173 90.7389 95.1371 90.7468 94.9254C90.7468 94.8784 90.7587 94.8333 90.7766 94.7922C90.8321 94.6452 90.9729 94.5335 91.1335 94.4924C91.1473 94.4748 91.3198 94.3454 91.4507 93.8909C91.4983 93.7263 91.5399 93.5205 91.5676 93.2638C91.6985 92.3155 91.1037 91.9157 90.8638 91.7962H90.8618C90.8123 91.7688 90.7766 91.7551 90.7706 91.7531C90.616 91.6982 90.501 91.5689 90.4653 91.4102C90.4296 91.2534 90.4772 91.0888 90.5882 90.9752C90.5843 90.9752 90.5962 90.9419 90.616 90.8596C90.6675 90.6401 90.7706 90.0778 90.7706 88.8747C90.7706 86.9936 91.415 81.3445 91.5815 79.8984C91.6033 79.7162 91.6172 79.6006 91.6212 79.5673C91.6529 79.3047 91.9047 79.1303 92.1565 79.1499C92.1664 79.1499 92.1763 79.1499 92.1862 79.1558C92.434 79.1989 92.6065 79.4262 92.5788 79.679C92.5689 79.7495 91.7342 86.8114 91.7342 88.8747H91.7362Z" fill="#00BBD6"/>
<path d="M78.7028 99.2521C78.6949 99.3109 78.677 99.4344 78.6493 99.6166C78.1298 103.2 74.3212 129.424 73.8157 131.146C73.4291 132.337 73.3081 133.115 73.2705 133.476C73.2546 133.629 73.2526 133.707 73.2526 133.709C73.2486 133.972 73.0345 134.181 72.7708 134.181H72.7689C72.5032 134.181 72.2891 133.97 72.2891 133.707C72.2891 133.693 72.291 133.556 72.3208 133.298C72.3723 132.851 72.5131 132.038 72.8938 130.866C73.2982 129.498 76.1829 109.935 77.6976 99.4696C77.7155 99.3521 77.7333 99.2345 77.7492 99.1189C77.7868 98.8563 78.0208 98.6721 78.2944 98.7152C78.5561 98.7505 78.7405 98.9915 78.7028 99.2521Z" fill="#00BBD6"/>
<path d="M82.0874 99.8575C82.0696 99.9456 82.0517 100.036 82.0339 100.128C80.9692 105.416 78.9807 115.553 77.5889 123.32C77.5472 123.547 77.5076 123.773 77.4679 123.994C76.7403 128.075 76.199 131.416 76.0761 132.911C76.0504 133.233 76.0424 133.468 76.0563 133.609C76.0781 133.821 75.9532 134.016 75.7629 134.095C75.745 134.103 75.7272 134.109 75.7074 134.114C75.6816 134.122 75.6538 134.128 75.6261 134.13C75.6102 134.13 75.5924 134.13 75.5765 134.13C75.3327 134.13 75.1225 133.946 75.0987 133.701C75.0888 133.605 75.0868 133.47 75.0947 133.303C75.2593 129.088 80.4121 103.32 81.0803 99.9848C81.112 99.832 81.1338 99.7262 81.1437 99.6713C81.1952 99.4127 81.455 99.254 81.7087 99.2971C81.9704 99.348 82.139 99.5988 82.0874 99.8555V99.8575Z" fill="#00BBD6"/>
<path d="M85.0527 100.278L85.0011 100.541L80.5522 123.435C80.5224 123.588 80.4213 123.711 80.2885 123.772H80.2865C80.2231 123.805 80.1537 123.821 80.0803 123.821C80.0506 123.821 80.0188 123.817 79.9871 123.813C79.8701 123.792 79.771 123.727 79.7016 123.641C79.6184 123.537 79.5787 123.396 79.6064 123.255L84.0475 100.415L84.109 100.098C84.1565 99.8413 84.4103 99.6748 84.672 99.7218C84.9337 99.7708 85.1042 100.022 85.0527 100.278Z" fill="#00BBD6"/>
<path d="M82.4089 124.192C82.3771 124.192 82.3454 124.188 82.3157 124.182C82.054 124.131 81.8855 123.88 81.937 123.624L86.5981 100.308C86.6497 100.048 86.9074 99.8869 87.1632 99.9339C87.4249 99.9849 87.5934 100.236 87.5419 100.492L82.8807 123.808C82.8351 124.035 82.6329 124.192 82.4089 124.192Z" fill="#00BBD6"/>
<path d="M84.3794 125.586L83.3881 131.576C82.7259 131.059 81.9467 130.522 81.0406 130.195C79.7876 129.74 78.8122 130.64 77.8704 131.508C77.3431 131.994 76.7602 132.53 76.0762 132.911C76.1991 131.416 76.7404 128.075 77.468 123.993C77.5314 124.083 77.6306 124.152 77.7475 124.177L84.1038 125.604C84.1395 125.614 84.1771 125.618 84.2108 125.618C84.2703 125.618 84.3258 125.608 84.3794 125.586Z" fill="#00BBD6"/>
<path d="M84.6809 125.246C84.6432 125.408 84.5262 125.532 84.3795 125.587C84.326 125.608 84.2705 125.618 84.211 125.618C84.1773 125.618 84.1396 125.614 84.1039 125.604L77.7477 124.178C77.6307 124.152 77.5316 124.084 77.4681 123.994C77.3868 123.888 77.3531 123.751 77.3849 123.612C77.4146 123.486 77.4899 123.382 77.5891 123.32C77.6961 123.247 77.829 123.218 77.9618 123.251L79.7025 123.641L80.2874 123.772H80.2894L84.318 124.677C84.3934 124.695 84.4588 124.726 84.5143 124.773C84.6511 124.883 84.7225 125.063 84.6809 125.246Z" fill="#00BBD6"/>
<path d="M91.1193 96.9107L91.0717 97.863C91.0717 97.863 90.7049 97.8454 90.1161 97.816C88.6866 97.7435 85.9447 97.6044 83.9185 97.4927C81.5155 97.4025 76.7018 96.7089 75.2386 96.4934C75.0007 96.4561 74.85 96.4346 74.8143 96.4287C74.7846 96.4248 74.7568 96.4169 74.729 96.4072C74.5149 96.3347 74.3761 96.1172 74.4118 95.8859C74.4515 95.6351 74.6854 95.4588 74.9333 95.4862C74.9432 95.4862 74.9511 95.4862 74.961 95.4882C74.9689 95.4882 75.0641 95.5038 75.2287 95.5274C76.45 95.7096 81.5433 96.4503 83.9641 96.5424C86.3373 96.6736 89.6839 96.8402 90.7664 96.8931C90.9924 96.9048 91.1193 96.9107 91.1193 96.9107Z" fill="#00BBD6"/>
<path d="M77.697 99.4699C76.1823 109.935 73.2976 129.498 72.8931 130.866C72.5124 132.038 72.3717 132.851 72.3201 133.298C72.0009 133.198 71.7134 133.063 71.4696 132.89C71.3605 132.816 71.2654 132.735 71.1801 132.649C71.1702 132.551 71.1266 132.453 71.0532 132.375C70.6309 131.938 70.5298 129.745 70.7935 126.512C70.9739 126.5 71.1385 126.387 71.2059 126.212C71.3011 125.966 71.1781 125.693 70.9283 125.599C70.9184 125.595 70.9026 125.589 70.8788 125.58C70.9323 125.027 70.9957 124.451 71.0691 123.849C71.309 122.615 71.6381 120.736 71.8721 118.618C72.4926 115.212 73.363 111.464 74.501 107.727C75.7282 103.683 75.6866 101.196 75.4903 99.1191C75.9999 99.2014 76.781 99.3249 77.697 99.4699Z" fill="#00BBD6"/>
<path d="M79.7014 123.641L77.9606 123.251C77.8278 123.218 77.695 123.247 77.5879 123.32C78.9797 115.553 80.9683 105.416 82.0329 100.128C82.7447 100.232 83.4326 100.332 84.0473 100.416L79.6062 123.255C79.5784 123.396 79.6181 123.537 79.7014 123.641Z" fill="#00BBD6"/>
<path d="M90.4601 100.732C90.4264 100.971 90.2202 101.141 89.9823 101.141C89.9605 101.141 89.9387 101.139 89.9149 101.137C89.9149 101.137 89.6017 101.094 89.0465 101.024C88.6441 100.971 88.1107 100.904 87.4743 100.828C87.1769 100.791 86.8557 100.753 86.5147 100.714C86.368 100.696 86.2153 100.679 86.0607 100.661C85.7871 100.636 85.4243 100.595 85 100.542C84.7086 100.504 84.3894 100.461 84.0464 100.416C83.4318 100.332 82.7438 100.232 82.032 100.128C81.7168 100.083 81.3976 100.034 81.0784 99.9872C80.2556 99.8637 79.4229 99.7364 78.6477 99.6168C78.3186 99.5659 77.9994 99.5169 77.6961 99.4699C76.7801 99.3249 75.999 99.2014 75.4894 99.1191C75.1385 99.0643 74.9145 99.027 74.8629 99.0192C74.6666 98.9878 74.5179 98.8448 74.4743 98.6665C74.4604 98.6234 74.4565 98.5764 74.4604 98.5293C74.4604 98.5117 74.4624 98.4921 74.4644 98.4745C74.506 98.2139 74.7519 98.0218 75.0176 98.0826C75.0275 98.0845 75.1583 98.1041 75.3863 98.1414C77.0854 98.4118 84.1415 99.5326 86.1598 99.7148C88.0968 99.9343 89.4867 100.118 89.9129 100.175C90.0021 100.189 90.0497 100.195 90.0497 100.195C90.3134 100.232 90.4958 100.471 90.4601 100.732Z" fill="#00BBD6"/>
<path d="M91.0081 96.3381C90.9169 96.6065 90.8297 96.7809 90.7663 96.8926C89.6838 96.8397 86.3371 96.6731 83.9639 96.5419C81.5431 96.4498 76.4498 95.7091 75.2285 95.5269C75.2483 94.9116 75.3237 94.2669 75.4962 93.5557C76.313 93.638 78.9162 93.8849 84.1701 94.265C88.0778 94.5805 89.9236 94.7255 90.7782 94.7921C90.7603 94.8332 90.7504 94.8783 90.7484 94.9253C90.7405 95.1369 90.8495 95.3172 91.0518 95.3858C91.1073 95.425 91.2163 95.6875 91.0081 96.3381Z" fill="#00BBD6"/>
<path d="M91.9974 94.408C91.9796 94.6588 91.7674 94.8489 91.5196 94.8489C91.5077 94.8489 91.4938 94.8489 91.4819 94.8469C91.4819 94.8469 91.359 94.8371 90.7781 94.7921C89.9236 94.7254 88.0778 94.5804 84.1701 94.265C78.9161 93.8848 76.313 93.638 75.4961 93.5557C75.3018 93.5361 75.2087 93.5243 75.2047 93.5243C74.941 93.4949 74.7507 93.2598 74.7804 92.9992C74.8101 92.7366 75.0441 92.5524 75.3137 92.5799C75.3197 92.5799 75.4604 92.5955 75.7618 92.6249C76.7234 92.719 79.3087 92.958 84.2454 93.3166C89.6302 93.7496 91.0993 93.8653 91.4522 93.8907C91.5275 93.8966 91.5533 93.8986 91.5533 93.8986C91.819 93.9182 92.0192 94.1454 91.9974 94.408Z" fill="#00BBD6"/>
<path d="M91.0107 91.7769C90.9988 91.7789 90.9512 91.7867 90.8659 91.7965H90.8639C90.6697 91.8161 90.283 91.8455 89.7021 91.8455C88.6414 91.8455 86.9304 91.7436 84.5434 91.2969C81.0302 90.6483 78.2069 90.033 77.0531 89.7156C76.8667 89.6646 76.7239 89.6215 76.6288 89.5863C76.3988 89.502 76.2719 89.261 76.3274 89.0337C76.3294 89.0141 76.3354 88.9945 76.3433 88.9749C76.3691 88.9083 76.4087 88.8495 76.4583 88.8025C76.4583 88.8025 76.4583 88.8012 76.4583 88.7986C76.5871 88.6751 76.7834 88.6281 76.9599 88.6908C77.065 88.728 77.2593 88.7848 77.5348 88.8573C78.0939 89.0023 78.9841 89.21 80.134 89.455C80.4314 89.5196 80.7487 89.5863 81.0798 89.6548C81.7201 89.7861 82.422 89.9272 83.1754 90.0722C83.4847 90.1329 83.8039 90.1937 84.129 90.2544C84.3233 90.2897 84.5196 90.3269 84.7198 90.3642C84.9677 90.4112 85.2076 90.4523 85.4415 90.4915C85.7746 90.5483 86.0938 90.5954 86.3971 90.6365C86.8531 90.7012 87.2754 90.7502 87.662 90.7854C88.011 90.8188 88.3302 90.8423 88.6216 90.8599C88.915 90.8756 89.1807 90.8854 89.4166 90.8893C89.827 90.8971 90.1502 90.8873 90.3842 90.8756C90.4754 90.8697 90.5527 90.8658 90.6161 90.8599C90.7767 90.8481 90.858 90.8364 90.862 90.8364C91.1375 90.7992 91.3715 90.9755 91.4111 91.2341C91.4508 91.4948 91.2724 91.7358 91.0087 91.7769H91.0107Z" fill="#00BBD6"/>
<path d="M84.7436 80.3378L84.7357 80.4593L84.1309 90.2546L84.1091 90.5955C84.0933 90.8483 83.8792 91.0423 83.6274 91.0423H83.5976C83.332 91.0246 83.1297 90.7993 83.1476 90.5387L83.1773 90.0723L83.7265 81.1843L83.782 80.281C83.7899 80.1536 83.8455 80.0321 83.9327 79.9459H83.9347C84.012 79.8715 84.1111 79.8244 84.2241 79.8284H84.2281C84.2479 79.8284 84.2697 79.8323 84.2915 79.8362C84.5572 79.8519 84.7614 80.0772 84.7436 80.3378Z" fill="#00BBD6"/>
<path d="M87.0207 79.1717L87.0088 79.3834L86.3982 90.6365L86.3863 90.8559C86.3724 91.1106 86.1583 91.3066 85.9045 91.3066C85.8966 91.3066 85.8866 91.3066 85.8787 91.3046C85.613 91.2909 85.4088 91.0656 85.4247 90.805L85.4425 90.4915L86.0254 79.7517L86.0591 79.1208V79.1149C86.077 78.8543 86.2951 78.6055 86.5647 78.6721C86.6837 78.678 86.7907 78.7269 86.872 78.8034C86.9691 78.8955 87.0286 79.0287 87.0207 79.1717Z" fill="#00BBD6"/>
<path d="M88.1035 79.1514L87.6633 90.7846C87.2767 90.7493 86.8544 90.7003 86.3984 90.6357L87.0091 79.3826C87.3184 79.2885 87.6237 79.218 87.929 79.1729C87.9885 79.1651 88.046 79.1572 88.1035 79.1514Z" fill="#00BBD6"/>
<path d="M89.0862 78.6364L89.0684 79.1125L88.6223 90.8594L88.6084 91.2199C88.6005 91.4747 88.3863 91.6765 88.1286 91.6765H88.1108C87.8451 91.6667 87.6369 91.4472 87.6468 91.1827L87.6627 90.7849L88.1028 79.1517L88.1246 78.5991C88.1306 78.4679 88.1861 78.3522 88.2753 78.268H88.2773C88.3308 78.219 88.3963 78.1837 88.4716 78.1622H88.4736C88.5152 78.1504 88.5608 78.1426 88.6084 78.1406H88.6223C88.654 78.1426 88.6857 78.1465 88.7174 78.1543C88.9355 78.2072 89.0941 78.4032 89.0862 78.6364Z" fill="#00BBD6"/>
<path d="M89.878 91.6236C89.8641 91.6236 89.8502 91.6236 89.8343 91.6236C89.5707 91.6001 89.3744 91.3689 89.3962 91.1083L90.4549 79.1615C90.4787 78.9009 90.7265 78.705 90.9763 78.7285C91.24 78.752 91.4363 78.9832 91.4145 79.2438L90.3558 91.1906C90.334 91.4374 90.1238 91.6255 89.876 91.6255L89.878 91.6236Z" fill="#00BBD6"/>
<path d="M83.7268 81.1836L83.1777 90.0716C82.4243 89.9266 81.7224 89.7856 81.082 89.6543L81.9147 82.8472H81.9167C82.5214 82.2103 83.1241 81.6578 83.7268 81.1836Z" fill="#00BBD6"/>
<path d="M81.9339 82.692L81.916 82.8448H81.914L81.0813 89.6539L81.0337 90.0418C81.004 90.2829 80.7958 90.4592 80.5559 90.4592C80.5361 90.4592 80.5163 90.4572 80.4984 90.4553C80.2328 90.4239 80.0444 90.1868 80.0781 89.9262L80.1356 89.454L80.7879 84.1243V84.1204L80.9782 82.5764C81.01 82.3157 81.2657 82.1355 81.5135 82.1629C81.7772 82.1943 81.9656 82.4314 81.9339 82.692Z" fill="#00BBD6"/>
<path d="M14.1477 135.753C13.8681 136.031 13.5787 136.352 13.3487 136.676C13.1306 136.542 12.7916 136.431 12.2721 136.266C10.4223 135.696 9.01865 135.322 7.50195 135.567C8.87789 134.855 10.2875 134.559 11.7091 134.71C12.3058 134.769 13.4141 135.335 14.1477 135.753Z" fill="#00BBD6"/>
<path d="M14.9448 144.1C14.1696 144.817 12.6192 145.082 11.0014 145.082C9.28643 145.082 7.49217 144.784 6.45526 144.412C4.50833 143.663 3.31876 141.811 2.91233 138.902C2.7676 137.845 2.34728 136.356 1.94085 135.067C1.83974 134.748 1.7406 134.44 1.64544 134.156C1.56811 133.925 1.49476 133.707 1.42735 133.509C1.39563 133.417 1.3639 133.327 1.33416 133.245C1.32822 133.227 1.32425 133.211 1.31831 133.194C1.1478 132.708 1.03479 132.402 1.03082 132.392C0.947554 132.173 1.03875 131.934 1.23503 131.82C1.26081 131.804 1.28658 131.791 1.31632 131.781C1.56613 131.689 1.84172 131.816 1.93292 132.063C1.95076 132.112 2.08161 132.463 2.26798 132.996C2.27987 133.039 2.29573 133.082 2.31358 133.127C2.31358 133.127 2.31358 133.129 2.31556 133.131C2.34332 133.215 2.37306 133.303 2.40478 133.396C2.48607 133.631 2.57132 133.887 2.66252 134.16C2.68829 134.238 2.71407 134.32 2.73984 134.401C2.75967 134.463 2.78148 134.526 2.8013 134.591C2.88854 134.867 2.97775 135.155 3.06895 135.449C3.09869 135.551 3.12843 135.655 3.16016 135.759C3.35049 136.407 3.52693 137.07 3.66373 137.683C3.75097 138.073 3.82037 138.441 3.86597 138.774C4.2268 141.349 5.1844 142.903 6.79428 143.522C8.78681 144.235 13.1228 144.476 14.2886 143.404C14.5344 143.179 14.6177 143.013 14.4829 142.709C14.4095 142.544 14.2747 142.34 14.0685 142.064C14.011 141.988 13.9476 141.905 13.8782 141.815C13.3885 141.182 12.7798 140.397 12.5577 139.358C12.3159 138.322 12.5102 137.74 12.6608 137.403C12.4586 137.326 12.1553 137.23 11.9808 137.173C9.67106 136.462 8.46761 136.233 7.0203 136.648C6.76455 136.723 6.49689 136.58 6.42354 136.327C6.41164 136.288 6.40569 136.249 6.40569 136.209C6.39578 135.998 6.53456 135.798 6.74869 135.737C7.00444 135.663 7.25425 135.606 7.50208 135.567C9.01878 135.322 10.4225 135.696 12.2722 136.266C12.7917 136.431 13.1307 136.542 13.3488 136.676C13.5015 136.768 13.5966 136.87 13.6581 137.007C13.781 137.281 13.668 137.518 13.5867 137.691C13.5094 137.853 13.4083 138.069 13.4063 138.445C13.4063 138.633 13.4301 138.866 13.4975 139.152C13.6779 139.989 14.1894 140.653 14.6434 141.237C15.2759 142.054 16.063 143.073 14.9448 144.1Z" fill="#00BBD6"/>
<path d="M10.5528 143.571C9.47024 143.571 8.29258 143.396 7.24377 142.851C4.34718 141.321 3.06641 135.827 3.06641 135.505C3.06641 135.243 3.28251 135.029 3.54818 135.029C3.81385 135.029 4.00617 135.221 4.02798 135.466C4.12314 136.091 5.37813 140.788 7.69383 142.011C10.2336 143.326 13.8399 142.105 13.8756 142.089C14.1314 142.007 14.403 142.132 14.4902 142.381C14.5775 142.628 14.4466 142.9 14.1948 142.987C14.0897 143.022 12.468 143.572 10.5528 143.572V143.571Z" fill="#00BBD6"/>
<path d="M76.0006 19.8802C75.7885 19.8802 75.5961 19.7411 75.5367 19.5294L74.7416 16.6726C74.6722 16.4178 74.8209 16.1572 75.0787 16.0887C75.3404 16.0103 75.6001 16.167 75.6715 16.4198L76.4665 19.2767C76.5359 19.5314 76.3872 19.792 76.1295 19.8606C76.0858 19.8723 76.0442 19.8782 76.0026 19.8782L76.0006 19.8802Z" fill="#00BBD6"/>
<path d="M77.3559 25.3883C77.3044 25.2296 77.1715 25.112 77.0109 25.0728C77.0447 25.0121 77.0784 24.9494 77.1101 24.8847C77.233 24.6339 77.342 24.3537 77.4332 24.0559C77.7723 22.9684 77.8912 21.6712 77.7405 20.8875C77.5661 20.1057 77.0684 18.8183 76.2437 18.4891C76.1485 18.4499 76.0494 18.4244 75.9443 18.4146C75.7064 18.399 75.4804 18.4558 75.2722 18.5871C74.9609 18.785 74.6834 19.1494 74.4454 19.6863C73.4204 21.9632 74.3503 24.2009 74.3899 24.2949C74.491 24.5379 74.7765 24.6535 75.0184 24.5477C75.2643 24.4478 75.3793 24.1695 75.2781 23.9266C75.2682 23.9089 74.4732 21.9671 75.3277 20.0684C75.4169 19.8666 75.4982 19.7236 75.5696 19.6197C75.7064 19.4218 75.8055 19.3767 75.8511 19.365C75.9542 19.3748 76.1168 19.5296 76.2833 19.7882C76.4776 20.0919 76.6759 20.5446 76.7968 21.0795C76.9733 21.9965 76.6402 23.9697 76.0454 24.8064C75.9086 24.9984 75.8055 25.0611 75.7599 25.067C75.2325 25.1669 74.3086 24.4791 73.9498 24.1382C73.811 24.0069 73.6108 23.9697 73.4303 24.0422C73.2519 24.1147 73.1369 24.2832 73.133 24.4733C73.127 24.8514 73.0973 28.2138 73.7 29.5267C73.7951 29.754 73.93 29.9538 74.0965 30.1165C74.4395 30.4613 74.9233 30.6592 75.4962 30.6788C75.5299 30.6808 75.5617 30.6808 75.5934 30.6808C75.7758 30.6808 75.9542 30.6631 76.1247 30.6279C76.7215 30.5103 77.2231 30.1948 77.4313 29.7794C77.5106 29.6305 77.5601 29.4111 77.5899 29.1446C77.7148 28.0316 77.4689 26.1309 77.3738 25.4706C77.3698 25.4412 77.3639 25.4138 77.3539 25.3883H77.3559ZM76.5748 29.3444C76.4895 29.5169 76.0474 29.7285 75.5319 29.7285C75.2662 29.7187 74.7884 29.6325 74.5842 29.1465C74.2512 28.4215 74.1362 26.6914 74.1064 25.4667C74.6179 25.7998 75.2999 26.1035 75.9165 26.0075C76.1029 25.9762 76.2813 25.8978 76.4479 25.7685C76.6501 27.2655 76.7512 29.0094 76.5748 29.3444Z" fill="#00BBD6"/>
<path d="M76.5738 29.3445C76.4886 29.517 76.0464 29.7286 75.531 29.7286C75.2653 29.7188 74.7875 29.6326 74.5833 29.1466C74.2502 28.4216 74.1352 26.6915 74.1055 25.4668C74.617 25.7999 75.299 26.1036 75.9156 26.0076C76.102 25.9763 76.2804 25.8979 76.4469 25.7686C76.6492 27.2656 76.7503 29.0095 76.5738 29.3445Z" fill="#00BBD6"/>
<path d="M86.8916 21.4286C85.9677 18.5443 84.6056 16.338 83.1781 15.2819C82.8966 15.0702 82.6111 14.9076 82.3276 14.79C82.0738 14.6881 81.822 14.6215 81.5702 14.598C81.251 14.5608 80.9854 14.5784 80.7653 14.6294C80.4322 14.7077 80.2062 14.8606 80.0575 15.0056C79.9623 15.0996 79.885 15.2035 79.8235 15.3093C79.5222 15.8285 79.5896 16.4281 79.6015 16.5085C79.6233 16.6789 79.7442 16.8259 79.9068 16.8906C79.9167 16.8945 80.5888 17.1688 81.3621 18.1799C81.364 18.1799 81.366 18.1838 81.368 18.1877C81.7764 18.7207 82.2106 19.4574 82.5913 20.4646C82.6686 20.6782 82.738 20.8898 82.8014 21.1014C82.8867 21.3875 82.9581 21.6716 83.0215 21.9499C83.0631 22.1321 83.0988 22.3104 83.1305 22.4887C83.1365 22.5181 83.1424 22.5494 83.1464 22.5788C83.1563 22.6337 83.1662 22.6866 83.1742 22.7395C83.4259 24.2679 83.3883 25.5788 83.3447 26.2214C83.0731 25.8433 82.7955 25.4573 82.5239 25.0752C82.5219 24.6774 82.4307 23.6977 81.7368 22.2281C81.7229 22.1967 81.709 22.1654 81.6932 22.136C81.5524 21.8303 81.3819 21.5482 81.1915 21.2778C80.7772 20.688 80.2696 20.1687 79.774 19.6593C79.7423 19.6279 79.7125 19.5946 79.6808 19.5632C79.5063 19.3849 79.3378 19.2086 79.1792 19.0342C78.7985 18.6188 78.4754 18.2093 78.293 17.786C78.0154 17.161 78.3029 16.6966 79.2863 16.1871L79.427 16.1107C79.653 15.9735 79.6828 15.7071 79.544 15.4817C79.4805 15.3779 79.3735 15.3132 79.2545 15.2858C79.1812 15.2662 79.1039 15.2642 79.0285 15.2779C78.9611 15.2877 78.8957 15.3093 78.8382 15.3446C77.038 16.2792 77.0677 17.3961 77.4087 18.1642C77.7497 18.9539 78.3961 19.6162 79.0801 20.3196C79.2248 20.4685 79.3715 20.6194 79.5162 20.7722C80.0535 21.3385 80.5571 21.9342 80.8605 22.6219C81.5682 24.1229 81.5643 25.0223 81.5583 25.1555V25.1712C81.5564 25.1829 81.5563 25.1947 81.5563 25.2065C81.5524 25.3083 81.5841 25.4083 81.6436 25.4945C81.8498 25.7865 82.0441 26.0588 82.2265 26.3116C84.2805 29.1822 84.79 29.7406 85.1013 29.8445C85.1588 29.8621 85.2083 29.866 85.2599 29.866C85.2777 29.866 85.2956 29.866 85.3134 29.8641C85.4145 29.8425 85.5097 29.7974 85.6227 29.6857C85.7298 29.5799 85.8527 29.4095 86.0093 29.141C86.2353 28.7511 88.1803 25.2358 86.8916 21.4286ZM85.1746 28.6629C84.901 28.322 84.4827 27.7694 84.0049 27.1228C84.1417 27.0542 84.2408 26.9249 84.2626 26.7642C84.2785 26.6486 84.5798 24.2875 83.9137 21.5364C83.8403 21.2327 83.7551 20.9251 83.6559 20.6155C83.6064 20.4568 83.5528 20.298 83.4954 20.1374C82.508 17.5254 81.1578 16.4967 80.5551 16.1499C80.569 15.9931 80.6166 15.7992 80.7395 15.6777C80.8723 15.5425 81.1103 15.4915 81.4612 15.5444C82.508 15.6444 84.0287 17.0277 85.2619 19.8278C85.3927 20.1217 85.5176 20.4293 85.6386 20.7546C85.7575 21.0642 85.8685 21.3875 85.9776 21.7245C86.1679 22.2888 86.2809 22.8473 86.3344 23.39C86.3721 23.7839 86.3781 24.1719 86.3622 24.5461C86.271 26.4252 85.5692 27.981 85.1746 28.6629Z" fill="#00BBD6"/>
<path d="M86.3626 24.5464C86.2714 26.4255 85.5695 27.9813 85.175 28.6632C84.9014 28.3223 84.4831 27.7697 84.0053 27.1231C84.1421 27.0545 84.2412 26.9252 84.263 26.7645C84.2789 26.6489 84.5802 24.2878 83.9141 21.5367L84.8736 21.1644C85.1611 21.0449 85.4526 20.9234 85.6389 20.7549C85.7579 21.0645 85.8689 21.3878 85.978 21.7248C86.1683 22.2891 86.2813 22.8476 86.3348 23.3903C86.204 23.4178 86.0949 23.502 86.0335 23.6431C86.0335 23.6431 85.8947 23.7568 85.3495 23.7411C85.0898 23.6803 84.8558 23.9272 84.8399 24.1878C84.8261 24.4504 85.0283 24.6757 85.294 24.6895C85.3673 24.6953 85.4387 24.6973 85.5041 24.6973C85.8828 24.6973 86.1604 24.6346 86.3626 24.5464Z" fill="#00BBD6"/>
<path d="M85.6389 20.7549C85.4525 20.9235 85.1611 21.0449 84.8736 21.1645L83.914 21.5368H83.9101C83.8625 21.5583 83.8149 21.5681 83.7693 21.572C83.7554 21.574 83.7435 21.574 83.7316 21.574C83.5413 21.574 83.3589 21.4603 83.2836 21.2722C83.2162 21.1037 83.2538 20.9215 83.3648 20.7922C83.4124 20.7334 83.4779 20.6864 83.5552 20.655L83.6563 20.6158L84.5088 20.2847C84.6436 20.2259 84.7408 20.1828 84.8141 20.1475C84.8796 19.9633 85.054 19.8301 85.2622 19.8281H85.2682C85.4981 19.8281 85.7816 20.0221 85.8273 20.2455C85.8709 20.4591 85.7896 20.6217 85.6389 20.7549Z" fill="#00BBD6"/>
<path d="M86.8787 24.0859C86.837 24.18 86.7101 24.3995 86.3632 24.5464C86.1609 24.6346 85.8834 24.6973 85.5047 24.6973C85.4393 24.6973 85.3679 24.6973 85.2945 24.6895C85.0289 24.6757 84.8266 24.4504 84.8405 24.1878C84.8564 23.9272 85.0903 23.6803 85.3501 23.7411C85.8953 23.7568 86.0321 23.6431 86.0341 23.6431C86.0955 23.502 86.2046 23.4178 86.3354 23.3903C86.4306 23.3688 86.5396 23.3805 86.6447 23.4256C86.8886 23.5295 86.9817 23.8449 86.8787 24.0859Z" fill="#00BBD6"/>
<path d="M83.6265 23.0527C83.5948 23.0527 83.5631 23.0488 83.5333 23.0429C83.2776 22.992 83.109 22.751 83.1527 22.4963C83.1071 22.5296 83.0357 22.1455 82.3596 20.9561C81.7609 19.9607 81.0154 19.173 80.5891 18.7616L80.0142 19.4023C79.8377 19.6002 79.5324 19.6178 79.3341 19.4415C79.1359 19.2691 79.1161 18.9673 79.2925 18.7714L80.1926 17.7662C80.3651 17.5741 80.6645 17.5545 80.8627 17.7172C80.9163 17.7622 82.207 18.8438 83.1903 20.48C84.1836 22.2317 84.1222 22.5374 84.0964 22.6667C84.0508 22.894 83.8505 23.0508 83.6245 23.0508L83.6265 23.0527Z" fill="#00BBD6"/>
<path d="M81.4541 22.1537C81.2063 22.1537 80.9961 21.9656 80.9743 21.7168C80.9525 21.4562 81.1488 21.225 81.4145 21.2034L82.6853 21.0996C82.947 21.0702 83.1829 21.27 83.2048 21.5345C83.2266 21.7952 83.0303 22.0264 82.7646 22.0479L81.4938 22.1518C81.4799 22.1518 81.466 22.1518 81.4521 22.1518L81.4541 22.1537Z" fill="#00BBD6"/>
<path d="M81.4566 25.167C81.2722 25.167 81.0937 25.0612 81.0144 24.8829L79.4244 21.2893C79.3193 21.0482 79.4303 20.768 79.6742 20.6622C79.9141 20.5584 80.2016 20.6681 80.3086 20.9072L81.8987 24.5008C82.0038 24.7418 81.8927 25.022 81.6489 25.1278C81.5874 25.1552 81.522 25.167 81.4566 25.167Z" fill="#00BBD6"/>
<path d="M82.5552 25.9867C82.5096 26.1493 82.3807 26.2689 82.2281 26.312C82.1845 26.3257 82.1389 26.3316 82.0933 26.3316C82.0477 26.3316 82.0041 26.3257 81.9585 26.3139L78.8239 25.4243L77.9635 25.1794L77.2973 24.9913C77.226 24.9697 77.1625 24.9345 77.111 24.8855C76.9781 24.7699 76.9147 24.5837 76.9682 24.4015C77.0297 24.1918 77.224 24.0566 77.4341 24.0566C77.4777 24.0566 77.5194 24.0625 77.563 24.0743L81.2427 25.1187L81.4073 25.1657L81.556 25.2068L82.2241 25.3969C82.4799 25.4714 82.6266 25.7339 82.5532 25.9867H82.5552Z" fill="#00BBD6"/>
<path d="M100.257 64.993L99.3564 66.6331C99.2692 66.7918 99.1046 66.8819 98.9341 66.8819C98.8647 66.8819 98.7953 66.8682 98.7299 66.8368L92.3201 63.8761C92.2487 63.8408 92.1833 63.7919 92.1357 63.7252C91.9097 63.4215 86.5705 56.2304 85.605 53.2814C85.036 51.5767 81.8698 42.04 79.4173 34.649C79.2686 34.1983 79.1219 33.7575 78.9791 33.3264C78.9256 33.1618 78.8721 33.0011 78.8165 32.8404C78.6877 32.4486 78.5608 32.0665 78.4379 31.6961C78.1286 30.7654 77.8431 29.9052 77.5913 29.1449C76.8914 27.0366 76.4434 25.6845 76.4434 25.6845L77.3554 25.3887H77.3573C77.3573 25.3887 78.2951 28.2181 79.5759 32.0743C79.7167 32.4975 79.8614 32.9345 80.0101 33.3813C82.4983 40.8801 85.9262 51.2024 86.521 52.9855C87.3021 55.3702 91.3368 61.0055 92.56 62.6848C92.6849 62.8552 92.7801 62.9846 92.8396 63.0669L93.3075 63.2824L98.7259 65.7846L99.1284 65.0518L99.295 64.75C99.2077 64.5658 99.0689 64.268 98.8826 63.8722C96.6898 59.197 88.1368 40.7057 85.0182 30.2736C84.9726 30.1207 85.0082 29.962 85.1014 29.8445C85.1609 29.768 85.2442 29.7092 85.3453 29.6818C85.4405 29.6563 85.5356 29.6583 85.6229 29.6857C85.7716 29.7308 85.8945 29.8425 85.9421 30.0012C89.4929 41.8833 100.161 64.3385 100.268 64.5639C100.334 64.701 100.33 64.8598 100.257 64.993Z" fill="#00BBD6"/>
<path d="M99.7381 64.8167C99.6529 64.9871 99.4824 65.0832 99.3039 65.0832C99.2464 65.0832 99.1869 65.0734 99.1294 65.0518C99.1156 65.0459 99.1037 65.042 99.0918 65.0361L93.82 62.4771L93.4255 62.2851C93.1875 62.1695 93.0884 61.8853 93.2054 61.6482C93.3224 61.4112 93.6079 61.3151 93.8497 61.4307L93.9628 61.4856L98.8836 63.8722L99.518 64.1799C99.756 64.2955 99.8531 64.5815 99.7381 64.8167Z" fill="#00BBD6"/>
<path d="M93.0649 61.8693L92.5614 62.6845C91.3381 61.0052 87.3035 55.3698 86.5223 52.9852C85.9275 51.2021 82.4996 40.8797 80.0114 33.3809C80.1125 33.1321 80.1819 32.8088 80.0253 32.4972C79.9341 32.315 79.7834 32.1739 79.5772 32.074C78.2965 28.2178 77.3587 25.3883 77.3587 25.3883H77.3567C77.3051 25.2296 77.1723 25.1121 77.0117 25.0729C77.0454 25.0121 77.0791 24.9494 77.1108 24.8848C77.1624 24.9338 77.2258 24.969 77.2972 24.9906L77.9634 25.1787C77.8543 25.306 77.8167 25.4863 77.8821 25.6548C77.9535 25.8371 85.0155 44.1442 88.0529 51.6175C90.5926 57.9348 92.486 60.9993 93.0649 61.8693Z" fill="#00BBD6"/>
<path d="M99.1295 65.0513L98.7271 65.7841L93.3086 63.2819C93.3284 63.2623 93.3463 63.2407 93.3601 63.2172L93.8201 62.4766L99.0919 65.0356C99.1038 65.0415 99.1157 65.0454 99.1295 65.0513Z" fill="#00BBD6"/>
<path d="M94.0481 62.1069L93.8201 62.4773L93.3601 63.2179C93.3462 63.2414 93.3284 63.263 93.3086 63.2826C93.2174 63.3864 93.0845 63.4452 92.9477 63.4452C92.8645 63.4452 92.7772 63.4217 92.6979 63.3747C92.4719 63.2375 92.4005 62.9456 92.5393 62.7202L92.5611 62.685L93.0647 61.8698C92.4858 60.9998 90.5924 57.9353 88.0527 51.618C85.0153 44.1447 77.9532 25.8376 77.8818 25.6553C77.8164 25.4868 77.8541 25.3066 77.9631 25.1792C78.0127 25.1184 78.0801 25.0695 78.1594 25.0401C78.4072 24.9539 78.6868 25.0695 78.7819 25.3164C78.7839 25.3242 78.7998 25.3595 78.8236 25.4241C79.4144 26.9544 86.0344 44.0976 88.9468 51.2673C91.6114 57.8941 93.5881 60.9352 93.9628 61.4858C94.0045 61.5465 94.0263 61.5779 94.0283 61.5798C94.1413 61.7346 94.1492 61.9423 94.0481 62.1069Z" fill="#00BBD6"/>
<path d="M83.2419 15.1467C83.228 15.1956 83.2062 15.2407 83.1784 15.2819C83.0892 15.4131 82.9385 15.4935 82.7799 15.4935C82.7363 15.4935 82.6907 15.4876 82.6471 15.4739C82.3913 15.4033 82.2426 15.1388 82.316 14.886C82.3239 14.8645 82.3279 14.8312 82.3279 14.79C82.3358 14.6627 82.318 14.453 82.2684 14.212C82.197 13.8632 82.0563 13.4517 81.8144 13.1382C81.7688 13.0794 81.7252 13.0187 81.6835 12.956H81.6816C81.3445 12.4603 81.0987 11.8587 80.946 11.1553C80.8766 10.83 80.8251 10.4851 80.7973 10.1168C80.7735 9.84047 80.7616 9.55439 80.7616 9.2546C80.7616 8.03582 80.266 5.92354 76.9451 5.49638L75.9558 5.3651C74.4728 5.16719 72.4386 4.89287 70.7851 4.87916C70.3549 4.87328 69.9524 4.88699 69.5916 4.92422C68.8342 4.99868 68.2612 5.17699 68.0253 5.5101C67.9678 5.59043 67.9123 5.68645 67.8627 5.79226H67.8608C67.7378 6.04503 67.6347 6.36442 67.5495 6.72691C67.2779 7.88103 67.1847 9.47014 67.2164 10.7399C67.2263 11.0867 67.2442 11.412 67.2719 11.6961C67.2937 11.9253 67.3195 12.1291 67.3532 12.2996C67.3988 12.5465 67.4563 12.7228 67.5217 12.8032C67.609 12.9129 67.7458 13.0246 67.9123 13.1363C68.5765 13.585 69.7462 14.0278 70.4719 14.2434C70.4738 14.2434 70.4778 14.2434 70.4798 14.2473C70.4976 14.2512 70.5135 14.259 70.5294 14.2649C70.5393 14.2688 70.5492 14.2747 70.5591 14.2806C70.5789 14.2884 70.5968 14.3002 70.6126 14.3119C70.6285 14.3237 70.6443 14.3374 70.6602 14.3511L70.684 14.3746C70.684 14.3746 70.69 14.3805 70.6939 14.3844C70.801 14.504 70.8426 14.6725 70.793 14.8371C70.7177 15.0879 70.452 15.225 70.1943 15.1545C70.1685 15.1467 70.1269 15.1349 70.0674 15.1153H70.0654C69.8275 15.0408 69.3418 14.8802 68.8045 14.6607C68.4873 14.5294 68.1542 14.3766 67.8449 14.2081C67.4067 13.971 67.0142 13.7025 66.7802 13.4125C66.3579 12.9266 66.1795 11.2767 66.2429 9.52696C66.2548 9.24872 66.2707 8.96852 66.2945 8.69028C66.4174 7.15015 66.7327 5.66685 67.2382 4.96145C68.2077 3.60747 71.2272 3.79754 75.1488 4.29916C75.4561 4.33835 75.7674 4.3795 76.0846 4.4226L76.3305 4.45396L77.068 4.55193C81.2712 5.09469 81.7252 8.02211 81.7252 9.2546C81.7252 10.7144 82.0126 11.8254 82.5797 12.5602C83.2042 13.3714 83.3886 14.6333 83.2419 15.1467Z" fill="#00BBD6"/>
<path d="M74.8243 17.6838C74.3802 17.6838 73.5812 17.5701 72.4809 16.9666C70.9424 16.0888 70.0106 15.0581 69.9729 15.015C69.7964 14.8191 69.8143 14.5193 70.0145 14.3449C70.2128 14.1725 70.5181 14.1881 70.6946 14.3841C70.7025 14.3939 71.5669 15.3462 72.9587 16.1378C74.2633 16.8589 74.9909 16.7237 74.9948 16.7217C75.2486 16.6649 75.5083 16.8275 75.5658 17.0803C75.6233 17.3331 75.4746 17.5839 75.2209 17.6466C75.1852 17.6564 75.0523 17.6838 74.8283 17.6838H74.8243Z" fill="#00BBD6"/>
<path d="M71.551 15.5461C71.3289 15.5461 71.1287 15.3933 71.0811 15.1718C71.0256 14.9132 71.1901 14.6624 71.4499 14.6056C71.5133 14.5938 73.0161 14.2764 75.8413 14.2764C78.6666 14.2764 80.3558 14.3802 80.3736 14.3822C80.6393 14.3979 80.8415 14.6232 80.8236 14.8858C80.8058 15.1464 80.56 15.3697 80.3121 15.3305C80.2963 15.3305 78.5972 15.2287 75.8394 15.2287C73.0815 15.2287 71.666 15.5324 71.6501 15.5343C71.6164 15.5422 71.5827 15.5461 71.549 15.5461H71.551Z" fill="#00BBD6"/>
<path d="M82.9526 13.9983C82.8713 14.1727 82.6969 14.2766 82.5145 14.2766C82.447 14.2766 82.3796 14.2628 82.3162 14.2334C82.3162 14.2334 82.2984 14.2256 82.2686 14.2119C81.9316 14.0689 79.83 13.1949 76.8997 12.5895C76.5924 12.5248 76.2752 12.4641 75.95 12.4072C75.0836 12.2544 74.1597 12.1329 73.1982 12.0624C73.1684 12.0585 73.1367 12.0565 73.105 12.0545C72.7897 12.033 72.4923 12.0193 72.2128 12.0134C68.88 11.9389 68.0711 12.8853 67.9125 13.1362C67.8907 13.1734 67.8828 13.1949 67.8808 13.1969C67.7955 13.436 67.5338 13.577 67.284 13.5045C67.0382 13.432 66.8895 13.1891 66.9549 12.9422C66.9727 12.8677 67.058 12.6051 67.3534 12.2995C67.6032 12.0389 68.0057 11.7469 68.652 11.5118C68.8304 11.4471 69.0287 11.3844 69.2488 11.3295C70.1568 11.1023 71.4197 10.9827 73.1744 11.1062C73.9178 11.1591 74.6395 11.2394 75.3275 11.3433C75.8489 11.4177 76.3525 11.5059 76.8343 11.6C78.9517 12.0173 80.6627 12.5797 81.6837 12.9559C82.3003 13.1851 82.6651 13.3458 82.7127 13.3674C82.9546 13.4771 83.0636 13.7573 82.9526 13.9983Z" fill="#00BBD6"/>
<path d="M71.0896 8.90543L70.9508 9.08962L69.2894 11.2842C69.2775 11.2999 69.2636 11.3155 69.2497 11.3293C69.1744 11.4057 69.0752 11.4547 68.9682 11.4703L68.6529 11.5115L67.273 11.6957L66.9558 11.7368C66.934 11.7368 66.9122 11.7388 66.8904 11.7388C66.6525 11.7388 66.4463 11.5644 66.4146 11.3273C66.3789 11.0647 66.5633 10.8276 66.827 10.7904L67.2175 10.7395L68.6391 10.5533L70.128 8.58604L69.0951 6.80686L67.5506 6.72653L67.3424 6.71477C67.0768 6.70301 66.8745 6.47963 66.8884 6.21511C66.9023 5.95254 67.1144 5.72133 67.394 5.7664L67.8639 5.79187L69.4063 5.87221C69.5689 5.87808 69.7156 5.96822 69.7969 6.10734L70.9786 8.13733L71.1213 8.38226C71.2184 8.54685 71.2046 8.75259 71.0896 8.90543Z" fill="#00BBD6"/>
<path d="M81.3716 10.8656C81.2982 11.04 81.1277 11.1498 80.9473 11.1556C80.9393 11.1576 80.9334 11.1576 80.9255 11.1576C80.864 11.1576 80.8006 11.1458 80.7411 11.1223C80.7252 11.1145 79.5575 10.6364 77.898 10.1563C77.6046 10.0721 77.2933 9.98585 76.9721 9.90355C76.4983 9.78207 75.9967 9.66646 75.4832 9.56457C73.2547 9.10998 71.5398 9.08254 70.9509 9.09038C70.8102 9.09038 70.7348 9.0943 70.7309 9.0943C70.4414 9.12761 70.2372 8.90815 70.2233 8.64559C70.2094 8.38302 70.4137 8.15964 70.6793 8.14593C70.6972 8.14397 70.7983 8.14005 70.9787 8.13809C71.3514 8.13221 72.0513 8.14201 72.9871 8.23214C73.2706 8.25762 73.5759 8.29093 73.9011 8.33403C74.4423 8.40457 75.0371 8.50255 75.6735 8.63187C76.0324 8.70437 76.3833 8.78079 76.7223 8.86309C77.0594 8.94342 77.3865 9.02572 77.6978 9.11194C79.1332 9.50186 80.2732 9.91531 80.7986 10.1171C80.983 10.1896 81.092 10.2347 81.1118 10.2425C81.3577 10.3444 81.4727 10.6227 81.3716 10.8656Z" fill="#00BBD6"/>
<path d="M73.9923 6.57427L73.9407 8.16142C73.9407 8.22216 73.9249 8.28095 73.9011 8.33385C73.8258 8.50236 73.6553 8.61993 73.459 8.61993H73.4431C73.2131 8.61209 73.0268 8.44554 72.9871 8.23196C72.9812 8.19865 72.9772 8.16338 72.9792 8.12811L73.0149 6.98379C72.5133 6.93285 71.7381 6.85055 71.5259 6.81528C71.4129 6.82704 71.058 6.82116 69.5929 4.92441C69.5711 4.89502 69.5493 4.86563 69.5255 4.83428C69.3649 4.62658 69.4065 4.32874 69.6187 4.17003C69.8328 4.01131 70.1341 4.04854 70.2947 4.26212C70.4494 4.46394 70.6179 4.67557 70.7864 4.87935C71.179 5.35549 71.5656 5.77873 71.7262 5.8865C72.2476 5.95312 73.5601 6.08245 73.5601 6.08245C73.8119 6.10792 74.0022 6.32346 73.9923 6.57427Z" fill="#00BBD6"/>
<path d="M80.7974 10.1165C80.272 9.91468 79.132 9.50124 77.6966 9.11131L77.647 7.96503C77.641 7.85531 77.5994 7.75145 77.5241 7.6672L76.0411 6.0291C75.8646 5.83316 75.5593 5.81552 75.361 5.98991C75.1628 6.16626 75.1449 6.46606 75.3234 6.66396L76.6914 8.17665L76.7211 8.86246C76.3821 8.78016 76.0312 8.70375 75.6723 8.63125C75.0359 8.50192 74.4411 8.40395 73.8998 8.33341C73.9236 8.2805 73.9375 8.22172 73.9395 8.16098L73.9911 6.57383C74.001 6.32302 73.8106 6.10748 73.5588 6.08201C73.5588 6.08201 72.2463 5.95268 71.7249 5.88606C71.5643 5.77829 71.1777 5.35505 70.7852 4.87891C72.4387 4.89262 74.4728 5.16694 75.9558 5.36485L76.9451 5.49613C80.266 5.92329 80.7617 8.03557 80.7617 9.25435C80.7617 9.55415 80.7736 9.84022 80.7974 10.1165Z" fill="#00BBD6"/>
<path d="M77.6995 9.18019C77.7075 9.34087 77.6321 9.48783 77.5112 9.57796H77.5092C77.4339 9.63675 77.3407 9.67202 77.2396 9.67789H77.2197C77.192 9.67789 77.1642 9.67593 77.1385 9.67006C76.9204 9.63283 76.7479 9.44864 76.738 9.22134L76.7221 8.86276L76.6924 8.17696L75.3244 6.66426C75.1459 6.46636 75.1638 6.16657 75.362 5.99022C75.5603 5.81582 75.8656 5.83346 76.0421 6.0294L77.5251 7.6675C77.6004 7.75176 77.642 7.85561 77.648 7.96534L77.6976 9.11161V9.18019H77.6995Z" fill="#00BBD6"/>
<path d="M71.9746 14.0118C71.818 14.0118 71.6654 13.9353 71.5742 13.7982C71.4433 13.6022 71.477 13.3436 71.6455 13.1868C71.7526 13.034 72.05 12.3952 72.272 11.8701C72.3751 11.6291 72.6586 11.5154 72.9025 11.6154C73.1464 11.7173 73.2633 11.9935 73.1602 12.2385C72.5218 13.7472 72.3513 13.857 72.2403 13.9314C72.159 13.9863 72.0658 14.0118 71.9746 14.0118Z" fill="#00BBD6"/>
<path d="M75.7371 14.4349C75.6677 14.4349 75.5964 14.4212 75.5309 14.3879C75.291 14.2743 75.188 13.9921 75.3029 13.753L75.9909 12.3246C76.1039 12.0875 76.3914 11.9817 76.6313 12.1012C76.8712 12.2149 76.9743 12.497 76.8593 12.7361L76.1713 14.1645C76.09 14.335 75.9176 14.4349 75.7371 14.4349Z" fill="#00BBD6"/>
<path d="M76.9723 9.90304L76.7086 10.6555L75.749 10.7358C75.4853 10.7574 75.2871 10.9886 75.3089 11.2492C75.3128 11.2825 75.3188 11.3138 75.3287 11.3432C74.6407 11.2394 73.9191 11.159 73.1756 11.1061C71.421 10.9827 70.158 11.1022 69.25 11.3295C69.2639 11.3158 69.2778 11.3001 69.2897 11.2845L70.9511 9.08987C71.5399 9.08203 73.2549 9.10947 75.4833 9.56406C75.9968 9.66595 76.4984 9.78156 76.9723 9.90304Z" fill="#00BBD6"/>
<path d="M77.8976 10.1553C77.8976 10.171 77.8916 10.1867 77.8857 10.2004L77.5149 11.2605C77.4535 11.4388 77.2909 11.5622 77.1006 11.5779L76.8349 11.5994L75.8297 11.6837C75.8158 11.6857 75.802 11.6857 75.7881 11.6857C75.572 11.6857 75.3856 11.5426 75.3281 11.3427C75.3182 11.3134 75.3122 11.282 75.3083 11.2487C75.2865 10.9881 75.4847 10.7569 75.7484 10.7353L76.708 10.655L76.9717 9.90256L76.9757 9.8908C77.0074 9.80066 77.0649 9.72425 77.1382 9.66938C77.2413 9.591 77.3762 9.55377 77.509 9.57729H77.511C77.5367 9.58121 77.5625 9.58904 77.5883 9.59688C77.8242 9.67526 77.9571 9.92215 77.8976 10.1553Z" fill="#00BBD6"/>
<path d="M50.1013 51.7078C49.9962 51.7078 49.8911 51.6745 49.8019 51.6059C49.5937 51.4413 49.558 51.1415 49.7226 50.9377C53.1941 46.6054 54.011 39.8786 54.0189 39.812C54.0506 39.5514 54.2885 39.3692 54.5522 39.3927C54.8159 39.4221 55.0062 39.6572 54.9765 39.9198C54.9428 40.2058 54.124 46.9816 50.4799 51.5295C50.3848 51.649 50.244 51.7097 50.1013 51.7097V51.7078Z" fill="#00BBD6"/>
</g>
<defs>
<clipPath id="clip0_8680_174051">
<rect width="100.645" height="150" fill="white" transform="translate(0.677734)"/>
</clipPath>
</defs>
</svg>
