<svg width="140" height="123" viewBox="0 0 140 123" fill="none" xmlns="http://www.w3.org/2000/svg">
<g clip-path="url(#clip0_8680_174235)">
<path d="M59.5824 53.6111C59.2231 53.6111 58.8427 53.4915 58.4497 53.2522C56.4632 52.0489 54.5557 48.1385 54.1668 46.0783C53.8329 44.3088 53.9907 43.1055 54.1429 42.4781C53.7188 42.467 53.1398 42.3585 52.765 41.9189C52.3199 41.3944 52.3029 40.5751 52.7143 39.4817C53.4103 37.5884 56.2181 35.1206 59.2809 34.4709C60.9391 34.1176 63.3636 34.1454 65.4727 36.2863C67.9508 38.8056 67.6169 41.3819 67.2323 44.3644C67.0012 46.1451 66.7406 48.1635 67.0351 50.4783C67.059 50.6634 66.9252 50.8331 66.7378 50.8567C66.5532 50.872 66.3785 50.7482 66.3546 50.5632C66.0503 48.1622 66.3166 46.0991 66.5518 44.2796C66.9308 41.3527 67.2281 39.0421 64.981 36.7565C63.0903 34.8396 60.9179 34.8131 59.4232 35.1303C56.5801 35.7326 53.9893 37.9876 53.3539 39.714C53.0384 40.5514 53.0158 41.1621 53.2863 41.4821C53.5977 41.8521 54.2978 41.8257 54.55 41.7812C54.6134 41.7672 54.6867 41.7756 54.7529 41.8048C54.9248 41.8813 55.0009 42.0816 54.9234 42.2514C54.9191 42.2611 54.3767 43.5214 54.8346 45.9545C55.1981 47.8728 57.0662 51.6218 58.8033 52.6749C59.1865 52.9072 59.5274 52.9795 59.8219 52.8989C61.7365 52.3786 64.0385 48.4404 64.061 48.4014C64.1554 48.2387 64.3653 48.183 64.5273 48.2762C64.6922 48.368 64.7471 48.5753 64.6541 48.7367C64.5541 48.9078 62.1887 52.9559 60.0078 53.5485C59.8683 53.5888 59.7232 53.6097 59.5767 53.6097L59.5824 53.6111Z" fill="#00BBD6"/>
<path d="M64.1028 47.8821C63.9211 47.8821 63.7562 47.8 63.6393 47.6483C63.2279 47.1573 63.4336 46.516 63.621 46.2155C63.7196 46.0583 63.9352 46.0096 64.0915 46.107C64.2521 46.2044 64.3015 46.413 64.2014 46.5716C64.2014 46.5716 63.9873 46.9305 64.1437 47.1837C64.4043 47.0307 65.0298 46.1905 65.4327 45.0428C65.6807 44.2986 65.4327 43.5321 65.0552 43.2511C64.8734 43.1147 64.7537 43.162 64.6663 43.2191C64.138 43.571 64.138 44.4265 64.2014 44.6338C64.286 44.766 64.2705 44.9426 64.1535 45.0567C64.0183 45.1861 63.8041 45.1861 63.6689 45.0539C63.4435 44.8272 63.4914 44.2179 63.5041 44.0982C63.5407 43.731 63.6914 43.0563 64.2845 42.6598C64.6551 42.4136 65.096 42.4359 65.4694 42.7141C66.0357 43.1398 66.4429 44.1761 66.0808 45.2612C65.7455 46.2127 64.9397 47.7582 64.2 47.8737C64.1662 47.8793 64.1338 47.8821 64.1028 47.8821Z" fill="#00BBD6"/>
<path d="M62.481 45.7179C62.3077 45.7179 62.1584 45.5871 62.1401 45.4132C62.1133 45.1378 62.219 44.7969 62.343 44.4047C62.4754 43.9859 62.674 43.353 62.505 43.161C62.4613 43.1109 62.3021 42.9969 61.7428 43.0873C59.7042 43.4253 59.2886 41.9897 59.0392 41.1328C58.9716 40.9019 58.9082 40.6848 58.835 40.5569C58.3771 40.3955 55.3284 41.9841 54.8705 42.3416C54.7818 42.4376 54.6479 42.4808 54.5085 42.4362C54.3295 42.3778 54.2323 42.1872 54.2901 42.0092C54.4183 41.6252 57.5853 40.0296 58.6349 39.9253C59.1336 39.8683 59.3337 40.0602 59.4281 40.223C59.5436 40.4219 59.6169 40.6779 59.6972 40.9478C59.9522 41.8283 60.1945 42.6602 61.6343 42.4223C62.3091 42.3236 62.7586 42.4196 63.0248 42.7214C63.4404 43.1972 63.2052 43.947 62.9981 44.6064C62.9093 44.8888 62.8107 45.2087 62.8248 45.3492C62.8431 45.5342 62.705 45.6998 62.5176 45.7192C62.5064 45.7192 62.4937 45.7192 62.4838 45.7192L62.481 45.7179Z" fill="#00BBD6"/>
<path d="M65.83 59.0434C65.7046 59.0434 65.5834 58.9739 65.5243 58.8556C63.7407 55.2986 61.943 53.8017 61.9247 53.7864C61.7796 53.6668 61.7585 53.4554 61.8796 53.3121C61.9994 53.1688 62.2135 53.1479 62.36 53.2662C62.4375 53.3302 64.2817 54.8576 66.1357 58.5579C66.2202 58.7262 66.1512 58.928 65.9807 59.01C65.9314 59.0337 65.8807 59.0462 65.8286 59.0462L65.83 59.0434Z" fill="#00BBD6"/>
<path d="M68.2453 66.1639C64.1316 66.1639 58.1088 63.4513 54.8826 59.712C52.3862 56.7962 52.7694 53.6162 53.5316 51.4628C54.0204 50.0786 54.9305 48.5387 55.301 48.4649C55.4884 48.4302 55.6673 48.547 55.704 48.7292C55.7307 48.8656 55.6716 48.9991 55.5631 49.0742C55.3574 49.3288 51.4254 54.6275 55.4039 59.2752C59.5782 64.1107 67.8452 66.6494 70.7376 64.9453C73.2199 63.4833 76.4067 57.7478 78.31 54.3201C78.7369 53.5536 79.1018 52.897 79.3864 52.4157L79.7808 51.7632C81.0305 49.6891 81.1911 49.4234 83.0888 48.3522C84.9766 47.2714 85.712 45.1082 85.7176 45.0859C85.7768 44.9093 85.9698 44.8091 86.1487 44.8689C86.3277 44.926 86.4263 45.1179 86.3685 45.2946C86.3361 45.392 85.55 47.7207 83.4297 48.9351C81.687 49.9186 81.5884 50.0842 80.3697 52.1068L79.9752 52.7579C79.6949 53.2309 79.3328 53.8819 78.9102 54.6428C76.973 58.1303 73.7299 63.9674 71.0884 65.524C70.3473 65.9608 69.3668 66.1612 68.2468 66.1612L68.2453 66.1639Z" fill="#00BBD6"/>
<path d="M84.5001 46.3942C84.4283 46.3942 84.3593 46.3719 84.2973 46.3274C84.1451 46.2175 84.1127 46.0061 84.2254 45.8544C84.2254 45.8544 84.3381 45.7028 84.7171 45.2117C84.9862 44.8361 85.2257 43.9848 85.2947 43.6899C85.337 43.509 85.5187 43.3908 85.7047 43.4367C85.8892 43.4784 86.0048 43.6593 85.9611 43.8415C85.9498 43.8902 85.6779 45.0392 85.268 45.6124C84.8904 46.1034 84.7777 46.2551 84.7749 46.2578C84.7087 46.3469 84.6044 46.3942 84.5001 46.3942Z" fill="#00BBD6"/>
<path d="M83.8599 45.7937C83.6711 45.7937 83.5176 45.642 83.5176 45.4556C83.5176 45.3763 83.5176 45.3499 84.0712 44.0492C84.3291 43.4983 84.3798 43.2493 84.3882 43.1561C84.3305 43.0866 84.2995 42.9948 84.3122 42.8974C84.3361 42.7124 84.4953 42.5872 84.6954 42.6052C84.8024 42.6192 84.9504 42.7277 85.0025 42.8223C85.1096 43.0142 85.1575 43.3439 84.6968 44.3219C84.2812 45.3026 84.2023 45.5099 84.191 45.546C84.1501 45.6893 84.0191 45.7951 83.8599 45.7951V45.7937Z" fill="#00BBD6"/>
<path d="M82.6158 44.8159C82.427 44.8159 82.2734 44.6642 82.2734 44.4778C82.2734 44.3804 82.3143 44.2928 82.3805 44.2316C82.4087 44.1968 82.5186 44.0466 82.8511 43.5138C83.3315 42.796 83.4414 41.9307 83.4428 41.9237C83.4653 41.7387 83.6442 41.6107 83.8231 41.6274C84.0105 41.6511 84.1444 41.818 84.1232 42.003C84.1176 42.0448 83.995 43.0311 83.4301 43.8755C82.8651 44.7839 82.8229 44.8159 82.6172 44.8159H82.6158Z" fill="#00BBD6"/>
<path d="M79.0784 45.4562C78.953 45.4562 78.8304 45.3867 78.7712 45.2671C78.6881 45.0987 78.7586 44.897 78.9276 44.8149C78.9389 44.8094 80.1378 44.2251 81.0648 43.3696C81.9524 42.5516 82.0087 41.8282 82.0116 41.7976C82.0228 41.6126 82.1848 41.4805 82.3708 41.4805C82.5582 41.4902 82.7033 41.646 82.6948 41.8296C82.692 41.87 82.6385 42.8424 81.5311 43.8634C80.5281 44.7871 79.2812 45.3964 79.2291 45.4215C79.1812 45.4451 79.1291 45.4562 79.0784 45.4562Z" fill="#00BBD6"/>
<path d="M70.3089 61.2201C70.3004 61.2201 70.2906 61.2201 70.2807 61.2201C70.0933 61.2048 69.9525 61.042 69.968 60.8556C70.0948 59.3407 70.4019 58.0595 73.2322 55.3497C76.1668 52.4631 77.0811 49.4069 77.4714 48.102C77.9447 46.3923 78.2082 43.8717 78.2124 43.8466C78.2166 43.8077 78.2265 43.7701 78.2448 43.7339C78.2829 43.6574 79.1803 41.849 80.3778 41.3551C81.402 40.9323 81.981 40.4718 81.9867 40.4676C82.1318 40.3508 82.3487 40.3702 82.4671 40.5149C82.5868 40.6596 82.5657 40.8724 82.4192 40.9893C82.3938 41.0115 81.7641 41.5137 80.6412 41.977C79.8734 42.2928 79.138 43.4794 78.8844 43.976C78.8408 44.385 78.5829 46.6469 78.1293 48.287C77.7221 49.6475 76.7726 52.8192 73.7112 55.831C70.8428 58.5784 70.7485 59.7122 70.6484 60.9127C70.6343 61.0893 70.4836 61.2229 70.3075 61.2229L70.3089 61.2201Z" fill="#00BBD6"/>
<path d="M70.4217 60.431C70.3357 60.431 70.2512 60.399 70.185 60.3364C68.5198 58.745 65.8979 59.0358 65.8726 59.0413C65.6824 59.058 65.5161 58.9328 65.4908 58.7464C65.4682 58.5614 65.6007 58.3931 65.7895 58.3694C65.9106 58.3569 68.7593 58.0356 70.6598 59.8496C70.7964 59.9803 70.7992 60.1945 70.6682 60.3267C70.6006 60.3963 70.5118 60.431 70.4217 60.431Z" fill="#00BBD6"/>
<path d="M67.0734 40.4259C67.0495 40.4259 67.0255 40.4231 67.0016 40.4176C66.8156 40.3772 66.6987 40.1992 66.7381 40.0169C66.7776 39.8403 67.7257 35.6656 72.0043 33.6276C72.1748 33.5525 72.3791 33.6179 72.4622 33.7848C72.5439 33.9531 72.472 34.1548 72.303 34.2369C68.3216 36.1316 67.4158 40.1185 67.4073 40.1574C67.3721 40.316 67.2312 40.4245 67.0734 40.4245V40.4259Z" fill="#00BBD6"/>
<path d="M76.2568 51.1234C76.2455 51.1234 76.2328 51.1234 76.2187 51.1207C76.0314 51.1012 75.8961 50.9343 75.9173 50.7478C76.5921 44.627 77.9347 40.935 79.2322 37.3626C79.6873 36.112 80.1184 34.9282 80.5213 33.6442C82.0626 28.703 81.8639 25.0166 81.8625 24.9804C81.8569 24.9081 81.8766 24.8371 81.9174 24.7773C81.9372 24.7467 83.9194 21.7225 85.0676 19.7262C85.3508 19.2268 85.8171 18.3365 86.3778 17.2681C88.5784 13.067 90.6353 9.22896 91.6186 8.41099C93.1021 7.17986 93.7276 5.23649 93.3825 2.93978C93.1726 1.67805 92.9556 0.932416 92.6837 0.52204C92.5781 0.367628 92.6231 0.157571 92.7809 0.0546294C92.9401 -0.0497034 93.1514 -0.00518807 93.2543 0.150616C93.591 0.655586 93.8249 1.43321 94.0587 2.83405C94.5758 6.26173 93.0289 8.12303 92.061 8.92709C91.1002 9.72419 88.5248 14.639 86.9864 17.577C86.4229 18.6551 85.9523 19.5523 85.6649 20.0573C84.6182 21.8755 82.8938 24.5297 82.5514 25.0514C82.5768 25.7219 82.6247 29.2024 81.1764 33.8432C80.7678 35.1424 80.3156 36.3875 79.8789 37.5894C78.594 41.1242 77.2655 44.78 76.5991 50.8216C76.5808 50.9941 76.4315 51.1221 76.2596 51.1221L76.2568 51.1234ZM72.0035 34.9463C71.9923 34.9463 71.9796 34.9463 71.9683 34.9435C71.7809 34.924 71.6443 34.7585 71.664 34.5735C71.6851 34.3634 72.2289 29.4083 74.7479 26.2908C77.6487 22.7074 77.9784 21.9019 77.9854 21.7211C77.9248 21.1118 82.4697 12.3993 86.1637 9.42371C88.5051 7.55824 88.0332 6.3452 87.5316 5.05843C87.2823 4.41713 87.023 3.75218 87.1329 3.02881C87.233 2.38055 87.5964 1.82829 87.8824 1.47773C88.0022 1.33444 88.2149 1.30941 88.3628 1.42765C88.5094 1.5445 88.5333 1.75734 88.4136 1.90202C88.0839 2.30544 87.8683 2.74085 87.8092 3.13036C87.726 3.67706 87.9416 4.23072 88.1698 4.81638C88.6826 6.13514 89.3222 7.77665 86.5948 9.94816C83.0516 12.8027 78.8138 21.0213 78.6631 21.7294C78.6912 21.9339 78.742 22.4361 75.2805 26.7124C72.8897 29.674 72.3473 34.5943 72.3431 34.643C72.3247 34.8169 72.1768 34.9463 72.0035 34.9463Z" fill="#00BBD6"/>
<path d="M61.4654 64.4099C61.2907 64.4099 61.1413 64.2777 61.1244 64.1024C61.1075 63.9174 61.247 63.7519 61.4344 63.7352C61.495 63.7296 67.4557 63.144 67.56 58.9957C67.5656 58.8121 67.7163 58.666 67.9023 58.666H67.9108C68.0981 58.6716 68.2475 58.826 68.2446 59.0124C68.1249 63.7616 61.564 64.4015 61.4978 64.4071C61.4879 64.4071 61.4766 64.4071 61.4668 64.4071L61.4654 64.4099Z" fill="#00BBD6"/>
<path d="M81.5984 28.791C81.4913 28.791 81.3843 28.7409 81.318 28.6463C78.9597 25.3244 76.0955 26.4623 75.973 26.5124C75.8011 26.5847 75.5982 26.504 75.5249 26.3329C75.4517 26.1618 75.5334 25.9643 75.7053 25.8905C75.7419 25.878 79.1907 24.4744 81.8788 28.261C81.9872 28.414 81.9506 28.6227 81.7942 28.7312C81.7351 28.7715 81.6674 28.7924 81.5984 28.7924V28.791Z" fill="#00BBD6"/>
<path d="M92.0627 4.88216C91.9232 4.88216 91.7922 4.79591 91.7415 4.65958C90.9032 2.39069 92.0261 0.5753 92.074 0.498789C92.174 0.342986 92.3867 0.292906 92.5445 0.391674C92.7051 0.490443 92.7544 0.697717 92.6544 0.856303C92.6445 0.872996 91.664 2.47833 92.3853 4.43005C92.4501 4.60394 92.3586 4.79869 92.181 4.86268C92.143 4.87659 92.1036 4.88355 92.0641 4.88355L92.0627 4.88216Z" fill="#00BBD6"/>
<path d="M90.5957 4.46686C90.4492 4.46686 90.3126 4.37365 90.2689 4.22759C89.6701 2.28143 90.4069 0.77626 90.4393 0.71366C90.5239 0.545337 90.7267 0.475781 90.8958 0.560639C91.0663 0.642714 91.1353 0.844424 91.0522 1.01136C91.0451 1.02527 90.4055 2.35238 90.9212 4.03005C90.9775 4.2095 90.8747 4.3973 90.6943 4.45156C90.6605 4.46129 90.6267 4.46686 90.5943 4.46686H90.5957Z" fill="#00BBD6"/>
<path d="M88.7909 4.27931C88.6289 4.27931 88.4852 4.16524 88.4556 4.00248C88.1414 2.3262 88.5162 1.73637 88.5937 1.63482C88.7092 1.48597 88.9247 1.46093 89.0741 1.57083C89.2206 1.68212 89.2516 1.88522 89.1473 2.03268C89.1304 2.06189 88.8768 2.53069 89.1276 3.87867C89.1628 4.0623 89.0389 4.23897 88.8543 4.27235C88.8332 4.27653 88.8135 4.27931 88.7923 4.27931H88.7909Z" fill="#00BBD6"/>
<path d="M61.741 69.6929C57.947 69.6929 54.5363 68.4187 52.1582 65.2094C49.8435 62.0418 52.8598 55.6414 52.9894 55.3687C53.0697 55.2004 53.274 55.1294 53.4458 55.2074C53.6163 55.288 53.6896 55.4884 53.6093 55.6581C53.5797 55.7207 50.6352 61.9681 52.7118 64.8115C58.2725 72.3221 70.0066 68.5508 78.3624 63.0393C78.5173 62.9377 78.7329 62.9753 78.8371 63.1311C78.9428 63.2869 78.9005 63.4955 78.7442 63.5999C73.6343 66.9719 67.2819 69.6901 61.7424 69.6915L61.741 69.6929Z" fill="#00BBD6"/>
<path d="M79.9061 62.7952C79.7821 62.7952 79.6595 62.7271 79.6003 62.6088C78.1605 59.7724 77.7041 55.7576 77.6858 55.5893C77.6646 55.4043 77.8013 55.2374 77.9872 55.2165C78.2 55.2054 78.3451 55.3306 78.3648 55.5142C78.3704 55.5545 78.8283 59.5804 80.2118 62.3056C80.2963 62.4725 80.2287 62.6742 80.0582 62.7591C80.0089 62.7827 79.9568 62.7952 79.9047 62.7952H79.9061Z" fill="#00BBD6"/>
<path d="M46.4497 85.7678C46.4004 85.7678 46.3497 85.7566 46.3018 85.7344C46.1313 85.6537 46.0594 85.4534 46.1411 85.2837C46.1524 85.26 47.295 82.8242 48.0304 76.1218C48.7785 69.2874 51.3369 62.6657 51.3623 62.6003C51.4313 62.425 51.6314 62.3416 51.8046 62.407C51.9807 62.4737 52.0695 62.6699 52.0005 62.8438C51.9765 62.9091 49.4491 69.4515 48.7094 76.1942C47.9585 83.0426 46.8061 85.4756 46.7582 85.5758C46.7005 85.6968 46.5765 85.7678 46.4497 85.7678Z" fill="#00BBD6"/>
<path d="M48.2938 75.1071C48.1529 75.1071 48.0205 75.0195 47.9712 74.8803C47.5514 73.6965 46.6399 72.8465 46.63 72.8382C46.4919 72.7102 46.4849 72.496 46.6131 72.361C46.7427 72.2247 46.9582 72.2178 47.0963 72.3444C47.1386 72.3847 48.1417 73.3181 48.6164 74.6578C48.6784 74.833 48.5854 75.0264 48.4065 75.0876C48.3685 75.1001 48.3319 75.1071 48.2938 75.1071Z" fill="#00BBD6"/>
<path d="M49.8371 89.0836C47.6647 89.0836 45.6656 88.1572 44.5878 86.6339C42.4197 83.5777 40.2247 79.7006 40.2036 79.6631C40.112 79.4989 40.1698 79.2944 40.3346 79.204C40.5008 79.115 40.7093 79.1706 40.7995 79.3334C40.8221 79.3737 43.0001 83.2201 45.1472 86.2486C46.1319 87.6355 48.0155 88.4646 50.0301 88.4062C52.0208 88.3505 53.7509 87.4519 54.6624 86.0023C56.7672 82.6164 61.8108 69.7125 61.8615 69.5818C61.9291 69.4065 62.1306 69.323 62.3039 69.3884C62.48 69.4552 62.5687 69.6513 62.4997 69.8252C62.2926 70.358 57.3828 82.9169 55.2456 86.3571C54.213 88.0028 52.2716 89.0197 50.0499 89.0809C49.978 89.0836 49.909 89.085 49.8371 89.085V89.0836Z" fill="#00BBD6"/>
<path d="M39.9394 79.0484C39.9309 79.0484 39.9239 79.0484 39.9154 79.0484C39.7281 79.0359 39.5858 78.8745 39.5984 78.6881C39.6027 78.6269 40.1113 72.5269 46.8497 72.2542C47.061 72.2459 47.1991 72.392 47.2061 72.5784C47.2146 72.7648 47.0666 72.9234 46.8779 72.9303C40.7593 73.1765 40.2958 78.5086 40.2789 78.7354C40.2662 78.9135 40.1155 79.0484 39.938 79.0484H39.9394Z" fill="#00BBD6"/>
<path d="M47.2236 72.4697C47.218 72.5588 47.2067 72.6214 47.1996 72.6534C47.1982 72.6645 47.1954 72.6714 47.1954 72.6742C47.1954 72.6756 47.194 72.6784 47.194 72.6798C47.1898 72.6937 47.1856 72.7076 47.1799 72.7201C47.1771 72.7257 47.1757 72.7299 47.1729 72.7354C47.1729 72.7368 47.1729 72.7368 47.1729 72.7382C47.1658 72.7521 47.1588 72.766 47.1489 72.7786C47.1391 72.7939 47.1264 72.8092 47.1137 72.8217C47.101 72.8356 47.0869 72.8481 47.0728 72.8593C46.9925 72.9177 46.8883 72.9427 46.7812 72.9191C46.7291 72.9052 46.6812 72.8815 46.6432 72.8495C46.6417 72.8467 46.6389 72.8453 46.6375 72.844L46.615 72.8217C46.6065 72.8133 46.5995 72.805 46.5924 72.7953C46.5826 72.7827 46.5741 72.7688 46.5657 72.7549C46.5586 72.7438 46.553 72.7313 46.5474 72.7174C46.5431 72.709 46.5403 72.6993 46.5389 72.6909C46.5347 72.6812 46.5319 72.6701 46.5304 72.6589C46.5276 72.6478 46.5262 72.6367 46.5248 72.6255C46.5206 72.5949 46.522 72.5616 46.529 72.5296C46.529 72.5226 46.5319 72.5156 46.5333 72.5087C46.5333 72.5073 46.5347 72.5031 46.5361 72.499C46.5403 72.4697 46.5516 72.3891 46.5431 72.2694C46.5417 72.2513 46.5403 72.2319 46.5375 72.2124C46.5023 71.9161 46.3403 71.4362 45.733 70.9479C45.5569 70.806 45.3428 70.6627 45.0836 70.5236C43.493 69.6611 41.708 71.2122 39.3778 74.0667C39.3778 74.0667 39.3778 74.0681 39.3764 74.0681C39.2539 74.2184 39.1299 74.3714 39.0045 74.5286C38.1493 75.5956 37.3421 76.273 36.6306 76.8698C36.5869 76.906 36.5433 76.9435 36.4996 76.9783C35.2683 78.0119 34.2018 78.9759 33.2649 81.7804C32.4887 84.1592 32.9494 85.9565 33.7777 86.8078C33.8904 86.9233 34.0088 87.0221 34.1328 87.1014C34.2215 87.1584 34.3131 87.2085 34.4075 87.2488C35.2317 87.6077 36.2573 87.3267 37.2674 86.4503C40.3274 83.7933 40.8867 82.0475 40.8923 82.0294C40.9459 81.8513 41.136 81.747 41.3164 81.8027C41.4967 81.8555 41.601 82.0405 41.5474 82.2186C41.5263 82.2965 40.9557 84.1481 37.7182 86.9567C36.8617 87.7023 35.9769 88.0821 35.1528 88.0821C34.6597 88.0821 34.1877 87.9458 33.7566 87.6676C32.2111 86.666 31.7518 84.2162 32.614 81.5717C33.6453 78.4863 34.8231 77.4972 36.1882 76.3537C36.9082 75.75 37.6534 75.1254 38.4677 74.1085C40.7134 71.3026 43.0943 68.6692 45.4132 69.931C47.1362 70.8575 47.256 72.0079 47.225 72.4697H47.2236Z" fill="#00BBD6"/>
<path d="M45.7322 70.9483C45.3081 70.787 44.7573 70.7077 44.081 70.8718C43.0272 71.1027 41.3 72.3047 39.377 74.0672C41.7072 71.2126 43.4921 69.6616 45.0827 70.524C45.3419 70.6632 45.5561 70.8064 45.7322 70.9483Z" fill="#00BBD6"/>
<path d="M35.3103 78.3418C32.2249 81.974 33.3478 85.7202 33.776 86.8081C32.9477 85.9567 32.487 84.1594 33.2632 81.7806C34.2001 78.9761 35.2666 78.0121 36.4979 76.9785C36.0992 77.4195 35.7019 77.8744 35.3103 78.3418Z" fill="#00BBD6"/>
<path d="M46.6892 72.1502C46.6427 72.185 46.5891 72.2059 46.5356 72.2128C46.4158 72.2295 46.2905 72.1836 46.2116 72.0793C46.1848 72.0459 45.5198 71.214 44.235 71.5298C42.8557 71.8331 39.4492 74.4734 35.8356 78.7761C32.491 82.7143 34.438 86.6497 34.5225 86.8152C34.6028 86.971 34.5493 87.1561 34.4056 87.2493C34.3957 87.2562 34.3831 87.2632 34.3718 87.2687C34.3225 87.2938 34.2689 87.3063 34.2182 87.3063C34.0928 87.3063 33.9731 87.2381 33.9125 87.1213C33.9097 87.1143 33.8547 87.0044 33.7758 86.8083C33.3476 85.7204 32.2247 81.9742 35.3101 78.342C35.7017 77.8746 36.099 77.4197 36.4977 76.9787C37.467 75.9076 38.4433 74.9227 39.3745 74.0686C39.3759 74.0686 39.3759 74.0672 39.3759 74.0672C41.299 72.3046 43.0262 71.1027 44.08 70.8718C44.7563 70.7076 45.3071 70.7869 45.7312 70.9483C46.3905 71.1987 46.7371 71.6466 46.761 71.6773C46.8737 71.8275 46.8413 72.0389 46.6892 72.1502Z" fill="#00BBD6"/>
<path d="M79.7575 112.041C79.6068 112.041 79.4687 111.942 79.4264 111.792C79.394 111.674 76.1199 99.8093 73.2924 89.2703C70.486 78.8453 63.1953 70.0063 63.1207 69.9186C63.0009 69.774 63.022 69.5611 63.1671 69.4429C63.3165 69.326 63.5306 69.3469 63.649 69.4888C63.7222 69.5778 71.1073 78.5268 73.9531 89.0964C76.7806 99.634 80.0534 111.497 80.0872 111.616C80.1365 111.795 80.0294 111.98 79.8463 112.03C79.8167 112.038 79.7871 112.041 79.7575 112.041Z" fill="#00BBD6"/>
<path d="M81.32 86.7341C81.3115 86.7341 81.3045 86.7341 81.296 86.7341C80.9269 86.7035 80.9185 86.7035 80.9185 84.1174C80.9185 83.8503 80.9269 83.554 80.934 83.2229C80.9438 82.807 80.9565 82.3326 80.9565 81.7901C80.9945 76.6082 79.766 63.7099 79.7534 63.5806C79.7364 63.3955 79.8745 63.23 80.0619 63.2119C80.2732 63.2175 80.4183 63.3329 80.4352 63.5166C80.4465 63.6473 81.6792 76.5804 81.6412 81.7929C81.6412 82.3396 81.6299 82.8181 81.6186 83.2396C81.6102 83.5652 81.6031 83.8559 81.6031 84.1174C81.6031 85.5183 81.6243 86.026 81.637 86.2096C81.6722 86.2736 81.6863 86.3474 81.6736 86.4253C81.6468 86.5922 81.489 86.7369 81.32 86.7369V86.7341Z" fill="#00BBD6"/>
<path d="M86.3805 112.754H86.3735C86.1847 112.749 86.0339 112.595 86.0382 112.409C86.0382 112.354 86.1382 106.989 85.0633 100.231C83.9503 93.4631 81.1495 83.8909 81.1214 83.7963C81.0678 83.6168 81.1735 83.429 81.3538 83.3776C81.544 83.3205 81.7257 83.429 81.7779 83.6071C81.806 83.7045 84.6195 93.3142 85.7395 100.125C86.8243 106.947 86.7243 112.368 86.7243 112.422C86.72 112.607 86.5679 112.754 86.3819 112.754H86.3805Z" fill="#00BBD6"/>
<path d="M86.1584 119.577C86.1176 117.749 85.8936 115.908 85.6935 114.59C85.6555 114.346 85.6189 114.121 85.585 113.916C85.4597 113.164 85.3625 112.698 85.361 112.685C85.323 112.503 85.1469 112.379 84.9581 112.422C84.8088 112.453 84.7017 112.575 84.6862 112.717C84.651 112.712 84.6144 112.713 84.5777 112.723C81.6305 113.364 79.6018 112.317 79.5806 112.307C79.4595 112.244 79.3087 112.257 79.2002 112.343C79.0932 112.431 79.0509 112.574 79.0918 112.705C79.096 112.716 79.2425 113.186 79.3679 113.916C79.4031 114.122 79.4369 114.349 79.4665 114.591C79.5989 115.716 79.6201 117.192 79.1678 118.579C78.5944 120.345 78.4127 121.231 78.8593 121.828C78.9297 121.922 79.0129 122.003 79.1101 122.072C79.5891 122.417 80.3865 122.483 81.4544 122.474C82.0123 122.462 82.5124 122.497 82.966 122.524C83.3084 122.545 83.6282 122.563 83.924 122.563C84.582 122.563 85.1201 122.469 85.5188 122.089C85.5343 122.075 85.5498 122.06 85.5625 122.045C86.0021 121.592 86.1838 120.827 86.1584 119.577ZM84.7228 113.384C84.7482 113.378 84.7722 113.37 84.7947 113.358C84.8905 113.887 85.0398 114.768 85.1751 115.826C85.2906 116.735 85.3963 117.775 85.447 118.835C85.4597 119.087 85.4681 119.34 85.4737 119.592C85.4963 120.665 85.361 121.303 85.0455 121.602C84.6806 121.949 83.979 121.907 83.0069 121.85C82.5927 121.825 82.1278 121.797 81.622 121.797C81.5628 121.797 81.5051 121.798 81.4445 121.798C80.2329 121.814 79.6173 121.704 79.4087 121.427C79.2256 121.179 79.2693 120.691 79.475 119.924C79.5609 119.596 79.6778 119.218 79.8187 118.787C79.8511 118.686 79.8821 118.588 79.9089 118.487C80.4992 116.392 80.1625 114.239 79.9216 113.176C80.8077 113.477 82.518 113.859 84.7228 113.384Z" fill="#00BBD6"/>
<path d="M85.0453 121.602C84.6804 121.948 83.9788 121.907 83.0067 121.849C82.5925 121.824 82.1276 121.797 81.6218 121.797C81.5627 121.797 81.5049 121.798 81.4443 121.798C80.2327 121.813 79.6171 121.703 79.4086 121.427C79.2254 121.179 79.2691 120.691 79.4748 119.924C79.5593 120.04 79.6636 120.15 79.7833 120.251C80.3313 120.716 81.1161 120.954 81.9318 120.954C82.5784 120.954 83.2434 120.805 83.8295 120.502C84.3296 120.243 85.0044 119.745 85.4468 118.835C85.4595 119.087 85.4679 119.34 85.4736 119.592C85.4961 120.664 85.3609 121.303 85.0453 121.602Z" fill="#00BBD6"/>
<path d="M85.4463 118.836C85.0039 119.746 84.3291 120.244 83.8289 120.502C83.2429 120.806 82.5779 120.954 81.9312 120.954C81.1155 120.954 80.3308 120.717 79.7828 120.252C79.663 120.15 79.5588 120.041 79.4742 119.925C79.1319 119.472 79.0488 118.915 79.2446 118.349C79.3066 118.174 79.494 118.083 79.6799 118.139C79.8321 118.19 79.9222 118.336 79.9082 118.488C79.9082 118.514 79.9025 118.542 79.8927 118.569C79.7335 119.024 79.8476 119.417 80.228 119.74C80.9 120.31 82.313 120.523 83.5091 119.904C84.7897 119.241 85.38 117.82 85.1744 115.905C85.1715 115.878 85.1715 115.852 85.1744 115.827C85.1927 115.674 85.3166 115.55 85.4773 115.533C85.6843 115.512 85.8351 115.649 85.8534 115.832C85.9957 117.147 85.7928 118.119 85.4463 118.836Z" fill="#00BBD6"/>
<path d="M120.558 118.868C120.559 119.056 120.407 119.207 120.22 119.21H120.216C120.027 119.21 119.876 119.06 119.873 118.876C119.872 118.791 119.872 118.691 119.871 118.574C119.83 113.796 119.669 82.5545 119.651 78.6886L118.04 78.9251L118.559 118.307L118.562 118.492C118.565 118.677 118.414 118.832 118.224 118.835H118.219C118.033 118.835 117.88 118.686 117.877 118.499L117.873 118.167L117.359 79.202L117.352 78.6386C117.352 78.5982 117.357 78.5607 117.37 78.5245C117.411 78.409 117.514 78.32 117.643 78.3005H117.652L118.043 78.2421L119.94 77.9625C120.038 77.9486 120.138 77.9764 120.213 78.0404C120.288 78.1044 120.331 78.1976 120.333 78.295C120.334 78.6594 120.516 114.222 120.557 118.713C120.557 118.771 120.557 118.822 120.557 118.868H120.558Z" fill="#00BBD6"/>
<path d="M114.8 117.82C114.802 118.005 114.648 118.158 114.459 118.16H114.454C114.41 118.16 114.368 118.15 114.33 118.135H114.326C114.203 118.082 114.117 117.962 114.116 117.822C114.116 117.691 114.116 117.55 114.113 117.402C114.073 110.133 113.913 82.2066 113.892 78.6078L112.281 78.8179L112.803 117.134V117.215C112.807 117.403 112.655 117.556 112.467 117.559H112.462C112.276 117.559 112.122 117.41 112.119 117.226L112.116 116.995L111.598 78.8721L111.594 78.5271C111.591 78.3588 111.714 78.2155 111.88 78.1877C111.883 78.1877 111.887 78.1863 111.89 78.1863L112.67 78.0848L113.01 78.0403L114.152 77.8914L114.186 77.8872C114.292 77.8789 114.383 77.9053 114.457 77.9679C114.53 78.0319 114.573 78.1237 114.575 78.2197V78.3992C114.575 78.4534 114.575 78.5174 114.575 78.5939C114.576 78.765 114.578 78.9918 114.579 79.27C114.612 84.8288 114.761 110.829 114.797 117.541C114.797 117.638 114.797 117.731 114.797 117.82H114.8Z" fill="#00BBD6"/>
<path d="M109.905 116.806C109.907 116.992 109.755 117.144 109.564 117.145H109.563C109.376 117.145 109.222 116.995 109.221 116.809C109.221 116.679 109.219 116.544 109.218 116.404C109.183 108.58 109.032 83.66 109.001 78.6548C109.001 78.6173 109.001 78.5811 108.999 78.5449C108.999 78.3989 108.998 78.2709 108.998 78.1652L107.427 78.3989L107.909 116.138L107.912 116.391C107.915 116.576 107.763 116.729 107.574 116.732H107.569C107.382 116.732 107.23 116.585 107.227 116.398L107.222 115.998L106.738 78.1137C106.737 77.9454 106.861 77.8007 107.029 77.7756L109.108 77.464L109.285 77.4376C109.393 77.4251 109.484 77.4515 109.56 77.5141C109.636 77.5781 109.679 77.6713 109.68 77.7687C109.68 77.7687 109.68 77.8688 109.681 78.0594C109.681 78.1151 109.683 78.1791 109.683 78.25C109.684 78.4295 109.686 78.6562 109.687 78.9261C109.721 84.5447 109.869 109.018 109.904 116.544C109.904 116.633 109.905 116.721 109.905 116.806Z" fill="#00BBD6"/>
<path d="M117.848 78.8512C117.852 79.0376 117.703 79.1934 117.516 79.1976L117.359 79.2017L114.581 79.2699L114.429 79.2741H114.421C114.235 79.2741 114.084 79.128 114.078 78.9444C114.074 78.758 114.223 78.6022 114.412 78.598L114.577 78.5938L117.371 78.5243L117.497 78.5215H117.506C117.692 78.5215 117.844 78.6675 117.848 78.8512Z" fill="#00BBD6"/>
<path d="M117.652 78.2991H117.643C117.514 78.32 117.411 78.409 117.37 78.5245L114.576 78.5941C114.576 78.5176 114.576 78.4536 114.576 78.3993C114.727 78.3645 114.838 78.231 114.838 78.071V77.3518L117.466 77.292V77.9973C117.466 78.1294 117.542 78.2435 117.653 78.2991H117.652Z" fill="#00BBD6"/>
<path d="M118.149 76.9455V77.9972C118.149 78.0932 118.108 78.1794 118.044 78.242C117.982 78.3004 117.898 78.3352 117.807 78.3352C117.752 78.3352 117.698 78.3227 117.652 78.299C117.541 78.2434 117.464 78.1293 117.464 77.9972V77.2919L114.837 77.3517V78.0709C114.837 78.2309 114.726 78.3644 114.575 78.3992C114.55 78.4062 114.523 78.4089 114.495 78.4089C114.306 78.4089 114.152 78.2587 114.152 78.0709V77.022C114.152 76.8384 114.302 76.6881 114.488 76.684L117.798 76.6075C117.908 76.6061 117.98 76.6408 118.045 76.7034C118.111 76.7674 118.149 76.8551 118.149 76.9455Z" fill="#00BBD6"/>
<path d="M113.142 76.6839V77.7717C113.142 77.8803 113.09 77.9776 113.008 78.0402C112.951 78.0834 112.879 78.1098 112.8 78.1098C112.753 78.1098 112.71 78.1014 112.669 78.0847C112.545 78.0333 112.458 77.9122 112.458 77.7717V77.0331L109.792 77.1221V77.8093C109.792 77.9081 109.75 77.9971 109.681 78.0597C109.62 78.114 109.539 78.1473 109.45 78.1473C109.261 78.1473 109.107 77.9957 109.107 77.8093V76.7966C109.107 76.6143 109.254 76.4641 109.439 76.4585L112.789 76.3459C112.875 76.3333 112.97 76.3779 113.038 76.4405C113.106 76.5045 113.142 76.5907 113.142 76.6839Z" fill="#00BBD6"/>
<path d="M137.151 122.777C137.129 122.777 137.106 122.774 137.082 122.768L90.4531 113.271C90.2671 113.234 90.1488 113.054 90.1868 112.874C90.2234 112.691 90.3967 112.566 90.5897 112.611L137.219 122.108C137.405 122.145 137.523 122.325 137.485 122.506C137.453 122.665 137.311 122.775 137.151 122.775V122.777Z" fill="#00BBD6"/>
<path d="M112.672 78.0849L111.891 78.1864C111.891 78.1864 111.884 78.1878 111.881 78.1878L109.685 78.2504C109.685 78.1795 109.684 78.1155 109.684 78.0598C109.753 77.9972 109.795 77.9082 109.795 77.8094V77.1222L112.46 77.0332V77.7719C112.46 77.9124 112.548 78.0334 112.672 78.0849Z" fill="#00BBD6"/>
<path d="M112.391 78.5135C112.396 78.6985 112.248 78.8557 112.057 78.8599L111.598 78.8724L109.688 78.9267L109.348 78.9364H109.338C109.172 78.9364 109.03 78.8168 109.002 78.6554C108.999 78.6401 108.996 78.6234 108.996 78.6067C108.996 78.5859 108.998 78.5664 109 78.5455C109.026 78.3883 109.161 78.2645 109.33 78.2603L109.684 78.2506L111.88 78.188L112.039 78.1838C112.191 78.1769 112.386 78.3271 112.391 78.5135Z" fill="#00BBD6"/>
<path d="M69.0765 121.865C69.054 121.865 69.0314 121.862 69.0075 121.857L32.1562 115.534C31.9702 115.497 31.8519 115.319 31.8899 115.136C31.9265 114.954 32.0998 114.832 32.2928 114.873L69.1441 121.196C69.3301 121.234 69.4485 121.412 69.4104 121.594C69.378 121.754 69.2357 121.864 69.0765 121.864V121.865Z" fill="#00BBD6"/>
<path d="M75.856 44.1925C72.7918 44.1925 70.7363 42.2658 70.6348 42.1699C70.4996 42.0391 70.4968 41.8263 70.6264 41.6927C70.7588 41.5564 70.9758 41.555 71.1096 41.6844C71.1364 41.7094 73.8118 44.2064 77.4522 43.3259C77.6339 43.2827 77.8199 43.3926 77.8664 43.5735C77.9114 43.7557 77.7987 43.938 77.6156 43.9825C76.9999 44.1327 76.4096 44.1953 75.8546 44.1953L75.856 44.1925Z" fill="#00BBD6"/>
<path d="M65.1326 54.0752C64.4676 54.0752 63.8689 53.9069 63.4617 53.5536C63.3194 53.4311 63.3068 53.2169 63.4307 53.0778C63.5547 52.9359 63.7717 52.9248 63.9125 53.0472C64.6677 53.7024 66.7612 53.4534 68.0376 52.2306C68.7462 51.5518 69.6563 50.0814 67.7882 47.8486C67.6671 47.7054 67.6882 47.4911 67.8333 47.3743C67.9798 47.2546 68.1968 47.2769 68.3137 47.4188C70.6157 50.169 69.2196 52.04 68.5124 52.7161C67.6009 53.5897 66.2681 54.0766 65.1312 54.0766L65.1326 54.0752Z" fill="#00BBD6"/>
<path d="M66.6953 38.9994C66.6953 38.9994 77.0122 39.7645 74.5876 52.5418C74.5876 52.5418 74.0593 54.4017 76.4796 57.6082C76.4796 57.6082 72.456 57.2841 72.3264 52.2302C72.1968 47.1763 66.6953 38.998 66.6953 38.998V38.9994Z" fill="#00BBD6"/>
<path d="M54.8702 42.3395C54.8702 42.3395 51.5186 41.9333 53.2317 38.9981C53.2317 38.9981 54.1714 35.4118 59.2826 34.4701C59.2826 34.4701 63.5246 33.5269 66.1732 37.4929C66.1732 37.4929 67.0833 38.8395 67.2749 41.1654C67.451 43.298 66.9326 46.3223 66.4648 48.452C66.4648 48.452 66.555 44.2801 65.4702 42.7137C64.801 41.7469 64.1544 45.0577 64.1544 45.0577L63.6232 46.2165L62.9977 44.6042L63.0245 42.7193L60.9831 42.7666L59.0403 41.1321L58.836 40.5561L54.8716 42.3409L54.8702 42.3395Z" fill="#00BBD6"/>
</g>
<path d="M9.33953 51.9531C9.22593 51.5783 9.21961 51.1884 9.70725 51.0313C10.1634 50.8848 10.4112 51.1584 10.5375 51.5499C10.7962 52.2888 11.0697 53.0298 11.3117 53.7813C11.408 54.064 11.3903 54.3009 11.248 54.4608C10.9633 54.7806 10.3245 54.6176 10.1687 54.222C9.83617 53.4729 9.57947 52.7193 9.33953 51.9531ZM9.52406 55.734C9.33468 55.3637 9.02641 55.2015 8.64203 55.3729C8.27239 55.5463 8.18153 55.8778 8.36888 56.2628C8.69675 56.9364 8.97632 57.6333 9.32097 58.2944C9.78473 59.1813 10.2653 60.0556 10.7961 60.8919C10.9066 61.0717 11.284 61.1687 11.5154 61.1258C11.5617 61.1173 11.61 61.094 11.6603 61.0561C11.8824 60.8623 11.9016 60.5059 11.7906 60.2212C11.0498 58.7275 10.2796 57.2297 9.52406 55.734ZM14.2488 60.8149C14.6494 60.5261 14.4351 60.2272 14.2397 59.901C13.8635 59.2506 13.4853 58.6148 13.1574 57.9412C12.7552 57.1525 12.4349 56.3153 12.0012 55.5373C11.9122 55.4203 11.8063 55.3159 11.6796 55.2535C11.555 55.1764 11.4095 55.1414 11.2748 55.1378C11.2305 55.1317 11.197 55.1569 11.1487 55.1802C10.8213 55.3744 10.7691 55.861 10.931 56.2125C11.4656 57.3486 12.0149 58.4867 12.5663 59.6101C12.743 59.9637 12.9364 60.3046 13.1634 60.6202C13.4413 61.0027 13.8314 61.1164 14.2488 60.8149ZM23.2615 60.6376C23.1047 61.2293 23.4763 61.8043 24.0856 61.9633C26.0591 62.4751 28.0219 62.9554 29.9538 63.5513C32.0733 64.2029 34.1142 65.0981 36.0194 66.2139C36.0616 66.2347 36.0367 66.306 35.9797 66.2832C31.8243 64.4827 27.4093 63.3646 22.9118 62.9533C22.8066 62.9537 22.6993 62.9688 22.6027 63.0154C22.5061 63.0619 22.4222 63.1251 22.351 63.205C21.887 63.8442 22.3635 64.7478 23.1473 64.8411L28.246 65.4701C28.2903 65.4762 28.3157 65.5096 28.3096 65.5536C28.3056 65.583 28.272 65.6083 28.2405 65.6189L21.3057 65.7689C23.574 65.8875 25.8154 66.0921 28.0472 66.475C28.4876 66.5508 28.408 67.0185 27.9595 67.0015C24.0276 66.8478 20.125 67.0273 16.3306 68.1643C10.8588 69.8029 4.99226 66.5693 3.59645 61.11C2.17463 55.5125 5.61881 49.9433 11.2491 48.7904C11.7139 48.6899 12.1726 48.6336 12.6353 48.5478C12.7889 48.5242 12.9404 48.5151 13.092 48.5061C13.273 48.5012 13.4521 48.5109 13.6438 48.5374C14.4677 48.6661 15.283 48.7487 16.0821 48.9488C16.7504 49.1158 17.3731 49.3963 18.0105 49.6788C19.1036 50.1439 20.1551 50.693 21.2671 51.1308C24.8308 52.5354 28.2864 54.1794 31.4188 56.4222C33.0336 57.5727 34.6424 58.7672 36.1799 60.0418C34.295 58.7791 32.3745 57.5565 30.3875 56.4892C29.6738 56.1064 29.221 56.8818 29.8763 57.3613L30.6013 57.8803C30.614 57.897 30.612 57.9117 30.5952 57.9243C30.5952 57.9243 30.5785 57.937 30.5657 57.9203L25.3079 55.5038C24.2335 55.0114 23.0471 55.9847 23.3879 57.109C23.4668 57.2995 23.6403 57.4581 23.8387 57.5453C25.1363 58.0536 26.4756 58.4779 27.7336 59.0555C29.19 59.7203 30.6611 60.3872 32.0006 61.2454C34.1978 62.6409 36.3138 64.1897 38.4526 65.6819C38.5772 65.759 38.4873 65.8663 38.3626 65.7892C34.1579 63.0394 29.5065 61.0208 24.6236 59.8082C24.031 59.6366 23.4184 60.0458 23.2615 60.6376ZM22.0644 59.6195C22.4228 56.5868 21.3794 54.019 19.0736 51.995C16.15 49.4369 11.6745 49.1932 8.4711 51.3844C8.12285 51.6206 8.00396 51.8286 8.17251 52.2409C8.42404 52.8142 8.61252 53.4088 8.81778 53.9907C8.95886 54.3842 8.90819 54.7513 8.43733 54.8958C8.01275 55.0317 7.7629 54.7727 7.63252 54.4106C7.43391 53.8895 7.25207 53.3556 7.05549 52.8198C7.04479 52.7884 7.01934 52.7549 6.99187 52.7362C6.90743 52.6946 6.81284 52.7265 6.77321 52.7958C6.73155 52.8798 6.69192 52.9492 6.63552 53.0311C4.87649 55.2122 4.29597 57.6756 4.85173 60.4005C5.691 64.5561 9.54492 67.4521 14.0304 67.1885C16.0615 67.0648 17.9647 66.2353 19.4332 64.8521C20.8997 63.4835 21.833 61.6224 22.0644 59.6195ZM13.1744 62.2825C13.0411 62.1594 12.6958 62.1566 12.5046 62.2349C12.1873 62.3557 12.213 62.8231 12.383 63.1158C12.7465 63.7495 13.5281 64.6205 13.8398 64.6486C14.0336 64.6603 14.3301 64.5816 14.4409 64.4323C14.5537 64.2683 14.6043 63.9013 14.5026 63.7675C14.0787 63.2452 13.6507 62.7522 13.1744 62.2825ZM15.8017 62.1963C15.4231 61.8897 14.5863 62.5073 14.8454 62.9171C15.1661 63.4252 15.6189 63.8468 16.0255 64.2769C16.2479 64.5171 16.7508 64.4669 16.9388 64.1936C16.9556 64.1809 16.9597 64.1516 16.9617 64.1369C17.0089 63.904 16.9924 63.5875 16.8692 63.391C16.57 62.9457 16.2056 62.5363 15.8017 62.1963Z" fill="#00BBD6"/>
<defs>
<clipPath id="clip0_8680_174235">
<rect width="118.633" height="123" fill="white" transform="translate(18.8594)"/>
</clipPath>
</defs>
</svg>
