<svg width="677" height="602" viewBox="0 0 677 602" fill="none" xmlns="http://www.w3.org/2000/svg">
<path d="M169.79 407.358L74.233 443.368L52.7075 436.126L53.1099 424.056L128.55 406.554L169.79 407.358Z" fill="url(#paint0_linear_16331_132182)"/>
<path d="M112.255 401.927L53.1104 424.056L73.8311 435.925L169.791 407.358L112.255 401.927Z" fill="url(#paint1_linear_16331_132182)"/>
<path d="M297.132 322.665L268.566 376.177L299.949 426.671L301.156 418.423L297.132 322.665Z" fill="url(#paint2_linear_16331_132182)"/>
<path d="M270.779 386.235L268.767 400.519L263.134 434.517L238.591 428.28L240.804 423.653L261.525 399.11L270.779 386.235Z" fill="url(#paint3_linear_16331_132182)"/>
<path d="M369.555 385.431L366.939 398.909L374.986 428.884L371.768 445.38L393.494 529.269L448.414 468.314L452.438 456.847L369.555 385.431Z" fill="url(#paint4_linear_16331_132182)"/>
<path d="M403.553 362.899L396.713 364.71L400.334 387.644L353.863 335.942L355.271 332.723L362.916 331.919L401.943 356.059L403.553 362.899Z" fill="url(#paint5_linear_16331_132182)"/>
<path d="M380.82 313.813L384.24 324.475L421.256 372.354L416.226 384.827L416.629 396.495L435.941 418.021L503.737 394.685L502.731 390.862L380.82 313.813Z" fill="url(#paint6_linear_16331_132182)"/>
<path d="M354.467 281.625L361.106 299.53L405.163 293.495L382.229 282.028L354.467 281.625Z" fill="url(#paint7_linear_16331_132182)"/>
<path d="M189.907 405.95L150.075 424.056L151.886 433.31L178.239 439.345L171.802 429.487L189.907 405.95Z" fill="url(#paint8_linear_16331_132182)"/>
<path d="M183.47 201.559L180.452 207.191L258.91 260.502L270.377 262.715L268.566 252.455L211.031 211.416L183.47 201.559Z" fill="url(#paint9_linear_16331_132182)"/>
<path d="M250.863 163.939L247.845 161.525L233.763 172.388L288.281 219.865L250.863 163.939Z" fill="url(#paint10_linear_16331_132182)"/>
<path d="M468.934 0.988953L461.49 5.01241L460.686 34.786L472.153 75.423L475.573 36.9989L468.934 0.988953Z" fill="url(#paint11_linear_16331_132182)"/>
<path d="M188.097 324.073L180.05 334.333L196.546 361.29L263.536 310.594L188.097 324.073Z" fill="url(#paint12_linear_16331_132182)"/>
<path d="M87.3092 314.014L86.7057 321.055L156.915 329.706L176.63 305.364L87.3092 314.014Z" fill="url(#paint13_linear_16331_132182)"/>
<path d="M101.391 398.909L100.183 405.347L118.289 417.417L164.76 378.993L101.391 398.909Z" fill="url(#paint14_linear_16331_132182)"/>
<path d="M346.622 209.404L337.368 199.547L399.932 43.0342L402.95 49.2705L352.858 208.398L346.622 209.404Z" fill="url(#paint15_linear_16331_132182)"/>
<path d="M338.172 198.138L337.569 60.9384L398.725 46.0516L346.622 209.404L338.172 198.138Z" fill="url(#paint16_linear_16331_132182)"/>
<path d="M399.932 42.8328L346.822 210.008L337.568 199.547V60.3349C337.367 60.3349 400.133 43.034 400.133 43.034L399.932 42.8328ZM346.219 208.398L397.518 48.868L337.77 61.5419L338.776 196.73L346.219 208.599V208.398Z" fill="url(#paint17_linear_16331_132182)"/>
<path d="M277.015 117.468L273.797 118.474L245.834 39.4132L250.662 39.6144L286.471 74.015L277.015 117.468Z" fill="url(#paint18_linear_16331_132182)"/>
<path d="M273.595 117.469L246.638 40.6205L282.447 74.4175L273.595 117.469Z" fill="url(#paint19_linear_16331_132182)"/>
<path d="M274.601 127.124L278.625 122.698L312.623 216.043L308.197 220.066L271.986 167.962L274.601 127.124Z" fill="#187572"/>
<path d="M279.028 123.503L300.554 145.632L311.82 214.433L276.614 163.536L279.028 123.503Z" fill="url(#paint20_linear_16331_132182)"/>
<path opacity="0.4" d="M279.632 124.911L300.152 145.833L311.216 212.623L279.632 124.911Z" fill="#04838D"/>
<path d="M312.624 216.244L276.412 163.939L278.827 122.698L300.956 145.23L312.624 216.244ZM277.016 163.335L311.215 212.623L300.151 145.833L279.229 124.509L277.016 163.335Z" fill="#7AD0E5"/>
<path d="M466.721 84.0735L387.861 193.914L384.24 189.488L438.959 75.0208L466.721 84.0735Z" fill="url(#paint21_linear_16331_132182)"/>
<path d="M466.722 84.074L387.862 193.914L442.581 79.2458L466.722 84.074Z" fill="url(#paint22_linear_16331_132182)"/>
<path d="M192.523 103.185L193.931 85.4818L195.943 81.6595L229.538 91.7182L248.046 136.177L246.638 141.006L236.982 144.023L192.523 103.185Z" fill="url(#paint23_linear_16331_132182)"/>
<path d="M194.535 99.564L195.943 81.6596L208.214 68.7845L231.349 87.6948L248.047 136.177L238.189 139.396L194.535 99.564Z" fill="url(#paint24_linear_16331_132182)"/>
<path d="M195.741 81.6596L208.013 68.7845L231.349 87.6948L248.046 136.379L237.987 139.597L194.333 99.7652L195.54 81.4584L195.741 81.6596ZM248.046 136.177L231.349 88.0971L208.214 69.1869L196.143 81.8608L194.936 99.564L238.39 139.195L248.046 135.976V136.177Z" fill="#E44F9C"/>
<path d="M248.247 136.177V136.379C246.034 137.183 243.62 137.988 241.407 138.592C243.017 137.787 244.827 137.183 246.437 136.58C247.04 136.58 247.442 136.177 248.046 135.976L242.815 120.486L248.247 136.177Z" fill="url(#paint25_linear_16331_132182)"/>
<path d="M426.285 79.849L438.355 16.6807L441.976 16.2783L437.752 58.5246L429.504 80.4525L426.285 79.849Z" fill="url(#paint26_linear_16331_132182)"/>
<path d="M461.49 48.6678L446 45.449L441.977 17.8883L429.906 79.4472L461.49 48.6678Z" fill="url(#paint27_linear_16331_132182)"/>
<path d="M441.977 16.2786L446.201 45.2475L461.893 48.6674L429.303 80.4527L441.776 16.2786H441.977ZM445.799 45.851L441.977 19.8997L430.51 78.8433L460.887 49.0698L445.799 45.851Z" fill="#E074AE"/>
<path d="M125.733 119.078L113.059 120.084L81.2736 146.236L157.719 178.424L173.008 179.631L127.946 143.42L125.733 119.078Z" fill="url(#paint28_linear_16331_132182)"/>
<path d="M125.732 119.078L97.3668 150.662L173.008 179.631L125.732 119.078Z" fill="url(#paint29_linear_16331_132182)"/>
<path d="M192.723 35.9932L186.286 27.7451L161.743 21.3076L166.772 63.5539L155.909 74.0149L157.317 81.6595L213.847 136.177L192.522 52.4894L192.723 35.9932Z" fill="url(#paint30_linear_16331_132182)"/>
<path d="M160.335 78.0386L213.847 136.178L192.724 35.9934L169.187 23.3195L170.193 65.1635L160.335 78.0386Z" fill="url(#paint31_linear_16331_132182)"/>
<path d="M506.955 156.496L505.547 159.916L515.203 175.004L549.604 148.65L528.883 99.3628L506.955 156.496Z" fill="url(#paint32_linear_16331_132182)"/>
<path d="M528.883 99.363L506.955 156.496L516.812 169.774L549.604 148.65L528.883 99.363Z" fill="url(#paint33_linear_16331_132182)"/>
<path d="M615.589 200.955L594.265 210.008L516.411 264.526L613.175 266.336L624.24 263.721L615.589 200.955Z" fill="url(#paint34_linear_16331_132182)"/>
<path d="M521.239 263.923L615.589 200.955L624.239 263.721L521.239 263.923Z" fill="url(#paint35_linear_16331_132182)" stroke="#F176A2" stroke-width="1.20704" stroke-miterlimit="10"/>
<path d="M470.141 295.909L468.532 316.428L556.646 355.657L562.681 350.829L565.296 339.764L619.814 325.883L588.029 309.79L470.141 295.909Z" fill="url(#paint36_linear_16331_132182)"/>
<path d="M470.141 295.909L471.75 313.411L558.657 349.22L562.68 334.333L619.813 325.883L588.028 309.79L579.78 295.506L470.141 295.909Z" fill="url(#paint37_linear_16331_132182)" stroke="#F176A2" stroke-width="1.00586" stroke-miterlimit="10"/>
<path d="M473.964 129.941L459.278 135.373L418.842 208.6L415.825 224.291L423.268 219.664L487.04 185.263L481.206 144.023L473.964 129.941Z" fill="url(#paint38_linear_16331_132182)"/>
<path d="M473.964 129.941L456.462 147.845L421.86 210.008L423.269 219.664L492.472 186.873L486.638 136.378L473.964 129.941Z" fill="url(#paint39_linear_16331_132182)"/>
<path d="M188.298 150.662L189.706 156.093L215.054 172.791L220.687 174.4L219.078 171.584L208.617 147.443L193.529 148.449L188.298 150.662Z" fill="url(#paint40_linear_16331_132182)"/>
<path d="M188.298 150.662L194.132 157.502L215.658 171.785L219.078 171.584L209.421 145.633L190.913 146.236L188.298 150.662Z" fill="url(#paint41_linear_16331_132182)"/>
<path d="M46.8736 310.594L82.6824 301.542L44.6606 299.127L46.8736 310.594Z" fill="url(#paint42_linear_16331_132182)"/>
<path d="M175.825 477.97L160.134 524.039L145.046 502.111V497.886L175.825 477.97Z" fill="url(#paint43_linear_16331_132182)"/>
<path d="M145.046 497.886L158.725 515.59L175.825 477.97L145.046 497.886Z" fill="url(#paint44_linear_16331_132182)"/>
<path d="M468.934 0.988953L465.313 33.1766L472.152 75.423L483.619 41.2235L468.934 0.988953Z" fill="url(#paint45_linear_16331_132182)"/>
<path d="M537.132 38.2059L534.315 74.0147L519.63 77.6358L510.577 74.4171L537.132 38.2059Z" fill="url(#paint46_linear_16331_132182)"/>
<path d="M537.132 38.2059L510.577 74.4171L532.102 70.9971L537.132 38.2059Z" fill="url(#paint47_linear_16331_132182)"/>
<path d="M288.684 0.184326L268.969 22.7157L302.162 68.1808L305.18 19.2958L288.684 0.184326Z" fill="url(#paint48_linear_16331_132182)"/>
<path d="M233.964 281.826L82.6823 287.861L51.7017 264.928L54.3169 260.301L164.962 262.715L233.964 281.826Z" fill="url(#paint49_linear_16331_132182)"/>
<path d="M54.3162 260.301L82.4804 282.631L233.964 281.827L144.24 254.065L54.3162 260.301Z" fill="url(#paint50_linear_16331_132182)"/>
<path d="M116.277 193.109L109.639 185.867L83.0837 212.422L85.2967 246.823L214.249 278.206L252.069 284.442L116.881 207.795L116.277 193.109Z" fill="url(#paint51_linear_16331_132182)"/>
<path d="M140.619 221.676L252.069 284.442L214.249 278.206L90.9297 244.207V214.233L109.639 185.867L140.619 221.676Z" fill="url(#paint52_linear_16331_132182)"/>
<path d="M67.7951 143.621L79.0608 163.336L48.2814 146.639L67.7951 143.621Z" fill="url(#paint53_linear_16331_132182)"/>
<path d="M398.926 13.8643L410.191 33.5792L379.412 16.8819L398.926 13.8643Z" fill="url(#paint54_linear_16331_132182)"/>
<path d="M183.47 201.559L270.377 262.715L272.992 253.059L237.787 211.215L183.47 201.559Z" fill="url(#paint55_linear_16331_132182)"/>
<path d="M370.963 255.07L431.516 235.355L433.729 265.129L370.963 255.07Z" fill="url(#paint56_linear_16331_132182)"/>
<path d="M463.1 269.756L508.163 279.01L495.489 249.639L466.319 245.012L463.1 269.756Z" fill="url(#paint57_linear_16331_132182)"/>
<path d="M459.077 235.355L463.1 269.756L499.513 272.572L495.489 249.639L459.077 235.355Z" fill="url(#paint58_linear_16331_132182)"/>
<path d="M523.854 186.068L509.168 232.338L492.27 225.096L472.756 228.113L454.248 223.889L455.656 215.037L523.854 186.068Z" fill="url(#paint59_linear_16331_132182)"/>
<path d="M455.655 215.037L523.853 186.068L507.558 226.302L497.499 219.06L472.755 228.113L455.655 215.037Z" fill="url(#paint60_linear_16331_132182)"/>
<path d="M568.917 176.613L548.398 179.429L540.15 209.203L568.917 176.613Z" fill="url(#paint61_linear_16331_132182)"/>
<path d="M631.884 271.567L593.46 291.684L602.111 306.37L636.31 290.879L631.884 271.567Z" fill="url(#paint62_linear_16331_132182)"/>
<path d="M166.169 355.054L19.3126 389.052L0 384.022L68.6 333.729L166.169 355.054Z" fill="url(#paint63_linear_16331_132182)"/>
<path d="M68.6006 333.729L159.33 340.569L166.17 355.054L18.7097 386.236L10.2605 381.81L68.6006 333.729Z" fill="url(#paint64_linear_16331_132182)"/>
<path d="M250.259 305.967L188.097 324.073L194.333 354.852L263.536 310.594L257.702 304.961L250.259 305.967Z" fill="url(#paint65_linear_16331_132182)"/>
<path d="M176.629 305.364L87.3087 314.014L155.708 325.481L176.629 305.364Z" fill="url(#paint66_linear_16331_132182)"/>
<path d="M265.951 327.895L190.712 465.9L187.091 415.204L170.394 407.359L265.951 327.895Z" fill="url(#paint67_linear_16331_132182)" stroke="#F176A2" stroke-width="1.20704" stroke-miterlimit="10"/>
<path d="M258.91 384.023L240.804 423.654L260.922 429.286L270.779 386.235L258.91 384.023Z" fill="url(#paint68_linear_16331_132182)"/>
<path d="M298.943 317.233L274.601 371.751L301.156 418.423L298.943 317.233Z" fill="url(#paint69_linear_16331_132182)" stroke="#F176A2" stroke-width="1.20704" stroke-miterlimit="10"/>
<path d="M327.107 361.29L301.961 515.388L379.815 586L382.229 579.764L327.107 361.29Z" fill="url(#paint70_linear_16331_132182)"/>
<path d="M327.107 361.29L307.995 502.312L382.228 579.764L327.107 361.29Z" fill="url(#paint71_linear_16331_132182)"/>
<path d="M375.188 368.331L369.555 385.431L377.602 419.831L373.78 437.333L395.507 516.998L452.439 456.847L402.749 403.939L375.188 368.331Z" fill="url(#paint72_linear_16331_132182)"/>
<path d="M362.916 331.919L401.944 356.059L392.69 362.698L400.334 387.644L355.272 332.723L362.916 331.919Z" fill="url(#paint73_linear_16331_132182)"/>
<path d="M416.226 384.827L433.125 406.956L502.731 390.862L452.639 358.473L380.82 313.813L425.279 367.526L416.226 384.827Z" fill="url(#paint74_linear_16331_132182)"/>
<path d="M503.939 401.525L493.276 435.925L497.099 464.291L604.726 514.383L503.939 401.525Z" fill="url(#paint75_linear_16331_132182)"/>
<path d="M503.939 401.525L500.116 457.451L604.726 514.383L562.078 416.613L503.939 401.525Z" fill="url(#paint76_linear_16331_132182)"/>
<path d="M582.798 378.188L609.151 396.294L676.746 383.017L593.862 353.042L582.798 378.188Z" fill="url(#paint77_linear_16331_132182)"/>
<path d="M611.163 391.868L676.746 383.017L593.862 353.042L584.81 374.366L611.163 391.868Z" fill="url(#paint78_linear_16331_132182)"/>
<path d="M528.683 360.687L493.679 363.503L407.778 325.28L422.061 314.819L528.683 360.687Z" fill="url(#paint79_linear_16331_132182)"/>
<path d="M512.388 483.201L506.554 482.798L493.276 495.673L502.531 517.601L507.761 519.211L530.493 501.306L512.388 483.201Z" fill="url(#paint80_linear_16331_132182)"/>
<path d="M512.388 483.201L498.105 497.887L507.761 519.211L541.357 502.514L512.388 483.201Z" fill="url(#paint81_linear_16331_132182)" stroke="#F176A2" stroke-width="1.20704" stroke-miterlimit="10"/>
<path d="M428.297 466.302L439.362 535.707L471.549 527.056L477.786 520.418L428.297 466.302Z" fill="url(#paint82_linear_16331_132182)"/>
<path d="M428.297 466.302L441.776 530.074L477.786 520.418L438.759 466.101L428.297 466.302Z" fill="url(#paint83_linear_16331_132182)" stroke="#F176A2" stroke-width="1.20704" stroke-miterlimit="10"/>
<path d="M583.401 410.376L579.176 413.997L601.507 434.919L624.641 430.091L583.401 410.376Z" fill="url(#paint84_linear_16331_132182)"/>
<path d="M583.401 410.376L624.642 430.091L601.507 434.919L583.401 410.376Z" fill="url(#paint85_linear_16331_132182)"/>
<path d="M545.783 382.011L541.357 383.821L544.173 405.347L570.728 388.851L545.783 382.011Z" fill="url(#paint86_linear_16331_132182)"/>
<path d="M545.783 382.011L546.386 398.708L570.728 388.851L545.783 382.011Z" fill="url(#paint87_linear_16331_132182)"/>
<path d="M111.047 460.871L106.42 465.095L124.124 481.189L150.075 450.611L111.047 460.871Z" fill="url(#paint88_linear_16331_132182)"/>
<path d="M111.047 460.871L122.715 474.349L150.074 450.611L111.047 460.871Z" fill="url(#paint89_linear_16331_132182)"/>
<path d="M210.629 540.535L249.254 561.055L275.607 572.521L278.826 548.783L285.465 534.5L287.879 444.777L212.841 537.316L210.629 540.535Z" fill="url(#paint90_linear_16331_132182)"/>
<path d="M273.797 446.386L210.629 540.535L263.738 555.221L279.631 527.258L287.879 444.777L273.797 446.386Z" fill="url(#paint91_linear_16331_132182)"/>
<path d="M129.756 385.833L101.391 398.909L119.094 412.991L164.76 378.993L129.756 385.833Z" fill="url(#paint92_linear_16331_132182)"/>
<path d="M189.907 405.95L157.921 426.067L178.239 439.345L189.907 405.95Z" fill="url(#paint93_linear_16331_132182)"/>
<path d="M604.524 126.32L582.798 140.603L582.999 178.424L590.04 167.963L601.708 138.39L604.524 126.32Z" fill="url(#paint94_linear_16331_132182)"/>
<path d="M604.525 126.32L589.638 138.792L590.04 167.962L604.726 140.804L604.525 126.32Z" fill="url(#paint95_linear_16331_132182)"/>
<path d="M47.4773 220.066L37.6198 241.19L49.0866 244.207L64.577 229.924L47.4773 220.066Z" fill="url(#paint96_linear_16331_132182)"/>
<path d="M139.816 338.759L137.804 346.805L154.904 360.485L195.742 335.339L139.816 338.759Z" fill="url(#paint97_linear_16331_132182)"/>
<path d="M156.513 356.864L195.742 335.339L171.802 331.919L139.816 338.759L156.513 356.864Z" fill="url(#paint98_linear_16331_132182)"/>
<path d="M195.541 477.97L196.144 485.414L217.468 492.253L207.209 481.591L195.541 477.97Z" fill="url(#paint99_linear_16331_132182)"/>
<path d="M210.025 473.746L195.541 477.97L217.469 492.254L210.025 473.746Z" fill="url(#paint100_linear_16331_132182)"/>
<path d="M288.281 219.865L250.863 163.939L241.407 176.009L288.281 219.865Z" fill="url(#paint101_linear_16331_132182)"/>
<path d="M251.265 296.713L271.583 292.086L274.198 279.614L251.265 296.713Z" fill="url(#paint102_linear_16331_132182)"/>
<path d="M341.591 301.944L352.253 325.28L357.685 318.843L341.591 301.944Z" fill="url(#paint103_linear_16331_132182)"/>
<path d="M382.229 282.028L354.467 281.625L360.905 295.909L405.163 293.495L382.229 282.028Z" fill="url(#paint104_linear_16331_132182)"/>
<path d="M339.58 516.998L335.757 564.072L316.646 568.9L304.576 564.676L339.58 516.998Z" fill="url(#paint105_linear_16331_132182)"/>
<path d="M339.58 516.998L304.576 564.676L333.142 560.25L339.58 516.998Z" fill="url(#paint106_linear_16331_132182)"/>
<path d="M488.649 287.46L490.057 295.507L485.631 311.802L425.48 294.903L488.649 287.46Z" fill="url(#paint107_linear_16331_132182)"/>
<path d="M425.48 294.903L488.649 287.46L482.815 308.583L425.48 294.903Z" fill="url(#paint108_linear_16331_132182)"/>
<defs>
<linearGradient id="paint0_linear_16331_132182" x1="57.4125" y1="408.059" x2="161.564" y2="436.747" gradientUnits="userSpaceOnUse">
<stop stop-color="#EC008C"/>
<stop offset="0.3" stop-color="#9F1F63"/>
<stop offset="0.6" stop-color="#B41F76"/>
<stop offset="0.9" stop-color="#9F1F63"/>
</linearGradient>
<linearGradient id="paint1_linear_16331_132182" x1="54.1518" y1="413.838" x2="167.004" y2="427.604" gradientUnits="userSpaceOnUse">
<stop stop-color="#EC008C"/>
<stop offset="1" stop-color="#FCE3EE"/>
</linearGradient>
<linearGradient id="paint2_linear_16331_132182" x1="270.779" y1="367.506" x2="312.866" y2="379.099" gradientUnits="userSpaceOnUse">
<stop stop-color="#EC008C"/>
<stop offset="0.3" stop-color="#9F1F63"/>
<stop offset="0.6" stop-color="#B41F76"/>
<stop offset="0.9" stop-color="#9F1F63"/>
</linearGradient>
<linearGradient id="paint3_linear_16331_132182" x1="240.929" y1="407.694" x2="267.352" y2="411.007" gradientUnits="userSpaceOnUse">
<stop stop-color="#04838D"/>
<stop offset="0.3" stop-color="#00ABC2"/>
<stop offset="0.5" stop-color="#005057"/>
</linearGradient>
<linearGradient id="paint4_linear_16331_132182" x1="359.713" y1="455.228" x2="450.957" y2="466.38" gradientUnits="userSpaceOnUse">
<stop stop-color="#EC008C"/>
<stop offset="0.3" stop-color="#9F1F63"/>
<stop offset="0.6" stop-color="#B41F76"/>
<stop offset="0.9" stop-color="#9F1F63"/>
</linearGradient>
<linearGradient id="paint5_linear_16331_132182" x1="351.175" y1="356.681" x2="403.438" y2="363.148" gradientUnits="userSpaceOnUse">
<stop stop-color="#04838D"/>
<stop offset="0.6" stop-color="#00ABC2"/>
<stop offset="1" stop-color="#04838D"/>
</linearGradient>
<linearGradient id="paint6_linear_16331_132182" x1="369.21" y1="355.598" x2="504.005" y2="392.726" gradientUnits="userSpaceOnUse">
<stop stop-color="#04838D"/>
<stop offset="0.6" stop-color="#00ABC2"/>
<stop offset="1" stop-color="#04838D"/>
</linearGradient>
<linearGradient id="paint7_linear_16331_132182" x1="353.048" y1="286.251" x2="403.087" y2="300.034" gradientUnits="userSpaceOnUse">
<stop stop-color="#005057"/>
<stop offset="0.5" stop-color="#9DDCF9"/>
<stop offset="1" stop-color="#04838D"/>
</linearGradient>
<linearGradient id="paint8_linear_16331_132182" x1="160.838" y1="411.379" x2="184.595" y2="431.885" gradientUnits="userSpaceOnUse">
<stop stop-color="#EC008C"/>
<stop offset="0.3" stop-color="#9F1F63"/>
<stop offset="0.6" stop-color="#B41F76"/>
<stop offset="0.9" stop-color="#9F1F63"/>
</linearGradient>
<linearGradient id="paint9_linear_16331_132182" x1="176.987" y1="219.393" x2="274.738" y2="246.318" gradientUnits="userSpaceOnUse">
<stop stop-color="#04838D"/>
<stop offset="0.6" stop-color="#00ABC2"/>
<stop offset="1" stop-color="#04838D"/>
</linearGradient>
<linearGradient id="paint10_linear_16331_132182" x1="231.339" y1="181.155" x2="294.179" y2="198.464" gradientUnits="userSpaceOnUse">
<stop stop-color="#005057"/>
<stop offset="0.5" stop-color="#98D4C5"/>
<stop offset="1" stop-color="#04838D"/>
</linearGradient>
<linearGradient id="paint11_linear_16331_132182" x1="453.391" y1="34.0705" x2="481.514" y2="41.8168" gradientUnits="userSpaceOnUse">
<stop stop-color="#04838D"/>
<stop offset="0.6" stop-color="#00ABC2"/>
<stop offset="1" stop-color="#04838D"/>
</linearGradient>
<linearGradient id="paint12_linear_16331_132182" x1="182.952" y1="323.491" x2="254.326" y2="343.15" gradientUnits="userSpaceOnUse">
<stop stop-color="#04838D"/>
<stop offset="0.3" stop-color="#00ABC2"/>
<stop offset="0.5" stop-color="#005057"/>
</linearGradient>
<linearGradient id="paint13_linear_16331_132182" x1="86.7057" y1="317.635" x2="176.63" y2="317.635" gradientUnits="userSpaceOnUse">
<stop stop-color="#EC008C"/>
<stop offset="0.3" stop-color="#9F1F63"/>
<stop offset="0.6" stop-color="#B41F76"/>
<stop offset="0.9" stop-color="#9F1F63"/>
</linearGradient>
<linearGradient id="paint14_linear_16331_132182" x1="104.007" y1="388.133" x2="157.925" y2="402.985" gradientUnits="userSpaceOnUse">
<stop stop-color="#EC008C"/>
<stop offset="0.3" stop-color="#9F1F63"/>
<stop offset="0.6" stop-color="#B41F76"/>
<stop offset="0.9" stop-color="#9F1F63"/>
</linearGradient>
<linearGradient id="paint15_linear_16331_132182" x1="337.368" y1="126.119" x2="402.95" y2="126.119" gradientUnits="userSpaceOnUse">
<stop stop-color="#EC008C"/>
<stop offset="0.3" stop-color="#9F1F63"/>
<stop offset="0.6" stop-color="#B41F76"/>
<stop offset="0.9" stop-color="#9F1F63"/>
</linearGradient>
<linearGradient id="paint16_linear_16331_132182" x1="337.569" y1="127.728" x2="398.725" y2="127.728" gradientUnits="userSpaceOnUse">
<stop stop-color="white"/>
<stop offset="1" stop-color="#EC008C"/>
</linearGradient>
<linearGradient id="paint17_linear_16331_132182" x1="337.166" y1="126.521" x2="399.932" y2="126.521" gradientUnits="userSpaceOnUse">
<stop stop-color="white"/>
<stop offset="1" stop-color="#EC008C"/>
</linearGradient>
<linearGradient id="paint18_linear_16331_132182" x1="268.693" y1="125.259" x2="261.627" y2="44.495" gradientUnits="userSpaceOnUse">
<stop stop-color="#EC008C"/>
<stop offset="0.3" stop-color="#9F1F63"/>
<stop offset="0.6" stop-color="#B41F76"/>
<stop offset="0.9" stop-color="#9F1F63"/>
</linearGradient>
<linearGradient id="paint19_linear_16331_132182" x1="266.802" y1="124.415" x2="259.911" y2="45.6551" gradientUnits="userSpaceOnUse">
<stop stop-color="white"/>
<stop offset="1" stop-color="#EC008C"/>
</linearGradient>
<linearGradient id="paint20_linear_16331_132182" x1="248.427" y1="162.339" x2="312.864" y2="214.148" gradientUnits="userSpaceOnUse">
<stop stop-color="#00BBD8"/>
<stop offset="1" stop-color="white"/>
</linearGradient>
<linearGradient id="paint21_linear_16331_132182" x1="539.677" y1="161.122" x2="436.886" y2="230.194" gradientUnits="userSpaceOnUse">
<stop stop-color="#EC008C"/>
<stop offset="0.3" stop-color="#9F1F63"/>
<stop offset="0.6" stop-color="#B41F76"/>
<stop offset="0.9" stop-color="#9F1F63"/>
</linearGradient>
<linearGradient id="paint22_linear_16331_132182" x1="460.348" y1="263.486" x2="539.553" y2="155.158" gradientUnits="userSpaceOnUse">
<stop stop-color="white"/>
<stop offset="1" stop-color="#EC008C"/>
</linearGradient>
<linearGradient id="paint23_linear_16331_132182" x1="700.356" y1="88.6805" x2="748.584" y2="90.9549" gradientUnits="userSpaceOnUse">
<stop stop-color="#EC008C"/>
<stop offset="0.3" stop-color="#9F1F63"/>
<stop offset="0.6" stop-color="#B41F76"/>
<stop offset="0.9" stop-color="#9F1F63"/>
</linearGradient>
<linearGradient id="paint24_linear_16331_132182" x1="757.894" y1="673.266" x2="698.829" y2="650.581" gradientUnits="userSpaceOnUse">
<stop stop-color="white"/>
<stop offset="1" stop-color="#EC008C"/>
</linearGradient>
<linearGradient id="paint25_linear_16331_132182" x1="240.133" y1="129.533" x2="249.442" y2="132.097" gradientUnits="userSpaceOnUse">
<stop stop-color="white"/>
<stop offset="1" stop-color="#EC008C"/>
</linearGradient>
<linearGradient id="paint26_linear_16331_132182" x1="429.891" y1="47.4208" x2="439.976" y2="50.1988" gradientUnits="userSpaceOnUse">
<stop stop-color="#EC008C"/>
<stop offset="0.3" stop-color="#9F1F63"/>
<stop offset="0.6" stop-color="#B41F76"/>
<stop offset="0.9" stop-color="#9F1F63"/>
</linearGradient>
<linearGradient id="paint27_linear_16331_132182" x1="444.266" y1="83.9335" x2="441.391" y2="23.019" gradientUnits="userSpaceOnUse">
<stop stop-color="white"/>
<stop offset="1" stop-color="#EC008C"/>
</linearGradient>
<linearGradient id="paint28_linear_16331_132182" x1="93.798" y1="136.17" x2="188.756" y2="162.326" gradientUnits="userSpaceOnUse">
<stop stop-color="#EC008C"/>
<stop offset="0.3" stop-color="#9F1F63"/>
<stop offset="0.6" stop-color="#B41F76"/>
<stop offset="0.9" stop-color="#9F1F63"/>
</linearGradient>
<linearGradient id="paint29_linear_16331_132182" x1="107.411" y1="144.928" x2="185.959" y2="152.567" gradientUnits="userSpaceOnUse">
<stop stop-color="white"/>
<stop offset="1" stop-color="#EC008C"/>
</linearGradient>
<linearGradient id="paint30_linear_16331_132182" x1="148.909" y1="68.3066" x2="226.683" y2="89.7291" gradientUnits="userSpaceOnUse">
<stop stop-color="#EC008C"/>
<stop offset="0.3" stop-color="#9F1F63"/>
<stop offset="0.6" stop-color="#B41F76"/>
<stop offset="0.9" stop-color="#9F1F63"/>
</linearGradient>
<linearGradient id="paint31_linear_16331_132182" x1="160.481" y1="76.2936" x2="220.188" y2="83.7668" gradientUnits="userSpaceOnUse">
<stop stop-color="white"/>
<stop offset="1" stop-color="#EC008C"/>
</linearGradient>
<linearGradient id="paint32_linear_16331_132182" x1="508.306" y1="136.21" x2="550.497" y2="141.363" gradientUnits="userSpaceOnUse">
<stop stop-color="#EC008C"/>
<stop offset="0.3" stop-color="#9F1F63"/>
<stop offset="0.6" stop-color="#B41F76"/>
<stop offset="0.9" stop-color="#9F1F63"/>
</linearGradient>
<linearGradient id="paint33_linear_16331_132182" x1="509.689" y1="133.461" x2="550.857" y2="138.541" gradientUnits="userSpaceOnUse">
<stop stop-color="white"/>
<stop offset="1" stop-color="#EC008C"/>
</linearGradient>
<linearGradient id="paint34_linear_16331_132182" x1="516.009" y1="235.208" x2="623.772" y2="233.944" gradientUnits="userSpaceOnUse">
<stop stop-color="#EC008C"/>
<stop offset="0.3" stop-color="#9F1F63"/>
<stop offset="0.6" stop-color="#B41F76"/>
<stop offset="0.9" stop-color="#9F1F63"/>
</linearGradient>
<linearGradient id="paint35_linear_16331_132182" x1="520.665" y1="233.808" x2="623.762" y2="232.522" gradientUnits="userSpaceOnUse">
<stop stop-color="#EC008C"/>
<stop offset="1" stop-color="#FCE3EE"/>
</linearGradient>
<linearGradient id="paint36_linear_16331_132182" x1="466.977" y1="320.345" x2="617.928" y2="338.971" gradientUnits="userSpaceOnUse">
<stop stop-color="#EC008C"/>
<stop offset="0.3" stop-color="#9F1F63"/>
<stop offset="0.6" stop-color="#B41F76"/>
<stop offset="0.9" stop-color="#9F1F63"/>
</linearGradient>
<linearGradient id="paint37_linear_16331_132182" x1="468.183" y1="310.662" x2="619.134" y2="329.287" gradientUnits="userSpaceOnUse">
<stop stop-color="#EC008C"/>
<stop offset="1" stop-color="#FCE3EE"/>
</linearGradient>
<linearGradient id="paint38_linear_16331_132182" x1="428.409" y1="173.255" x2="486.012" y2="189.121" gradientUnits="userSpaceOnUse">
<stop stop-color="#EC008C"/>
<stop offset="0.3" stop-color="#9F1F63"/>
<stop offset="0.6" stop-color="#B41F76"/>
<stop offset="0.9" stop-color="#9F1F63"/>
</linearGradient>
<linearGradient id="paint39_linear_16331_132182" x1="426.276" y1="172.667" x2="493.091" y2="180.846" gradientUnits="userSpaceOnUse">
<stop stop-color="white"/>
<stop offset="1" stop-color="#EC008C"/>
</linearGradient>
<linearGradient id="paint40_linear_16331_132182" x1="202.649" y1="169.28" x2="210.046" y2="149.066" gradientUnits="userSpaceOnUse">
<stop stop-color="#04838D"/>
<stop offset="0.6" stop-color="#00ABC2"/>
<stop offset="1" stop-color="#04838D"/>
</linearGradient>
<linearGradient id="paint41_linear_16331_132182" x1="202.372" y1="170.036" x2="207.268" y2="146.121" gradientUnits="userSpaceOnUse">
<stop offset="0.3" stop-color="white"/>
<stop offset="1" stop-color="#00BBD7"/>
</linearGradient>
<linearGradient id="paint42_linear_16331_132182" x1="72.4796" y1="313.235" x2="49.1697" y2="293.567" gradientUnits="userSpaceOnUse">
<stop stop-color="white"/>
<stop offset="0.8" stop-color="#00ACC3"/>
<stop offset="1" stop-color="#00BBD7"/>
</linearGradient>
<linearGradient id="paint43_linear_16331_132182" x1="149.045" y1="519.281" x2="168.059" y2="474.778" gradientUnits="userSpaceOnUse">
<stop stop-color="#EC008C"/>
<stop offset="0.3" stop-color="#9F1F63"/>
<stop offset="0.6" stop-color="#B41F76"/>
<stop offset="0.9" stop-color="#9F1F63"/>
</linearGradient>
<linearGradient id="paint44_linear_16331_132182" x1="150.113" y1="512.149" x2="166.41" y2="474.003" gradientUnits="userSpaceOnUse">
<stop stop-color="#EC008C"/>
<stop offset="0.3" stop-color="#EC008C"/>
<stop offset="1" stop-color="#E4F5FD"/>
</linearGradient>
<linearGradient id="paint45_linear_16331_132182" x1="464.233" y1="37.8914" x2="483.794" y2="40.3581" gradientUnits="userSpaceOnUse">
<stop stop-color="white"/>
<stop offset="0.8" stop-color="#00ACC3"/>
<stop offset="1" stop-color="#00BBD7"/>
</linearGradient>
<linearGradient id="paint46_linear_16331_132182" x1="515.851" y1="55.0308" x2="537.768" y2="61.0675" gradientUnits="userSpaceOnUse">
<stop stop-color="#FAF8D1"/>
<stop offset="0.6" stop-color="#F78F1E"/>
<stop offset="1" stop-color="#824A00"/>
</linearGradient>
<linearGradient id="paint47_linear_16331_132182" x1="515.905" y1="54.8369" x2="535.3" y2="60.1791" gradientUnits="userSpaceOnUse">
<stop stop-color="#FAF8D1"/>
<stop offset="1" stop-color="#FFC92F"/>
</linearGradient>
<linearGradient id="paint48_linear_16331_132182" x1="267.854" y1="31.1665" x2="306.006" y2="35.8328" gradientUnits="userSpaceOnUse">
<stop stop-color="white"/>
<stop offset="1" stop-color="#EC008C"/>
</linearGradient>
<linearGradient id="paint49_linear_16331_132182" x1="51.7017" y1="274.182" x2="233.964" y2="274.182" gradientUnits="userSpaceOnUse">
<stop stop-color="#EC008C"/>
<stop offset="0.3" stop-color="#9F1F63"/>
<stop offset="0.6" stop-color="#B41F76"/>
<stop offset="0.9" stop-color="#9F1F63"/>
</linearGradient>
<linearGradient id="paint50_linear_16331_132182" x1="53.9713" y1="261.463" x2="233.585" y2="283.602" gradientUnits="userSpaceOnUse">
<stop stop-color="white"/>
<stop offset="1" stop-color="#EC008C"/>
</linearGradient>
<linearGradient id="paint51_linear_16331_132182" x1="82.8544" y1="212.662" x2="258.379" y2="261.01" gradientUnits="userSpaceOnUse">
<stop stop-color="#EC008C"/>
<stop offset="0.3" stop-color="#9F1F63"/>
<stop offset="0.6" stop-color="#B41F76"/>
<stop offset="0.9" stop-color="#9F1F63"/>
</linearGradient>
<linearGradient id="paint52_linear_16331_132182" x1="89.4594" y1="224.289" x2="256.761" y2="244.915" gradientUnits="userSpaceOnUse">
<stop stop-color="white"/>
<stop offset="1" stop-color="#EC008C"/>
</linearGradient>
<linearGradient id="paint53_linear_16331_132182" x1="47.7766" y1="150.625" x2="80.0907" y2="154.518" gradientUnits="userSpaceOnUse">
<stop stop-color="white"/>
<stop offset="0.8" stop-color="#00ACC3"/>
<stop offset="1" stop-color="#00BBD7"/>
</linearGradient>
<linearGradient id="paint54_linear_16331_132182" x1="378.931" y1="21.0728" x2="411.245" y2="24.9657" gradientUnits="userSpaceOnUse">
<stop stop-color="white"/>
<stop offset="0.8" stop-color="#00ACC3"/>
<stop offset="1" stop-color="#00BBD7"/>
</linearGradient>
<linearGradient id="paint55_linear_16331_132182" x1="180.18" y1="226.741" x2="274.634" y2="238.361" gradientUnits="userSpaceOnUse">
<stop stop-color="white"/>
<stop offset="0.8" stop-color="#00ABC1"/>
<stop offset="1" stop-color="#00BBD7"/>
</linearGradient>
<linearGradient id="paint56_linear_16331_132182" x1="372.37" y1="243.372" x2="435.145" y2="251.064" gradientUnits="userSpaceOnUse">
<stop stop-color="white"/>
<stop offset="0.8" stop-color="#00ABC1"/>
<stop offset="1" stop-color="#00BBD7"/>
</linearGradient>
<linearGradient id="paint57_linear_16331_132182" x1="463.241" y1="255.882" x2="510.759" y2="268.971" gradientUnits="userSpaceOnUse">
<stop stop-color="#005057"/>
<stop offset="0.5" stop-color="#9DDCF9"/>
<stop offset="1" stop-color="#005158"/>
</linearGradient>
<linearGradient id="paint58_linear_16331_132182" x1="456.633" y1="252.601" x2="501.205" y2="258.201" gradientUnits="userSpaceOnUse">
<stop stop-color="#00BBD8"/>
<stop offset="1" stop-color="white"/>
</linearGradient>
<linearGradient id="paint59_linear_16331_132182" x1="456.847" y1="202.58" x2="520.592" y2="210.54" gradientUnits="userSpaceOnUse">
<stop stop-color="#EC008C"/>
<stop offset="0.3" stop-color="#9F1F63"/>
<stop offset="0.6" stop-color="#B41F76"/>
<stop offset="0.9" stop-color="#9F1F63"/>
</linearGradient>
<linearGradient id="paint60_linear_16331_132182" x1="457.039" y1="202.633" x2="520.591" y2="210.54" gradientUnits="userSpaceOnUse">
<stop stop-color="white"/>
<stop offset="1" stop-color="#EC008C"/>
</linearGradient>
<linearGradient id="paint61_linear_16331_132182" x1="542.165" y1="192.068" x2="566.595" y2="195.041" gradientUnits="userSpaceOnUse">
<stop stop-color="white"/>
<stop offset="0.8" stop-color="#00ACC3"/>
<stop offset="1" stop-color="#00BBD7"/>
</linearGradient>
<linearGradient id="paint62_linear_16331_132182" x1="588.049" y1="286.086" x2="630.047" y2="291.186" gradientUnits="userSpaceOnUse">
<stop stop-color="white"/>
<stop offset="0.4" stop-color="#F0F9FA"/>
<stop offset="0.8" stop-color="#00ABC1"/>
<stop offset="1" stop-color="#00BBD8"/>
</linearGradient>
<linearGradient id="paint63_linear_16331_132182" x1="-0.458844" y1="362.395" x2="166.423" y2="356.859" gradientUnits="userSpaceOnUse">
<stop stop-color="#EC008C"/>
<stop offset="0.3" stop-color="#9F1F63"/>
<stop offset="0.6" stop-color="#B41F76"/>
<stop offset="0.9" stop-color="#9F1F63"/>
</linearGradient>
<linearGradient id="paint64_linear_16331_132182" x1="7.71106" y1="365.949" x2="163.377" y2="337.839" gradientUnits="userSpaceOnUse">
<stop stop-color="white"/>
<stop offset="1" stop-color="#EC008C"/>
</linearGradient>
<linearGradient id="paint65_linear_16331_132182" x1="176.864" y1="316.806" x2="243.389" y2="335.13" gradientUnits="userSpaceOnUse">
<stop stop-color="white"/>
<stop offset="0.4" stop-color="#F0F9FA"/>
<stop offset="0.8" stop-color="#00ABC1"/>
<stop offset="1" stop-color="#00BBD8"/>
</linearGradient>
<linearGradient id="paint66_linear_16331_132182" x1="87.9465" y1="306.295" x2="175.152" y2="316.961" gradientUnits="userSpaceOnUse">
<stop stop-color="white"/>
<stop offset="1" stop-color="#EC008C"/>
</linearGradient>
<linearGradient id="paint67_linear_16331_132182" x1="176.944" y1="383.184" x2="245.408" y2="402.042" gradientUnits="userSpaceOnUse">
<stop stop-color="#EC008C"/>
<stop offset="0.8" stop-color="#FCE3EE"/>
</linearGradient>
<linearGradient id="paint68_linear_16331_132182" x1="236.863" y1="404.279" x2="261.874" y2="407.412" gradientUnits="userSpaceOnUse">
<stop stop-color="white"/>
<stop offset="0.4" stop-color="#F0F9FA"/>
<stop offset="0.8" stop-color="#00ABC1"/>
<stop offset="1" stop-color="#00BBD8"/>
</linearGradient>
<linearGradient id="paint69_linear_16331_132182" x1="277.056" y1="362.14" x2="313.713" y2="372.237" gradientUnits="userSpaceOnUse">
<stop stop-color="#EC008C"/>
<stop offset="1" stop-color="#FCE3EE"/>
</linearGradient>
<linearGradient id="paint70_linear_16331_132182" x1="299.87" y1="459.611" x2="406.737" y2="489.047" gradientUnits="userSpaceOnUse">
<stop stop-color="#EC008C"/>
<stop offset="0.3" stop-color="#9F1F63"/>
<stop offset="0.6" stop-color="#B41F76"/>
<stop offset="0.9" stop-color="#9F1F63"/>
</linearGradient>
<linearGradient id="paint71_linear_16331_132182" x1="312.117" y1="465.906" x2="394.454" y2="476.065" gradientUnits="userSpaceOnUse">
<stop stop-color="#EC008C"/>
<stop offset="1" stop-color="#FCE3EE"/>
</linearGradient>
<linearGradient id="paint72_linear_16331_132182" x1="362.362" y1="440.308" x2="452.778" y2="451.44" gradientUnits="userSpaceOnUse">
<stop stop-color="#EC008C"/>
<stop offset="1" stop-color="#FCE3EE"/>
</linearGradient>
<linearGradient id="paint73_linear_16331_132182" x1="352.005" y1="356.701" x2="403.051" y2="363.041" gradientUnits="userSpaceOnUse">
<stop stop-color="white"/>
<stop offset="0.8" stop-color="#00ACC3"/>
<stop offset="1" stop-color="#00BBD7"/>
</linearGradient>
<linearGradient id="paint74_linear_16331_132182" x1="375.276" y1="357.06" x2="504.619" y2="373.073" gradientUnits="userSpaceOnUse">
<stop stop-color="white"/>
<stop offset="0.4" stop-color="#F0F9FA"/>
<stop offset="0.8" stop-color="#00ABC1"/>
<stop offset="1" stop-color="#00BBD8"/>
</linearGradient>
<linearGradient id="paint75_linear_16331_132182" x1="491.62" y1="441.481" x2="615.166" y2="475.512" gradientUnits="userSpaceOnUse">
<stop stop-color="#EC008C"/>
<stop offset="0.3" stop-color="#9F1F63"/>
<stop offset="0.6" stop-color="#B41F76"/>
<stop offset="0.9" stop-color="#9F1F63"/>
</linearGradient>
<linearGradient id="paint76_linear_16331_132182" x1="497.575" y1="451.677" x2="610.427" y2="465.442" gradientUnits="userSpaceOnUse">
<stop stop-color="#EC008C"/>
<stop offset="1" stop-color="#FCE3EE"/>
</linearGradient>
<linearGradient id="paint77_linear_16331_132182" x1="583.1" y1="372.989" x2="676.338" y2="384.481" gradientUnits="userSpaceOnUse">
<stop stop-color="#FAF8D1"/>
<stop offset="0.3" stop-color="#F78F1E"/>
<stop offset="0.8" stop-color="#5A2E00"/>
</linearGradient>
<linearGradient id="paint78_linear_16331_132182" x1="585.099" y1="371.035" x2="676.732" y2="382.295" gradientUnits="userSpaceOnUse">
<stop stop-color="#FAF8D1"/>
<stop offset="1" stop-color="#FFC92F"/>
</linearGradient>
<linearGradient id="paint79_linear_16331_132182" x1="406.443" y1="333.302" x2="529.948" y2="348.541" gradientUnits="userSpaceOnUse">
<stop offset="0.3" stop-color="white"/>
<stop offset="1" stop-color="#00BBD7"/>
</linearGradient>
<linearGradient id="paint80_linear_16331_132182" x1="492.478" y1="499.727" x2="529.855" y2="504.179" gradientUnits="userSpaceOnUse">
<stop stop-color="#EC008C"/>
<stop offset="0.3" stop-color="#9F1F63"/>
<stop offset="0.6" stop-color="#B41F76"/>
<stop offset="0.9" stop-color="#9F1F63"/>
</linearGradient>
<linearGradient id="paint81_linear_16331_132182" x1="497.347" y1="500.233" x2="540.562" y2="505.459" gradientUnits="userSpaceOnUse">
<stop stop-color="#EC008C"/>
<stop offset="1" stop-color="#FCE3EE"/>
</linearGradient>
<linearGradient id="paint82_linear_16331_132182" x1="419.366" y1="497.742" x2="479.102" y2="514.196" gradientUnits="userSpaceOnUse">
<stop stop-color="#EC008C"/>
<stop offset="0.3" stop-color="#9F1F63"/>
<stop offset="0.6" stop-color="#B41F76"/>
<stop offset="0.9" stop-color="#9F1F63"/>
</linearGradient>
<linearGradient id="paint83_linear_16331_132182" x1="420.595" y1="493.281" x2="480.331" y2="509.735" gradientUnits="userSpaceOnUse">
<stop stop-color="#EC008C"/>
<stop offset="1" stop-color="#FCE3EE"/>
</linearGradient>
<linearGradient id="paint84_linear_16331_132182" x1="578.037" y1="421.674" x2="624.709" y2="427.226" gradientUnits="userSpaceOnUse">
<stop stop-color="#EC008C"/>
<stop offset="0.3" stop-color="#9F1F63"/>
<stop offset="0.6" stop-color="#B41F76"/>
<stop offset="0.9" stop-color="#9F1F63"/>
</linearGradient>
<linearGradient id="paint85_linear_16331_132182" x1="581.688" y1="422.053" x2="624.709" y2="427.226" gradientUnits="userSpaceOnUse">
<stop stop-color="#EC008C"/>
<stop offset="1" stop-color="#FCE3EE"/>
</linearGradient>
<linearGradient id="paint86_linear_16331_132182" x1="539.856" y1="393.629" x2="569.542" y2="397.215" gradientUnits="userSpaceOnUse">
<stop stop-color="#04838D"/>
<stop offset="0.6" stop-color="#00ABC2"/>
<stop offset="1" stop-color="#04838D"/>
</linearGradient>
<linearGradient id="paint87_linear_16331_132182" x1="544.416" y1="390.712" x2="569.815" y2="393.952" gradientUnits="userSpaceOnUse">
<stop stop-color="white"/>
<stop offset="0.4" stop-color="#F0F9FA"/>
<stop offset="0.8" stop-color="#00ABC1"/>
<stop offset="1" stop-color="#00BBD8"/>
</linearGradient>
<linearGradient id="paint88_linear_16331_132182" x1="68.5797" y1="485.702" x2="107.919" y2="465.439" gradientUnits="userSpaceOnUse">
<stop stop-color="#04838D"/>
<stop offset="0.6" stop-color="#00ABC2"/>
<stop offset="1" stop-color="#04838D"/>
</linearGradient>
<linearGradient id="paint89_linear_16331_132182" x1="72.8212" y1="480.44" x2="106.714" y2="463.397" gradientUnits="userSpaceOnUse">
<stop stop-color="white"/>
<stop offset="0.8" stop-color="#00ACC3"/>
<stop offset="1" stop-color="#00BBD7"/>
</linearGradient>
<linearGradient id="paint90_linear_16331_132182" x1="222.715" y1="495.146" x2="291.179" y2="514.004" gradientUnits="userSpaceOnUse">
<stop stop-color="#EC008C"/>
<stop offset="0.3" stop-color="#9F1F63"/>
<stop offset="0.6" stop-color="#B41F76"/>
<stop offset="0.9" stop-color="#9F1F63"/>
</linearGradient>
<linearGradient id="paint91_linear_16331_132182" x1="216.561" y1="497.791" x2="281.882" y2="508.175" gradientUnits="userSpaceOnUse">
<stop stop-color="#EC008C"/>
<stop offset="1" stop-color="#FCE3EE"/>
</linearGradient>
<linearGradient id="paint92_linear_16331_132182" x1="101.829" y1="391.498" x2="162.17" y2="398.938" gradientUnits="userSpaceOnUse">
<stop stop-color="#EC008C"/>
<stop offset="1" stop-color="#FCE3EE"/>
</linearGradient>
<linearGradient id="paint93_linear_16331_132182" x1="166.727" y1="411.945" x2="187.084" y2="424.999" gradientUnits="userSpaceOnUse">
<stop stop-color="#EC008C"/>
<stop offset="1" stop-color="#FCE3EE"/>
</linearGradient>
<linearGradient id="paint94_linear_16331_132182" x1="581.296" y1="151.515" x2="601.051" y2="154.036" gradientUnits="userSpaceOnUse">
<stop stop-color="#EC008C"/>
<stop offset="0.3" stop-color="#9F1F63"/>
<stop offset="0.6" stop-color="#B41F76"/>
<stop offset="0.9" stop-color="#9F1F63"/>
</linearGradient>
<linearGradient id="paint95_linear_16331_132182" x1="588.631" y1="146.858" x2="603.571" y2="148.678" gradientUnits="userSpaceOnUse">
<stop stop-color="white"/>
<stop offset="0.8" stop-color="#00ACC3"/>
<stop offset="1" stop-color="#00BBD7"/>
</linearGradient>
<linearGradient id="paint96_linear_16331_132182" x1="38.5398" y1="231.129" x2="63.7452" y2="234.316" gradientUnits="userSpaceOnUse">
<stop stop-color="white"/>
<stop offset="0.8" stop-color="#00ACC3"/>
<stop offset="1" stop-color="#00BBD7"/>
</linearGradient>
<linearGradient id="paint97_linear_16331_132182" x1="139.599" y1="338.467" x2="190.801" y2="352.571" gradientUnits="userSpaceOnUse">
<stop stop-color="#04838D"/>
<stop offset="0.6" stop-color="#00ABC2"/>
<stop offset="1" stop-color="#04838D"/>
</linearGradient>
<linearGradient id="paint98_linear_16331_132182" x1="139.132" y1="341.677" x2="193.829" y2="348.397" gradientUnits="userSpaceOnUse">
<stop stop-color="white"/>
<stop offset="0.8" stop-color="#00ACC3"/>
<stop offset="1" stop-color="#00BBD7"/>
</linearGradient>
<linearGradient id="paint99_linear_16331_132182" x1="193.914" y1="482.174" x2="218.158" y2="488.852" gradientUnits="userSpaceOnUse">
<stop stop-color="#EC008C"/>
<stop offset="0.3" stop-color="#9F1F63"/>
<stop offset="0.6" stop-color="#B41F76"/>
<stop offset="0.9" stop-color="#9F1F63"/>
</linearGradient>
<linearGradient id="paint100_linear_16331_132182" x1="194.623" y1="481.118" x2="218.029" y2="484.018" gradientUnits="userSpaceOnUse">
<stop stop-color="#EC008C"/>
<stop offset="1" stop-color="#FCE3EE"/>
</linearGradient>
<linearGradient id="paint101_linear_16331_132182" x1="239.701" y1="188.675" x2="291.329" y2="195.175" gradientUnits="userSpaceOnUse">
<stop stop-color="#00BBD8"/>
<stop offset="1" stop-color="white"/>
</linearGradient>
<linearGradient id="paint102_linear_16331_132182" x1="254.762" y1="299.598" x2="278.147" y2="282.997" gradientUnits="userSpaceOnUse">
<stop stop-color="white"/>
<stop offset="0.8" stop-color="#00ACC3"/>
<stop offset="1" stop-color="#00BBD7"/>
</linearGradient>
<linearGradient id="paint103_linear_16331_132182" x1="339.957" y1="313.319" x2="357.913" y2="315.553" gradientUnits="userSpaceOnUse">
<stop stop-color="white"/>
<stop offset="0.8" stop-color="#00ACC3"/>
<stop offset="1" stop-color="#00BBD7"/>
</linearGradient>
<linearGradient id="paint104_linear_16331_132182" x1="353.61" y1="287.241" x2="404.85" y2="293.634" gradientUnits="userSpaceOnUse">
<stop stop-color="white"/>
<stop offset="0.8" stop-color="#00ACC3"/>
<stop offset="1" stop-color="#00BBD7"/>
</linearGradient>
<linearGradient id="paint105_linear_16331_132182" x1="311.403" y1="538.95" x2="340.301" y2="546.91" gradientUnits="userSpaceOnUse">
<stop stop-color="#FAF8D1"/>
<stop offset="0.6" stop-color="#F78F1E"/>
<stop offset="1" stop-color="#824A00"/>
</linearGradient>
<linearGradient id="paint106_linear_16331_132182" x1="311.51" y1="538.562" x2="336.723" y2="545.507" gradientUnits="userSpaceOnUse">
<stop stop-color="#FAF8D1"/>
<stop offset="1" stop-color="#FFC92F"/>
</linearGradient>
<linearGradient id="paint107_linear_16331_132182" x1="428.357" y1="284.042" x2="488.482" y2="300.603" gradientUnits="userSpaceOnUse">
<stop stop-color="#005057"/>
<stop offset="0.5" stop-color="#9DDCF9"/>
<stop offset="1" stop-color="#005158"/>
</linearGradient>
<linearGradient id="paint108_linear_16331_132182" x1="425.745" y1="291.252" x2="487.11" y2="298.765" gradientUnits="userSpaceOnUse">
<stop stop-color="white"/>
<stop offset="0.8" stop-color="#00ACC3"/>
<stop offset="1" stop-color="#00BBD7"/>
</linearGradient>
</defs>
</svg>
