<svg width="603" height="602" viewBox="0 0 603 602" fill="none" xmlns="http://www.w3.org/2000/svg">
<g opacity="0.4">
<path d="M240.938 413.236C240.938 413.236 257.738 430.446 264.978 479.416C274.518 543.956 279.648 613.936 350.468 597.636C350.468 597.636 308.858 598.556 289.968 522.256C264.028 417.506 240.948 413.236 240.948 413.236H240.938Z" fill="url(#paint0_linear_16617_189966)"/>
<path d="M218.858 398.196C218.858 398.196 231.708 418.526 228.608 467.936C224.518 533.056 214.988 602.566 287.648 601.346C287.648 601.346 246.758 593.596 244.138 515.036C240.548 407.186 218.858 398.206 218.858 398.206V398.196Z" fill="url(#paint1_linear_16617_189966)"/>
<path d="M200.388 378.896C200.388 378.896 208.728 401.456 195.428 449.136C177.898 511.976 154.118 577.986 225.438 591.906C225.438 591.906 187.058 575.826 200.828 498.436C219.738 392.196 200.388 378.896 200.388 378.896Z" fill="url(#paint2_linear_16617_189966)"/>
<path d="M186.328 356.176C186.328 356.176 189.798 379.976 166.868 423.846C136.648 481.676 99.6682 541.296 166.538 569.736C166.538 569.736 132.338 546.026 161.898 473.186C202.478 373.196 186.318 356.166 186.318 356.166L186.328 356.176Z" fill="url(#paint3_linear_16617_189966)"/>
<path d="M177.308 331.026C177.308 331.026 175.758 355.026 144.208 393.176C102.628 443.456 54.0582 494.086 113.558 535.806C113.558 535.806 85.0382 505.506 129.098 440.406C189.588 351.036 177.318 331.026 177.318 331.026H177.308Z" fill="url(#paint4_linear_16617_189966)"/>
<path d="M173.708 304.556C173.708 304.556 167.198 327.706 128.408 358.466C77.2882 399.006 19.2482 438.426 68.7682 491.606C68.7682 491.606 47.1682 456.036 103.798 401.516C181.548 326.676 173.708 304.546 173.708 304.546V304.556Z" fill="url(#paint5_linear_16617_189966)"/>
<path d="M175.698 277.916C175.698 277.916 164.518 299.206 120.178 321.226C61.7382 350.246 -3.22179 376.746 34.1582 439.056C34.1582 439.056 20.4282 399.766 87.1582 358.226C178.768 301.186 175.698 277.916 175.698 277.916Z" fill="url(#paint6_linear_16617_189966)"/>
<path d="M183.178 252.266C183.178 252.266 167.818 270.776 119.868 283.086C56.6782 299.326 -12.3818 311.736 11.2282 380.456C11.2282 380.456 5.96822 339.176 79.8682 312.406C181.328 275.656 183.168 252.256 183.168 252.256L183.178 252.266Z" fill="url(#paint7_linear_16617_189966)"/>
<path d="M195.828 228.736C195.828 228.736 176.958 243.646 127.498 245.726C62.3082 248.466 -7.81179 246.256 0.988214 318.386C0.988214 318.386 4.41821 276.906 82.2782 266.096C189.168 251.246 195.828 228.736 195.828 228.736Z" fill="url(#paint8_linear_16617_189966)"/>
<path d="M213.088 208.356C213.088 208.356 191.528 219.016 142.718 210.766C78.3782 199.896 10.2482 183.146 3.86821 255.526C3.86821 255.526 15.8482 215.666 94.2582 221.276C201.898 228.976 213.098 208.346 213.098 208.346L213.088 208.356Z" fill="url(#paint9_linear_16617_189966)"/>
<path d="M234.218 191.996C234.218 191.996 210.908 197.936 164.878 179.726C104.208 155.716 41.0482 125.176 19.7482 194.646C19.7482 194.646 39.7582 158.156 115.278 179.936C218.958 209.846 234.208 191.996 234.208 191.996H234.218Z" fill="url(#paint10_linear_16617_189966)"/>
<path d="M258.278 180.396C258.278 180.396 234.248 181.366 193.008 153.976C138.658 117.876 83.2282 74.8658 47.9482 138.396C47.9482 138.396 75.1082 106.856 144.448 143.876C239.648 194.686 258.268 180.396 258.268 180.396H258.278Z" fill="url(#paint11_linear_16617_189966)"/>
<path d="M284.228 174.056C284.228 174.056 260.518 170.006 225.878 134.636C180.218 88.0258 134.938 34.4358 87.2282 89.2358C87.2282 89.2358 120.348 64.0358 180.488 114.656C263.038 184.156 284.228 174.046 284.228 174.046V174.056Z" fill="url(#paint12_linear_16617_189966)"/>
<path d="M310.938 173.236C310.938 173.236 288.588 164.346 262.058 122.546C227.088 67.4658 193.938 5.62584 135.878 49.3158C135.878 49.3158 173.518 31.5558 221.808 93.5758C288.108 178.716 310.938 173.236 310.938 173.236Z" fill="url(#paint13_linear_16617_189966)"/>
<path d="M337.218 177.996C337.218 177.996 317.208 164.656 299.948 118.256C277.198 57.1058 257.628 -10.2742 191.748 20.3958C191.748 20.3958 232.258 10.8458 266.598 81.5558C313.748 178.626 337.218 178.006 337.218 178.006V177.996Z" fill="url(#paint14_linear_16617_189966)"/>
<path d="M361.948 188.116C361.948 188.116 345.148 170.906 337.908 121.936C328.368 57.3958 323.238 -12.5842 252.418 3.71583C252.418 3.71583 294.028 2.79582 312.918 79.0958C338.858 183.846 361.938 188.116 361.938 188.116H361.948Z" fill="url(#paint15_linear_16617_189966)"/>
<path d="M384.028 203.156C384.028 203.156 371.178 182.826 374.278 133.416C378.358 68.3058 387.888 -1.20417 315.238 0.0158311C315.238 0.0158311 356.128 7.76584 358.748 86.3258C362.338 194.176 384.028 203.156 384.028 203.156Z" fill="url(#paint16_linear_16617_189966)"/>
<path d="M402.498 222.456C402.498 222.456 394.158 199.896 407.458 152.216C424.988 89.3758 448.768 23.3658 377.448 9.44583C377.448 9.44583 415.828 25.5258 402.058 102.916C383.148 209.156 402.498 222.456 402.498 222.456Z" fill="url(#paint17_linear_16617_189966)"/>
<path d="M416.548 245.176C416.548 245.176 413.078 221.376 436.008 177.506C466.228 119.676 503.208 60.0558 436.338 31.6158C436.338 31.6158 470.538 55.3258 440.978 128.166C400.398 228.156 416.558 245.186 416.558 245.186L416.548 245.176Z" fill="url(#paint18_linear_16617_189966)"/>
<path d="M425.568 270.326C425.568 270.326 427.118 246.326 458.668 208.176C500.248 157.896 548.818 107.266 489.318 65.5458C489.318 65.5458 517.838 95.8458 473.778 160.946C413.288 250.316 425.558 270.326 425.558 270.326H425.568Z" fill="url(#paint19_linear_16617_189966)"/>
<path d="M429.168 296.796C429.168 296.796 435.678 273.646 474.468 242.886C525.588 202.346 583.628 162.926 534.108 109.746C534.108 109.746 555.708 145.316 499.078 199.836C421.328 274.676 429.168 296.806 429.168 296.806V296.796Z" fill="url(#paint20_linear_16617_189966)"/>
<path d="M427.188 323.436C427.188 323.436 438.368 302.146 482.708 280.126C541.148 251.106 606.108 224.606 568.728 162.296C568.728 162.296 582.458 201.586 515.728 243.126C424.118 300.166 427.188 323.436 427.188 323.436Z" fill="url(#paint21_linear_16617_189966)"/>
<path d="M419.708 349.086C419.708 349.086 435.068 330.576 483.018 318.266C546.208 302.026 615.268 289.616 591.658 220.896C591.658 220.896 596.918 262.176 523.018 288.946C421.558 325.696 419.718 349.096 419.718 349.096L419.708 349.086Z" fill="url(#paint22_linear_16617_189966)"/>
<path d="M407.058 372.616C407.058 372.616 425.928 357.706 475.388 355.626C540.578 352.886 610.698 355.096 601.898 282.966C601.898 282.966 598.468 324.446 520.608 335.256C413.718 350.106 407.058 372.616 407.058 372.616Z" fill="url(#paint23_linear_16617_189966)"/>
<path d="M389.788 393.006C389.788 393.006 411.348 382.346 460.158 390.596C524.488 401.466 592.628 418.216 599.008 345.826C599.008 345.826 587.028 385.686 508.618 380.076C400.978 372.376 389.778 393.006 389.778 393.006H389.788Z" fill="url(#paint24_linear_16617_189966)"/>
<path d="M368.668 409.356C368.668 409.356 391.978 403.416 438.008 421.626C498.678 445.636 561.838 476.176 583.138 406.706C583.138 406.706 563.128 443.196 487.608 421.416C383.928 391.506 368.678 409.356 368.678 409.356H368.668Z" fill="url(#paint25_linear_16617_189966)"/>
<path d="M344.598 420.956C344.598 420.956 368.628 419.986 409.868 447.376C464.218 483.476 519.648 526.486 554.928 462.956C554.928 462.956 527.768 494.496 458.428 457.476C363.228 406.666 344.608 420.956 344.608 420.956H344.598Z" fill="url(#paint26_linear_16617_189966)"/>
<path d="M318.648 427.306C318.648 427.306 342.358 431.356 376.998 466.726C422.658 513.336 467.938 566.926 515.648 512.126C515.648 512.126 482.528 537.326 422.388 486.706C339.838 417.206 318.648 427.316 318.648 427.316V427.306Z" fill="url(#paint27_linear_16617_189966)"/>
<path d="M291.948 428.116C291.948 428.116 314.298 437.006 340.828 478.806C375.798 533.886 408.948 595.726 467.008 552.036C467.008 552.036 429.368 569.796 381.078 507.776C314.778 422.636 291.948 428.116 291.948 428.116Z" fill="url(#paint28_linear_16617_189966)"/>
<path d="M265.658 423.356C265.658 423.356 285.668 436.696 302.928 483.096C325.678 544.246 345.248 611.626 411.128 580.956C411.128 580.956 370.618 590.506 336.278 519.796C289.128 422.726 265.658 423.346 265.658 423.346V423.356Z" fill="url(#paint29_linear_16617_189966)"/>
</g>
<defs>
<linearGradient id="paint0_linear_16617_189966" x1="136.152" y1="792.97" x2="221.676" y2="39.0363" gradientUnits="userSpaceOnUse">
<stop offset="0.02" stop-color="#F78F1E"/>
<stop offset="0.38" stop-color="#EF2B6A"/>
<stop offset="0.55" stop-color="#EC008C"/>
<stop offset="0.64" stop-color="#DB088D"/>
<stop offset="0.81" stop-color="#B02091"/>
<stop offset="1" stop-color="#783E97"/>
</linearGradient>
<linearGradient id="paint1_linear_16617_189966" x1="256.24" y1="598.294" x2="267.896" y2="-91.648" gradientUnits="userSpaceOnUse">
<stop stop-color="#F78F1E"/>
<stop offset="0.37" stop-color="#EF2B6A"/>
<stop offset="0.55" stop-color="#EC008C"/>
<stop offset="0.61" stop-color="#DB088D"/>
<stop offset="0.74" stop-color="#B02091"/>
<stop offset="0.87" stop-color="#783E97"/>
</linearGradient>
<linearGradient id="paint2_linear_16617_189966" x1="191.368" y1="489.912" x2="238.258" y2="-193.718" gradientUnits="userSpaceOnUse">
<stop stop-color="#F78F1E"/>
<stop offset="0.3" stop-color="#EF2B6A"/>
<stop offset="0.45" stop-color="#EC008C"/>
<stop offset="0.53" stop-color="#DB088D"/>
<stop offset="0.69" stop-color="#B02091"/>
<stop offset="0.87" stop-color="#783E97"/>
</linearGradient>
<linearGradient id="paint3_linear_16617_189966" x1="53.0798" y1="450.911" x2="228.469" y2="-342.708" gradientUnits="userSpaceOnUse">
<stop stop-color="#F78F1E"/>
<stop offset="0.35" stop-color="#EF2B6A"/>
<stop offset="0.52" stop-color="#EC008C"/>
<stop offset="0.61" stop-color="#DB088D"/>
<stop offset="0.8" stop-color="#B02091"/>
<stop offset="1" stop-color="#783E97"/>
</linearGradient>
<linearGradient id="paint4_linear_16617_189966" x1="62.302" y1="409.906" x2="564.052" y2="-426.839" gradientUnits="userSpaceOnUse">
<stop offset="0.18" stop-color="#F78F1E"/>
<stop offset="0.43" stop-color="#EF2B6A"/>
<stop offset="0.55" stop-color="#EC008C"/>
<stop offset="0.61" stop-color="#DB088D"/>
<stop offset="0.74" stop-color="#B02091"/>
<stop offset="0.87" stop-color="#783E97"/>
</linearGradient>
<linearGradient id="paint5_linear_16617_189966" x1="219.198" y1="340.885" x2="1029.56" y2="-263.896" gradientUnits="userSpaceOnUse">
<stop stop-color="#F78F1E"/>
<stop offset="0.37" stop-color="#EF2B6A"/>
<stop offset="0.55" stop-color="#EC008C"/>
<stop offset="0.61" stop-color="#DB088D"/>
<stop offset="0.74" stop-color="#B02091"/>
<stop offset="0.87" stop-color="#783E97"/>
</linearGradient>
<linearGradient id="paint6_linear_16617_189966" x1="948.508" y1="1.87737" x2="146.324" y2="428.478" gradientUnits="userSpaceOnUse">
<stop stop-color="#EC008C"/>
<stop offset="0.33" stop-color="#EF2B6A"/>
<stop offset="1" stop-color="#F78F1E"/>
</linearGradient>
<linearGradient id="paint7_linear_16617_189966" x1="731.483" y1="29.7725" x2="-55.5725" y2="279.02" gradientUnits="userSpaceOnUse">
<stop stop-color="#EC008C"/>
<stop offset="0.09" stop-color="#EE2171"/>
<stop offset="0.2" stop-color="#F14358"/>
<stop offset="0.32" stop-color="#F35E42"/>
<stop offset="0.45" stop-color="#F47432"/>
<stop offset="0.59" stop-color="#F68326"/>
<stop offset="0.75" stop-color="#F68C20"/>
<stop offset="1" stop-color="#F78F1E"/>
</linearGradient>
<linearGradient id="paint8_linear_16617_189966" x1="488.985" y1="-383.797" x2="-385.203" y2="187.164" gradientUnits="userSpaceOnUse">
<stop stop-color="#EC008C"/>
<stop offset="0.07" stop-color="#ED1978"/>
<stop offset="0.2" stop-color="#F03D5C"/>
<stop offset="0.33" stop-color="#F35B45"/>
<stop offset="0.47" stop-color="#F47234"/>
<stop offset="0.62" stop-color="#F68227"/>
<stop offset="0.78" stop-color="#F68B20"/>
<stop offset="1" stop-color="#F78F1E"/>
</linearGradient>
<linearGradient id="paint9_linear_16617_189966" x1="532.824" y1="-620.621" x2="-331.449" y2="-410.922" gradientUnits="userSpaceOnUse">
<stop stop-color="#EC008C"/>
<stop offset="0.04" stop-color="#ED1878"/>
<stop offset="0.1" stop-color="#F03860"/>
<stop offset="0.16" stop-color="#F2534B"/>
<stop offset="0.24" stop-color="#F4693A"/>
<stop offset="0.32" stop-color="#F57A2D"/>
<stop offset="0.43" stop-color="#F68624"/>
<stop offset="0.58" stop-color="#F68D1F"/>
<stop offset="1" stop-color="#F78F1E"/>
</linearGradient>
<linearGradient id="paint10_linear_16617_189966" x1="573.05" y1="-360.957" x2="-177.092" y2="-265.803" gradientUnits="userSpaceOnUse">
<stop stop-color="#EC008C"/>
<stop offset="0.04" stop-color="#ED1878"/>
<stop offset="0.1" stop-color="#F03860"/>
<stop offset="0.16" stop-color="#F2534B"/>
<stop offset="0.24" stop-color="#F4693A"/>
<stop offset="0.32" stop-color="#F57A2D"/>
<stop offset="0.43" stop-color="#F68624"/>
<stop offset="0.58" stop-color="#F68D1F"/>
<stop offset="1" stop-color="#F78F1E"/>
</linearGradient>
<linearGradient id="paint11_linear_16617_189966" x1="875.715" y1="-196.584" x2="181.548" y2="-110.176" gradientUnits="userSpaceOnUse">
<stop stop-color="#783E97"/>
<stop offset="0.19" stop-color="#B02091"/>
<stop offset="0.36" stop-color="#DB088D"/>
<stop offset="0.44" stop-color="#EC008C"/>
<stop offset="0.62" stop-color="#EF2B6A"/>
<stop offset="1" stop-color="#F78F1E"/>
</linearGradient>
<linearGradient id="paint12_linear_16617_189966" x1="781.471" y1="-228.266" x2="27.6437" y2="49.026" gradientUnits="userSpaceOnUse">
<stop stop-color="#783E97"/>
<stop offset="0.19" stop-color="#B02091"/>
<stop offset="0.36" stop-color="#DB088D"/>
<stop offset="0.45" stop-color="#EC008C"/>
<stop offset="0.63" stop-color="#EF2B6A"/>
<stop offset="1" stop-color="#F78F1E"/>
</linearGradient>
<linearGradient id="paint13_linear_16617_189966" x1="294.414" y1="498.16" x2="372.989" y2="-506.793" gradientUnits="userSpaceOnUse">
<stop stop-color="#F78F1E"/>
<stop offset="0.38" stop-color="#EF2B6A"/>
<stop offset="0.56" stop-color="#EC008C"/>
<stop offset="0.64" stop-color="#DB088D"/>
<stop offset="0.81" stop-color="#B02091"/>
<stop offset="1" stop-color="#783E97"/>
</linearGradient>
<linearGradient id="paint14_linear_16617_189966" x1="298.753" y1="426.708" x2="323.197" y2="-420.402" gradientUnits="userSpaceOnUse">
<stop stop-color="#F78F1E"/>
<stop offset="0.23" stop-color="#EF2B6A"/>
<stop offset="0.34" stop-color="#EC008C"/>
<stop offset="0.44" stop-color="#DB088D"/>
<stop offset="0.64" stop-color="#B02091"/>
<stop offset="0.87" stop-color="#783E97"/>
</linearGradient>
<linearGradient id="paint15_linear_16617_189966" x1="258.696" y1="603.261" x2="297.158" y2="-147.3" gradientUnits="userSpaceOnUse">
<stop stop-color="#F68D1F"/>
<stop offset="0.18" stop-color="#F35B45"/>
<stop offset="0.35" stop-color="#EF3364"/>
<stop offset="0.5" stop-color="#ED177A"/>
<stop offset="0.64" stop-color="#EC0687"/>
<stop offset="0.74" stop-color="#EC008C"/>
<stop offset="0.79" stop-color="#DB088D"/>
<stop offset="0.89" stop-color="#B02091"/>
<stop offset="1" stop-color="#783E97"/>
</linearGradient>
<linearGradient id="paint16_linear_16617_189966" x1="148.881" y1="723.074" x2="178.056" y2="29.6958" gradientUnits="userSpaceOnUse">
<stop stop-color="#F78F1E"/>
<stop offset="0.09" stop-color="#F57A2D"/>
<stop offset="0.29" stop-color="#F24F4F"/>
<stop offset="0.49" stop-color="#EF2C69"/>
<stop offset="0.68" stop-color="#ED147C"/>
<stop offset="0.86" stop-color="#EC0588"/>
<stop offset="1" stop-color="#EC008C"/>
</linearGradient>
<linearGradient id="paint17_linear_16617_189966" x1="248.433" y1="284.48" x2="112.521" y2="-514.367" gradientUnits="userSpaceOnUse">
<stop stop-color="#EC008C"/>
<stop offset="0.44" stop-color="#EA018C"/>
<stop offset="0.59" stop-color="#E3048C"/>
<stop offset="0.71" stop-color="#D70A8D"/>
<stop offset="0.8" stop-color="#C6138F"/>
<stop offset="0.87" stop-color="#B01F91"/>
<stop offset="0.94" stop-color="#962D94"/>
<stop offset="1" stop-color="#783E97"/>
</linearGradient>
<linearGradient id="paint18_linear_16617_189966" x1="-75.8056" y1="518.998" x2="-13.4982" y2="-164.289" gradientUnits="userSpaceOnUse">
<stop stop-color="#EC008C"/>
<stop offset="0.22" stop-color="#E9018C"/>
<stop offset="0.38" stop-color="#DF068D"/>
<stop offset="0.51" stop-color="#D00E8E"/>
<stop offset="0.64" stop-color="#BA1A90"/>
<stop offset="0.75" stop-color="#9D2993"/>
<stop offset="0.86" stop-color="#7B3C96"/>
<stop offset="0.87" stop-color="#783E97"/>
</linearGradient>
<linearGradient id="paint19_linear_16617_189966" x1="78.4605" y1="506.657" x2="229.939" y2="-215.693" gradientUnits="userSpaceOnUse">
<stop stop-color="#EC008C"/>
<stop offset="0.17" stop-color="#DB088D"/>
<stop offset="0.5" stop-color="#B02091"/>
<stop offset="0.87" stop-color="#783E97"/>
</linearGradient>
<linearGradient id="paint20_linear_16617_189966" x1="59.977" y1="563.813" x2="405.854" y2="-188.685" gradientUnits="userSpaceOnUse">
<stop stop-color="#EC008C"/>
<stop offset="0.23" stop-color="#C5148F"/>
<stop offset="0.51" stop-color="#9B2A93"/>
<stop offset="0.74" stop-color="#813896"/>
<stop offset="0.87" stop-color="#783E97"/>
</linearGradient>
<linearGradient id="paint21_linear_16617_189966" x1="48.0518" y1="547.699" x2="703.965" y2="-63.2271" gradientUnits="userSpaceOnUse">
<stop stop-color="#EC008C"/>
<stop offset="0.04" stop-color="#E0058D"/>
<stop offset="0.21" stop-color="#BB1990"/>
<stop offset="0.38" stop-color="#9D2993"/>
<stop offset="0.55" stop-color="#883495"/>
<stop offset="0.72" stop-color="#7C3B96"/>
<stop offset="0.87" stop-color="#783E97"/>
</linearGradient>
<linearGradient id="paint22_linear_16617_189966" x1="-5.285" y1="504.22" x2="781.316" y2="248.603" gradientUnits="userSpaceOnUse">
<stop stop-color="#EC008C"/>
<stop offset="0.1" stop-color="#CF0F8E"/>
<stop offset="0.24" stop-color="#B01F91"/>
<stop offset="0.38" stop-color="#972D94"/>
<stop offset="0.53" stop-color="#853695"/>
<stop offset="0.69" stop-color="#7B3C96"/>
<stop offset="0.87" stop-color="#783E97"/>
</linearGradient>
<linearGradient id="paint23_linear_16617_189966" x1="-73.3614" y1="414.656" x2="647.851" y2="368.336" gradientUnits="userSpaceOnUse">
<stop stop-color="#EC008C"/>
<stop offset="0.05" stop-color="#CD108E"/>
<stop offset="0.11" stop-color="#B31E91"/>
<stop offset="0.18" stop-color="#9D2A93"/>
<stop offset="0.26" stop-color="#8C3395"/>
<stop offset="0.35" stop-color="#803996"/>
<stop offset="0.49" stop-color="#793C96"/>
<stop offset="0.87" stop-color="#783E97"/>
</linearGradient>
<linearGradient id="paint24_linear_16617_189966" x1="-85.802" y1="29.5533" x2="591.588" y2="57.0374" gradientUnits="userSpaceOnUse">
<stop stop-color="#EC008C"/>
<stop offset="0.05" stop-color="#CD108E"/>
<stop offset="0.11" stop-color="#B31E91"/>
<stop offset="0.18" stop-color="#9D2A93"/>
<stop offset="0.26" stop-color="#8C3395"/>
<stop offset="0.35" stop-color="#803996"/>
<stop offset="0.49" stop-color="#793C96"/>
<stop offset="0.87" stop-color="#783E97"/>
</linearGradient>
<linearGradient id="paint25_linear_16617_189966" x1="744.837" y1="996.97" x2="33.6588" y2="928.867" gradientUnits="userSpaceOnUse">
<stop stop-color="#EA008C"/>
<stop offset="0.22" stop-color="#C1168F"/>
<stop offset="0.44" stop-color="#A12793"/>
<stop offset="0.64" stop-color="#8A3495"/>
<stop offset="0.83" stop-color="#7C3B96"/>
<stop offset="1" stop-color="#783E97"/>
</linearGradient>
<linearGradient id="paint26_linear_16617_189966" x1="698.579" y1="663.29" x2="-2.24786" y2="565.301" gradientUnits="userSpaceOnUse">
<stop stop-color="#EC008C"/>
<stop offset="0.06" stop-color="#E3048C"/>
<stop offset="0.5" stop-color="#A92392"/>
<stop offset="0.83" stop-color="#853695"/>
<stop offset="1" stop-color="#783E97"/>
</linearGradient>
<linearGradient id="paint27_linear_16617_189966" x1="615.921" y1="650.084" x2="-116.322" y2="401.776" gradientUnits="userSpaceOnUse">
<stop stop-color="#EC008C"/>
<stop offset="0.32" stop-color="#CA118F"/>
<stop offset="1" stop-color="#783E97"/>
</linearGradient>
<linearGradient id="paint28_linear_16617_189966" x1="435.531" y1="576.237" x2="-103.359" y2="-202.279" gradientUnits="userSpaceOnUse">
<stop stop-color="#EC008C"/>
<stop offset="0.15" stop-color="#E5038C"/>
<stop offset="0.36" stop-color="#D40C8E"/>
<stop offset="0.6" stop-color="#B81B90"/>
<stop offset="0.85" stop-color="#913094"/>
<stop offset="1" stop-color="#783E97"/>
</linearGradient>
<linearGradient id="paint29_linear_16617_189966" x1="371.743" y1="582.82" x2="282.674" y2="367.663" gradientUnits="userSpaceOnUse">
<stop stop-color="#EC008C"/>
<stop offset="0.31" stop-color="#EA018C"/>
<stop offset="0.43" stop-color="#E3048C"/>
<stop offset="0.51" stop-color="#D70A8D"/>
<stop offset="0.57" stop-color="#C6138F"/>
<stop offset="0.63" stop-color="#B01F91"/>
<stop offset="0.68" stop-color="#962D94"/>
<stop offset="0.72" stop-color="#783E97"/>
</linearGradient>
</defs>
</svg>
