<svg viewBox="0 0 69 69" fill="none" xmlns="http://www.w3.org/2000/svg">
<path d="M44.39 39.698C40.48 38.893 36.547 38.249 32.637 37.559C32.131 37.467 32.016 37.283 32.016 36.823C32.039 35.972 31.993 35.144 32.039 34.293C32.062 33.994 32.246 33.603 32.499 33.442C34.845 31.694 36.8 29.601 37.858 26.887C38.525 25.185 39.422 24.219 41.239 23.805C42.688 23.483 43.447 22.31 43.608 20.838C43.769 19.136 43.539 17.549 41.86 16.583C41.469 16.353 41.009 16.261 40.572 16.146C40.273 16.077 39.951 16.077 39.583 16.031C39.583 15.755 39.583 15.502 39.583 15.226C39.583 13.455 39.606 11.661 39.56 9.89003C39.445 5.33603 35.926 1.24203 31.395 0.73603C28.957 0.46003 26.45 0.57503 23.989 0.57503C19.596 0.59803 15.709 3.68003 14.789 7.98103C14.467 9.43003 14.536 10.994 14.49 12.489C14.444 13.662 14.49 14.835 14.49 16.008C14.145 16.031 13.892 16.054 13.616 16.1C12.075 16.261 10.879 17.296 10.557 18.814C10.442 19.366 10.442 19.964 10.465 20.539C10.488 22.034 11.385 23.276 12.788 23.782C13.409 24.012 14.099 24.15 14.697 24.403C14.996 24.541 15.341 24.84 15.433 25.139C16.652 28.52 18.699 31.257 21.597 33.396C21.827 33.557 22.011 33.925 22.034 34.201C22.08 35.052 22.034 35.926 22.057 36.8C22.08 37.283 21.919 37.444 21.436 37.536C17.963 38.134 14.49 38.87 11.017 39.353C5.98 40.043 3.427 43.907 3.519 48.185C3.657 54.395 3.565 60.582 3.565 66.792C3.565 66.999 3.542 67.229 3.588 67.436C3.68 68.011 4.002 68.356 4.6 68.356C5.175 68.356 5.52 67.988 5.589 67.413C5.612 67.229 5.589 67.022 5.589 66.838C5.589 64.285 5.589 61.732 5.589 59.202C5.589 58.949 5.589 58.696 5.589 58.466C7.659 58.466 9.637 58.466 11.638 58.466C11.638 58.765 11.638 59.018 11.638 59.294C11.638 61.893 11.638 64.492 11.638 67.091C11.638 67.919 12.006 68.402 12.627 68.402C13.248 68.402 13.639 67.919 13.639 67.114C13.639 63.986 13.639 60.858 13.639 57.73C13.639 56.741 13.317 56.419 12.282 56.419C10.304 56.419 8.349 56.419 6.371 56.419C6.118 56.419 5.865 56.419 5.612 56.419C5.589 56.235 5.566 56.166 5.566 56.097C5.566 53.153 5.543 50.232 5.566 47.288C5.589 44.436 7.613 42.09 10.419 41.561C11.684 41.331 12.972 41.101 14.237 40.871C15.456 40.664 16.675 40.457 17.94 40.227C18.791 42.274 19.642 44.252 20.47 46.253C21.252 48.139 21.574 48.231 23.207 47.012C24.127 46.322 25.024 45.655 26.036 44.896C26.036 47.081 26.036 49.082 26.036 51.106C26.036 51.336 26.036 51.589 26.036 51.819C26.059 52.486 26.45 52.923 27.025 52.946C27.623 52.969 28.06 52.509 28.06 51.819C28.083 49.749 28.06 47.679 28.06 45.609C28.06 45.402 28.083 45.218 28.106 44.942C29.233 45.77 30.268 46.552 31.303 47.334C32.338 48.116 32.89 47.955 33.396 46.782C34.247 44.781 35.075 42.803 35.903 40.802C36.064 40.388 36.271 40.204 36.754 40.319C38.985 40.756 41.239 41.124 43.493 41.561C46.644 42.159 48.53 44.436 48.553 47.633C48.553 50.324 48.553 53.015 48.553 55.706C48.553 55.936 48.53 56.166 48.507 56.442C46.207 56.442 43.976 56.442 41.745 56.442C40.825 56.442 40.48 56.787 40.48 57.707C40.48 60.858 40.48 64.009 40.48 67.16C40.48 67.965 40.871 68.448 41.515 68.448C42.113 68.425 42.504 67.965 42.504 67.183C42.504 64.561 42.504 61.939 42.504 59.317C42.504 59.064 42.504 58.811 42.504 58.512C44.528 58.512 46.506 58.512 48.553 58.512C48.553 58.834 48.553 59.087 48.553 59.34C48.553 61.962 48.553 64.584 48.553 67.206C48.553 67.965 48.944 68.448 49.565 68.448C50.186 68.448 50.577 67.988 50.577 67.206C50.577 60.559 50.6 53.935 50.577 47.288C50.508 43.585 47.978 40.434 44.39 39.698ZM39.606 18.193C40.687 18.055 41.469 18.492 41.538 19.412C41.653 20.976 41.722 21.85 39.422 22.241C39.491 20.884 39.56 19.573 39.606 18.193ZM12.443 19.596C12.512 18.584 13.179 18.101 14.398 18.17C14.467 19.504 14.536 20.861 14.582 22.218C12.834 22.011 12.328 21.367 12.443 19.596ZM20.976 3.31203C21.689 2.99003 22.494 2.69103 23.253 2.69103C25.898 2.64503 28.543 2.50703 31.165 2.78303C34.615 3.15103 37.283 6.21003 37.513 9.68303C37.559 10.511 37.513 11.362 37.513 12.259C30.475 10.925 23.506 10.902 16.537 12.259C15.985 8.23403 17.664 4.80703 20.976 3.31203ZM37.421 14.329C37.03 15.364 36.386 15.916 35.397 16.054C35.167 16.1 34.914 16.1 34.684 16.1C29.578 16.1 24.449 16.1 19.343 16.1C17.871 16.1 17.043 15.548 16.675 14.329C23.552 12.926 30.429 12.926 37.421 14.329ZM16.491 19.665C16.468 18.998 16.491 18.331 16.491 17.641C16.491 17.595 16.514 17.572 16.583 17.434C17.986 18.331 19.573 18.101 21.114 18.101C25.438 18.124 29.762 18.101 34.086 18.101C35.236 18.101 36.386 18.078 37.628 17.296C37.536 18.952 37.582 20.447 37.352 21.873C36.662 26.22 34.431 29.647 30.797 32.108C28.428 33.718 25.668 33.741 23.299 32.131C18.906 29.164 16.652 24.978 16.491 19.665ZM22.195 45.218C21.436 43.401 20.7 41.676 19.941 39.859C20.769 39.698 21.528 39.537 22.31 39.445C22.471 39.422 22.747 39.514 22.862 39.652C23.736 40.641 24.61 41.63 25.53 42.711C24.426 43.562 23.345 44.367 22.195 45.218ZM27.025 41.354C26.45 40.71 25.99 39.997 25.369 39.468C23.851 38.249 23.897 36.639 24.127 34.868C26.082 35.489 27.991 35.535 29.992 34.822C29.992 35.903 29.992 36.846 29.992 37.789C29.992 37.904 29.877 38.042 29.785 38.157C28.888 39.192 27.991 40.227 27.025 41.354ZM31.832 45.218C30.682 44.367 29.624 43.585 28.497 42.734C29.44 41.63 30.36 40.572 31.303 39.537C31.395 39.445 31.625 39.445 31.763 39.468C32.522 39.606 33.281 39.744 34.086 39.905C33.35 41.653 32.614 43.401 31.832 45.218Z" fill="#00BBD6"/>
<path d="M65.527 4.36999C65.527 2.96699 64.906 2.00099 63.618 1.44899C61.157 0.367989 58.65 0.298989 56.12 1.28799C54.372 1.95499 53.843 2.75999 53.843 4.59999C53.843 12.42 53.843 20.217 53.843 28.037C53.843 33.166 53.866 38.272 53.82 43.401C53.82 44.206 54.05 44.712 54.878 44.942C55.338 45.057 55.729 45.356 56.143 45.609C56.672 45.931 56.902 46.345 56.902 47.012C56.856 51.911 56.879 56.833 56.879 61.732C56.879 62.146 56.741 62.376 56.442 62.698C56.051 63.089 55.706 63.664 55.614 64.216C55.476 64.929 55.545 65.711 55.591 66.447C55.66 67.597 56.534 68.402 57.684 68.425C58.995 68.448 60.329 68.471 61.64 68.402C62.1 68.379 62.652 68.172 63.02 67.873C64.17 66.93 64.124 63.618 62.928 62.744C62.514 62.445 62.422 62.123 62.422 61.663C62.422 56.925 62.468 52.187 62.399 47.449C62.376 46.276 62.882 45.678 63.802 45.218C63.986 45.126 64.193 45.034 64.4 44.965C65.435 44.574 65.504 44.459 65.504 43.332C65.504 36.869 65.504 30.406 65.504 23.92C65.527 17.388 65.527 10.879 65.527 4.36999ZM56.718 3.19699C58.765 2.39199 60.789 2.41499 62.813 3.26599C63.273 3.47299 63.526 3.77199 63.526 4.30099C63.503 8.14199 63.526 11.983 63.526 15.824C63.526 15.916 63.503 16.008 63.48 16.169C62.491 15.663 61.548 15.203 60.651 14.674C60.007 14.306 59.432 14.26 58.765 14.651C57.868 15.18 56.902 15.64 55.89 16.169C55.867 15.893 55.867 15.686 55.867 15.479C55.867 11.799 55.89 8.11899 55.844 4.46199C55.844 3.81799 56.097 3.44999 56.718 3.19699ZM63.503 20.654C62.445 20.102 61.456 19.596 60.49 19.067C59.938 18.745 59.432 18.722 58.88 19.067C57.937 19.619 56.948 20.102 55.844 20.654C55.844 19.964 55.821 19.366 55.867 18.791C55.89 18.63 56.074 18.423 56.235 18.331C57.27 17.756 58.305 17.204 59.34 16.698C59.524 16.606 59.846 16.629 60.053 16.721C61.088 17.227 62.1 17.756 63.112 18.331C63.273 18.423 63.48 18.653 63.48 18.837C63.549 19.389 63.503 19.964 63.503 20.654ZM61.709 66.332C60.352 66.332 58.995 66.332 57.638 66.332C57.638 65.619 57.638 64.998 57.638 64.262C58.328 64.262 58.995 64.262 59.662 64.262C60.329 64.262 60.996 64.262 61.709 64.262C61.709 64.952 61.709 65.619 61.709 66.332ZM58.972 62.169C58.972 57.109 58.972 52.049 58.972 46.966C59.455 46.966 59.892 46.966 60.398 46.966C60.398 52.026 60.398 57.063 60.398 62.169C59.938 62.169 59.478 62.169 58.972 62.169ZM62.997 43.378C62.537 43.608 62.031 43.815 61.732 44.183C60.812 45.287 59.616 44.781 58.512 44.85C58.374 44.85 58.213 44.643 58.052 44.528C57.546 44.16 57.086 43.723 56.534 43.47C55.982 43.217 55.844 42.918 55.844 42.32C55.867 39.215 55.867 36.11 55.867 33.028C55.867 29.9 55.89 26.772 55.844 23.644C55.844 23.115 55.959 22.816 56.465 22.586C57.408 22.149 58.305 21.666 59.202 21.16C59.547 20.953 59.823 20.976 60.191 21.16C61.111 21.666 62.054 22.172 62.997 22.632C63.365 22.816 63.526 23.023 63.526 23.46C63.503 29.831 63.503 36.202 63.526 42.573C63.526 43.01 63.365 43.194 62.997 43.378Z" fill="#00BBD6"/>
<path d="M27.025 9.98198C28.704 9.95898 30.038 8.60198 30.038 6.94598C30.038 5.28998 28.658 3.93298 27.002 3.93298C25.346 3.95598 23.989 5.31298 23.989 6.99198C23.989 8.62498 25.369 9.98198 27.025 9.98198ZM26.013 6.89998C26.036 6.37098 26.542 5.91098 27.071 5.95698C27.6 5.97998 28.06 6.48598 28.014 7.01498C27.968 7.56698 27.485 7.98098 26.956 7.95798C26.427 7.91198 25.99 7.42898 26.013 6.89998Z" fill="#00BBD6"/>
<defs>
<linearGradient id="paint0_linear_167_31328" x1="28.9189" y1="64.2988" x2="28.9189" y2="0.928451" gradientUnits="userSpaceOnUse">
<stop stop-color="#3D2876"/>
<stop offset="0.5" stop-color="#755AB8"/>
<stop offset="1" stop-color="#B79DF6"/>
</linearGradient>
<linearGradient id="paint1_linear_167_31328" x1="60.1378" y1="64.3011" x2="60.1379" y2="0.966811" gradientUnits="userSpaceOnUse">
<stop stop-color="#3D2876"/>
<stop offset="0.5" stop-color="#755AB8"/>
<stop offset="1" stop-color="#B79DF6"/>
</linearGradient>
<linearGradient id="paint2_linear_167_31328" x1="27.2534" y1="9.61232" x2="27.2534" y2="3.96659" gradientUnits="userSpaceOnUse">
<stop stop-color="#3D2876"/>
<stop offset="0.5" stop-color="#755AB8"/>
<stop offset="1" stop-color="#B79DF6"/>
</linearGradient>
</defs>
</svg>
