<svg width="727" height="646" viewBox="0 0 727 646" fill="none" xmlns="http://www.w3.org/2000/svg">
<g opacity="0.1">
<path d="M182.394 437.597L79.7433 476.28L56.62 468.5L57.0522 455.534L138.092 436.732L182.394 437.597Z" fill="url(#paint0_linear_54582_260982)"/>
<path d="M120.588 431.762L57.0528 455.533L79.3117 468.284L182.394 437.597L120.588 431.762Z" fill="url(#paint1_linear_54582_260982)"/>
<path d="M319.188 346.616L288.501 404.1L322.214 458.343L323.51 449.483L319.188 346.616Z" fill="url(#paint2_linear_54582_260982)"/>
<path d="M290.878 414.905L288.717 430.249L282.666 466.771L256.301 460.071L258.679 455.101L280.938 428.736L290.878 414.905Z" fill="url(#paint3_linear_54582_260982)"/>
<path d="M396.986 414.041L394.177 428.52L402.821 460.72L399.363 478.441L422.703 568.557L481.7 503.077L486.022 490.759L396.986 414.041Z" fill="url(#paint4_linear_54582_260982)"/>
<path d="M433.508 389.837L426.16 391.782L430.05 416.418L380.13 360.879L381.643 357.421L389.855 356.557L431.779 382.489L433.508 389.837Z" fill="url(#paint5_linear_54582_260982)"/>
<path d="M409.088 337.107L412.762 348.561L452.525 399.994L447.123 413.393L447.555 425.927L468.301 449.05L541.129 423.982L540.048 419.876L409.088 337.107Z" fill="url(#paint6_linear_54582_260982)"/>
<path d="M380.779 302.53L387.91 321.764L435.238 315.281L410.602 302.962L380.779 302.53Z" fill="url(#paint7_linear_54582_260982)"/>
<path d="M204.004 436.083L161.215 455.533L163.16 465.473L191.47 471.957L184.554 461.367L204.004 436.083Z" fill="url(#paint8_linear_54582_260982)"/>
<path d="M197.089 216.521L193.847 222.571L278.128 279.84L290.447 282.217L288.502 271.195L226.695 227.11L197.089 216.521Z" fill="url(#paint9_linear_54582_260982)"/>
<path d="M269.484 176.109L266.243 173.516L251.115 185.185L309.68 236.186L269.484 176.109Z" fill="url(#paint10_linear_54582_260982)"/>
<path d="M503.742 1.0625L495.746 5.38462L494.882 37.3683L507.2 81.0217L510.874 39.7454L503.742 1.0625Z" fill="url(#paint11_linear_54582_260982)"/>
<path d="M202.059 348.128L193.415 359.15L211.135 388.108L283.099 333.649L202.059 348.128Z" fill="url(#paint12_linear_54582_260982)"/>
<path d="M93.7901 337.324L93.1418 344.887L168.563 354.18L189.741 328.031L93.7901 337.324Z" fill="url(#paint13_linear_54582_260982)"/>
<path d="M108.917 428.52L107.62 435.436L127.07 448.402L176.99 407.126L108.917 428.52Z" fill="url(#paint14_linear_54582_260982)"/>
<path d="M372.351 224.948L362.41 214.359L429.619 46.2285L432.86 52.9278L379.05 223.867L372.351 224.948Z" fill="url(#paint15_linear_54582_260982)"/>
<path d="M363.274 212.847L362.626 65.4625L428.322 49.4707L372.351 224.949L363.274 212.847Z" fill="url(#paint16_linear_54582_260982)"/>
<path d="M429.619 46.0127L372.567 225.597L362.626 214.359V64.8139C362.41 64.8139 429.835 46.2288 429.835 46.2288L429.619 46.0127ZM371.918 223.868L427.025 52.4959L362.842 66.1105L363.922 211.334L371.918 224.084V223.868Z" fill="url(#paint17_linear_54582_260982)"/>
<path d="M297.578 126.188L294.12 127.268L264.082 42.3389L269.268 42.555L307.735 79.5091L297.578 126.188Z" fill="url(#paint18_linear_54582_260982)"/>
<path d="M293.904 126.188L264.946 43.6357L303.413 79.9415L293.904 126.188Z" fill="url(#paint19_linear_54582_260982)"/>
<path d="M294.985 136.561L299.307 131.807L335.829 232.08L331.074 236.402L292.175 180.43L294.985 136.561Z" fill="#187572"/>
<path d="M299.74 132.671L322.864 156.443L334.966 230.351L297.147 175.676L299.74 132.671Z" fill="url(#paint20_linear_54582_260982)"/>
<path opacity="0.4" d="M300.389 134.184L322.432 156.659L334.318 228.406L300.389 134.184Z" fill="#04838D"/>
<path d="M335.829 232.296L296.93 176.108L299.524 131.807L323.295 156.01L335.829 232.296ZM297.579 175.46L334.317 228.406L322.431 156.659L299.956 133.752L297.579 175.46Z" fill="#7AD0E5"/>
<path d="M501.365 90.3146L416.652 208.308L412.762 203.554L471.543 80.5898L501.365 90.3146Z" fill="url(#paint21_linear_54582_260982)"/>
<path d="M501.366 90.3154L416.653 208.309L475.433 85.1289L501.366 90.3154Z" fill="url(#paint22_linear_54582_260982)"/>
<path d="M206.813 110.845L208.326 91.8277L210.487 87.7217L246.577 98.527L266.459 146.286L264.946 151.473L254.573 154.714L206.813 110.845Z" fill="url(#paint23_linear_54582_260982)"/>
<path d="M208.975 106.955L210.488 87.7214L223.67 73.8906L248.522 94.2046L266.459 146.286L255.87 149.744L208.975 106.955Z" fill="url(#paint24_linear_54582_260982)"/>
<path d="M210.271 87.7214L223.453 73.8906L248.522 94.2046L266.458 146.502L255.653 149.96L208.758 107.171L210.055 87.5053L210.271 87.7214ZM266.458 146.286L248.522 94.6368L223.669 74.3228L210.703 87.9375L209.406 106.955L256.085 149.528L266.458 146.07V146.286Z" fill="#E44F9C"/>
<path d="M266.674 146.286V146.502C264.297 147.366 261.704 148.231 259.327 148.879C261.056 148.015 263 147.366 264.729 146.718C265.378 146.718 265.81 146.286 266.458 146.07L260.839 129.43L266.674 146.286Z" fill="url(#paint25_linear_54582_260982)"/>
<path d="M457.928 85.7758L470.894 17.9185L474.784 17.4863L470.246 62.8685L461.386 86.4241L457.928 85.7758Z" fill="url(#paint26_linear_54582_260982)"/>
<path d="M495.747 52.28L479.106 48.8223L474.784 19.2158L461.818 85.3442L495.747 52.28Z" fill="url(#paint27_linear_54582_260982)"/>
<path d="M474.784 17.4863L479.323 48.6056L496.179 52.2794L461.17 86.4241L474.568 17.4863H474.784ZM478.891 49.2539L474.784 21.3762L462.466 84.6952L495.098 52.7116L478.891 49.2539Z" fill="#E074AE"/>
<path d="M135.066 127.917L121.451 128.998L87.3065 157.091L169.427 191.668L185.851 192.965L137.443 154.066L135.066 127.917Z" fill="url(#paint28_linear_54582_260982)"/>
<path d="M135.065 127.917L104.594 161.846L185.85 192.965L135.065 127.917Z" fill="url(#paint29_linear_54582_260982)"/>
<path d="M207.029 38.6654L200.114 29.805L173.749 22.8896L179.151 68.2719L167.482 79.5094L168.994 87.7214L229.72 146.286L206.813 56.386L207.029 38.6654Z" fill="url(#paint30_linear_54582_260982)"/>
<path d="M172.237 83.8316L229.721 146.286L207.03 38.6654L181.745 25.0508L182.826 70.0008L172.237 83.8316Z" fill="url(#paint31_linear_54582_260982)"/>
<path d="M544.586 168.112L543.073 171.786L553.446 187.994L590.4 159.684L568.142 106.738L544.586 168.112Z" fill="url(#paint32_linear_54582_260982)"/>
<path d="M568.141 106.738L544.586 168.112L555.175 182.375L590.4 159.684L568.141 106.738Z" fill="url(#paint33_linear_54582_260982)"/>
<path d="M661.283 215.872L638.376 225.597L554.743 284.162L658.69 286.106L670.576 283.297L661.283 215.872Z" fill="url(#paint34_linear_54582_260982)"/>
<path d="M559.93 283.513L661.283 215.872L670.576 283.297L559.93 283.513Z" fill="url(#paint35_linear_54582_260982)" stroke="#F176A2" stroke-width="1.29664" stroke-miterlimit="10"/>
<path d="M505.039 317.874L503.31 339.917L597.965 382.057L604.448 376.871L607.257 364.985L665.822 350.074L631.677 332.785L505.039 317.874Z" fill="url(#paint36_linear_54582_260982)"/>
<path d="M505.039 317.874L506.767 336.675L600.125 375.142L604.447 359.15L665.821 350.073L631.677 332.785L622.816 317.441L505.039 317.874Z" fill="url(#paint37_linear_54582_260982)" stroke="#F176A2" stroke-width="1.08053" stroke-miterlimit="10"/>
<path d="M509.146 139.587L493.37 145.422L449.933 224.084L446.691 240.941L454.687 235.97L523.193 199.016L516.925 154.714L509.146 139.587Z" fill="url(#paint38_linear_54582_260982)"/>
<path d="M509.146 139.587L490.345 158.82L453.175 225.597L454.688 235.97L529.028 200.745L522.761 146.502L509.146 139.587Z" fill="url(#paint39_linear_54582_260982)"/>
<path d="M202.275 161.845L203.788 167.68L231.017 185.617L237.068 187.346L235.339 184.32L224.102 158.388L207.894 159.468L202.275 161.845Z" fill="url(#paint40_linear_54582_260982)"/>
<path d="M202.275 161.846L208.542 169.194L231.666 184.537L235.339 184.321L224.966 156.443L205.085 157.092L202.275 161.846Z" fill="url(#paint41_linear_54582_260982)"/>
<path d="M50.353 333.649L88.8199 323.924L47.9758 321.331L50.353 333.649Z" fill="url(#paint42_linear_54582_260982)"/>
<path d="M188.876 513.449L172.02 562.937L155.812 539.382V534.844L188.876 513.449Z" fill="url(#paint43_linear_54582_260982)"/>
<path d="M155.812 534.844L170.507 553.861L188.876 513.449L155.812 534.844Z" fill="url(#paint44_linear_54582_260982)"/>
<path d="M503.742 1.0625L499.852 35.6394L507.2 81.0217L519.518 44.2837L503.742 1.0625Z" fill="url(#paint45_linear_54582_260982)"/>
<path d="M577.002 41.042L573.977 79.5088L558.201 83.3987L548.477 79.941L577.002 41.042Z" fill="url(#paint46_linear_54582_260982)"/>
<path d="M577.002 41.042L548.477 79.941L571.6 76.2672L577.002 41.042Z" fill="url(#paint47_linear_54582_260982)"/>
<path d="M310.112 0.198242L288.934 24.4021L324.591 73.242L327.833 20.7283L310.112 0.198242Z" fill="url(#paint48_linear_54582_260982)"/>
<path d="M251.331 302.746L88.8197 309.23L55.5394 284.593L58.3488 279.623L177.207 282.216L251.331 302.746Z" fill="url(#paint49_linear_54582_260982)"/>
<path d="M58.3481 279.623L88.6029 303.611L251.331 302.746L154.947 272.924L58.3481 279.623Z" fill="url(#paint50_linear_54582_260982)"/>
<path d="M124.908 207.444L117.777 199.664L89.251 228.19L91.6282 265.144L230.152 298.857L270.78 305.556L125.557 223.22L124.908 207.444Z" fill="url(#paint51_linear_54582_260982)"/>
<path d="M151.058 238.131L270.78 305.556L230.152 298.857L97.6794 262.335V230.135L117.777 199.664L151.058 238.131Z" fill="url(#paint52_linear_54582_260982)"/>
<path d="M72.8275 154.282L84.9295 175.461L51.8653 157.524L72.8275 154.282Z" fill="url(#paint53_linear_54582_260982)"/>
<path d="M428.538 14.8936L440.64 36.0719L407.576 18.1351L428.538 14.8936Z" fill="url(#paint54_linear_54582_260982)"/>
<path d="M197.089 216.521L290.446 282.217L293.256 271.844L255.437 226.894L197.089 216.521Z" fill="url(#paint55_linear_54582_260982)"/>
<path d="M398.499 274.005L463.547 252.826L465.924 284.81L398.499 274.005Z" fill="url(#paint56_linear_54582_260982)"/>
<path d="M497.476 289.781L545.883 299.722L532.269 268.171L500.933 263.2L497.476 289.781Z" fill="url(#paint57_linear_54582_260982)"/>
<path d="M493.154 252.826L497.476 289.78L536.591 292.806L532.269 268.17L493.154 252.826Z" fill="url(#paint58_linear_54582_260982)"/>
<path d="M562.739 199.88L546.963 249.584L528.811 241.804L507.848 245.046L487.967 240.508L489.479 230.999L562.739 199.88Z" fill="url(#paint59_linear_54582_260982)"/>
<path d="M489.478 230.999L562.738 199.88L545.233 243.101L534.428 235.321L507.847 245.046L489.478 230.999Z" fill="url(#paint60_linear_54582_260982)"/>
<path d="M611.147 189.723L589.105 192.748L580.244 224.732L611.147 189.723Z" fill="url(#paint61_linear_54582_260982)"/>
<path d="M678.788 291.725L637.512 313.335L646.805 329.111L683.543 312.471L678.788 291.725Z" fill="url(#paint62_linear_54582_260982)"/>
<path d="M178.503 381.409L20.7462 417.931L0 412.528L73.6921 358.502L178.503 381.409Z" fill="url(#paint63_linear_54582_260982)"/>
<path d="M73.6928 358.502L171.156 365.85L178.504 381.409L20.0986 414.906L11.0222 410.151L73.6928 358.502Z" fill="url(#paint64_linear_54582_260982)"/>
<path d="M268.836 328.679L202.059 348.129L208.758 381.193L283.099 333.65L276.832 327.599L268.836 328.679Z" fill="url(#paint65_linear_54582_260982)"/>
<path d="M189.741 328.031L93.7896 337.324L167.266 349.642L189.741 328.031Z" fill="url(#paint66_linear_54582_260982)"/>
<path d="M285.692 352.234L204.869 500.483L200.979 446.024L183.042 437.596L285.692 352.234Z" fill="url(#paint67_linear_54582_260982)" stroke="#F176A2" stroke-width="1.29664" stroke-miterlimit="10"/>
<path d="M278.128 412.528L258.679 455.101L280.29 461.152L290.879 414.905L278.128 412.528Z" fill="url(#paint68_linear_54582_260982)"/>
<path d="M321.133 340.781L294.984 399.346L323.51 449.482L321.133 340.781Z" fill="url(#paint69_linear_54582_260982)" stroke="#F176A2" stroke-width="1.29664" stroke-miterlimit="10"/>
<path d="M351.388 388.108L324.375 553.645L408.008 629.499L410.601 622.799L351.388 388.108Z" fill="url(#paint70_linear_54582_260982)"/>
<path d="M351.388 388.108L330.858 539.599L410.601 622.799L351.388 388.108Z" fill="url(#paint71_linear_54582_260982)"/>
<path d="M403.038 395.672L396.987 414.041L405.631 450.995L401.525 469.796L424.865 555.374L486.023 490.758L432.644 433.923L403.038 395.672Z" fill="url(#paint72_linear_54582_260982)"/>
<path d="M389.855 356.557L431.78 382.489L421.839 389.621L430.051 416.418L381.643 357.421L389.855 356.557Z" fill="url(#paint73_linear_54582_260982)"/>
<path d="M447.123 413.393L465.275 437.164L540.048 419.876L486.238 385.083L409.088 337.107L456.847 394.808L447.123 413.393Z" fill="url(#paint74_linear_54582_260982)"/>
<path d="M541.345 431.329L529.892 468.283L533.998 498.754L649.614 552.564L541.345 431.329Z" fill="url(#paint75_linear_54582_260982)"/>
<path d="M541.345 431.329L537.239 491.407L649.614 552.564L603.8 447.537L541.345 431.329Z" fill="url(#paint76_linear_54582_260982)"/>
<path d="M626.058 406.261L654.368 425.711L726.98 411.448L637.944 379.248L626.058 406.261Z" fill="url(#paint77_linear_54582_260982)"/>
<path d="M656.529 420.956L726.98 411.448L637.944 379.248L628.219 402.155L656.529 420.956Z" fill="url(#paint78_linear_54582_260982)"/>
<path d="M567.927 387.46L530.324 390.485L438.047 349.425L453.391 338.188L567.927 387.46Z" fill="url(#paint79_linear_54582_260982)"/>
<path d="M550.422 519.068L544.155 518.636L529.892 532.467L539.833 556.022L545.451 557.751L569.871 538.518L550.422 519.068Z" fill="url(#paint80_linear_54582_260982)"/>
<path d="M550.422 519.068L535.079 534.844L545.452 557.751L581.541 539.815L550.422 519.068Z" fill="url(#paint81_linear_54582_260982)" stroke="#F176A2" stroke-width="1.29664" stroke-miterlimit="10"/>
<path d="M460.089 500.915L471.975 575.472L506.552 566.179L513.251 559.047L460.089 500.915Z" fill="url(#paint82_linear_54582_260982)"/>
<path d="M460.089 500.915L474.569 569.421L513.251 559.048L471.327 500.699L460.089 500.915Z" fill="url(#paint83_linear_54582_260982)" stroke="#F176A2" stroke-width="1.29664" stroke-miterlimit="10"/>
<path d="M626.706 440.838L622.168 444.728L646.156 467.203L671.008 462.016L626.706 440.838Z" fill="url(#paint84_linear_54582_260982)"/>
<path d="M626.707 440.838L671.008 462.016L646.156 467.203L626.707 440.838Z" fill="url(#paint85_linear_54582_260982)"/>
<path d="M586.295 410.367L581.541 412.312L584.566 435.435L613.092 417.715L586.295 410.367Z" fill="url(#paint86_linear_54582_260982)"/>
<path d="M586.296 410.367L586.944 428.304L613.093 417.715L586.296 410.367Z" fill="url(#paint87_linear_54582_260982)"/>
<path d="M119.29 495.081L114.32 499.619L133.337 516.908L161.215 484.06L119.29 495.081Z" fill="url(#paint88_linear_54582_260982)"/>
<path d="M119.29 495.081L131.824 509.56L161.214 484.06L119.29 495.081Z" fill="url(#paint89_linear_54582_260982)"/>
<path d="M226.263 580.658L267.756 602.701L296.065 615.019L299.523 589.519L306.655 574.175L309.248 477.792L228.64 577.201L226.263 580.658Z" fill="url(#paint90_linear_54582_260982)"/>
<path d="M294.121 479.521L226.263 580.658L283.315 596.434L300.388 566.395L309.248 477.792L294.121 479.521Z" fill="url(#paint91_linear_54582_260982)"/>
<path d="M139.388 414.474L108.917 428.52L127.934 443.648L176.99 407.126L139.388 414.474Z" fill="url(#paint92_linear_54582_260982)"/>
<path d="M204.004 436.083L169.643 457.694L191.47 471.957L204.004 436.083Z" fill="url(#paint93_linear_54582_260982)"/>
<path d="M649.398 135.696L626.058 151.04L626.274 191.668L633.838 180.43L646.372 148.663L649.398 135.696Z" fill="url(#paint94_linear_54582_260982)"/>
<path d="M649.398 135.696L633.406 149.095L633.838 180.43L649.614 151.256L649.398 135.696Z" fill="url(#paint95_linear_54582_260982)"/>
<path d="M51.0015 236.402L40.4122 259.093L52.7303 262.335L69.3705 246.992L51.0015 236.402Z" fill="url(#paint96_linear_54582_260982)"/>
<path d="M150.194 363.904L148.033 372.548L166.402 387.244L210.272 360.23L150.194 363.904Z" fill="url(#paint97_linear_54582_260982)"/>
<path d="M168.131 383.354L210.272 360.23L184.555 356.557L150.194 363.904L168.131 383.354Z" fill="url(#paint98_linear_54582_260982)"/>
<path d="M210.055 513.449L210.704 521.445L233.611 528.793L222.59 517.339L210.055 513.449Z" fill="url(#paint99_linear_54582_260982)"/>
<path d="M225.615 508.911L210.055 513.449L233.611 528.793L225.615 508.911Z" fill="url(#paint100_linear_54582_260982)"/>
<path d="M309.68 236.186L269.484 176.108L259.327 189.075L309.68 236.186Z" fill="url(#paint101_linear_54582_260982)"/>
<path d="M269.916 318.738L291.743 313.768L294.552 300.369L269.916 318.738Z" fill="url(#paint102_linear_54582_260982)"/>
<path d="M366.947 324.357L378.401 349.426L384.235 342.51L366.947 324.357Z" fill="url(#paint103_linear_54582_260982)"/>
<path d="M410.602 302.962L380.779 302.53L387.694 317.874L435.238 315.281L410.602 302.962Z" fill="url(#paint104_linear_54582_260982)"/>
<path d="M364.786 555.374L360.68 605.943L340.15 611.129L327.184 606.591L364.786 555.374Z" fill="url(#paint105_linear_54582_260982)"/>
<path d="M364.786 555.374L327.184 606.591L357.871 601.837L364.786 555.374Z" fill="url(#paint106_linear_54582_260982)"/>
<path d="M524.921 308.798L526.433 317.442L521.679 334.947L457.063 316.794L524.921 308.798Z" fill="url(#paint107_linear_54582_260982)"/>
<path d="M457.063 316.794L524.921 308.798L518.654 331.489L457.063 316.794Z" fill="url(#paint108_linear_54582_260982)"/>
</g>
<defs>
<linearGradient id="paint0_linear_54582_260982" x1="61.6742" y1="438.35" x2="173.556" y2="469.167" gradientUnits="userSpaceOnUse">
<stop stop-color="#EC008C"/>
<stop offset="0.3" stop-color="#9F1F63"/>
<stop offset="0.6" stop-color="#B41F76"/>
<stop offset="0.9" stop-color="#9F1F63"/>
</linearGradient>
<linearGradient id="paint1_linear_54582_260982" x1="58.1716" y1="444.557" x2="179.401" y2="459.345" gradientUnits="userSpaceOnUse">
<stop stop-color="#EC008C"/>
<stop offset="1" stop-color="#FCE3EE"/>
</linearGradient>
<linearGradient id="paint2_linear_54582_260982" x1="290.879" y1="394.786" x2="336.09" y2="407.239" gradientUnits="userSpaceOnUse">
<stop stop-color="#EC008C"/>
<stop offset="0.3" stop-color="#9F1F63"/>
<stop offset="0.6" stop-color="#B41F76"/>
<stop offset="0.9" stop-color="#9F1F63"/>
</linearGradient>
<linearGradient id="paint3_linear_54582_260982" x1="258.813" y1="437.957" x2="287.197" y2="441.516" gradientUnits="userSpaceOnUse">
<stop stop-color="#04838D"/>
<stop offset="0.3" stop-color="#00ABC2"/>
<stop offset="0.5" stop-color="#005057"/>
</linearGradient>
<linearGradient id="paint4_linear_54582_260982" x1="386.414" y1="489.019" x2="484.431" y2="500.999" gradientUnits="userSpaceOnUse">
<stop stop-color="#EC008C"/>
<stop offset="0.3" stop-color="#9F1F63"/>
<stop offset="0.6" stop-color="#B41F76"/>
<stop offset="0.9" stop-color="#9F1F63"/>
</linearGradient>
<linearGradient id="paint5_linear_54582_260982" x1="377.242" y1="383.158" x2="433.385" y2="390.104" gradientUnits="userSpaceOnUse">
<stop stop-color="#04838D"/>
<stop offset="0.6" stop-color="#00ABC2"/>
<stop offset="1" stop-color="#04838D"/>
</linearGradient>
<linearGradient id="paint6_linear_54582_260982" x1="396.616" y1="381.994" x2="541.417" y2="421.879" gradientUnits="userSpaceOnUse">
<stop stop-color="#04838D"/>
<stop offset="0.6" stop-color="#00ABC2"/>
<stop offset="1" stop-color="#04838D"/>
</linearGradient>
<linearGradient id="paint7_linear_54582_260982" x1="379.254" y1="307.499" x2="433.007" y2="322.305" gradientUnits="userSpaceOnUse">
<stop stop-color="#005057"/>
<stop offset="0.5" stop-color="#9DDCF9"/>
<stop offset="1" stop-color="#04838D"/>
</linearGradient>
<linearGradient id="paint8_linear_54582_260982" x1="172.777" y1="441.915" x2="198.297" y2="463.944" gradientUnits="userSpaceOnUse">
<stop stop-color="#EC008C"/>
<stop offset="0.3" stop-color="#9F1F63"/>
<stop offset="0.6" stop-color="#B41F76"/>
<stop offset="0.9" stop-color="#9F1F63"/>
</linearGradient>
<linearGradient id="paint9_linear_54582_260982" x1="190.125" y1="235.679" x2="295.132" y2="264.603" gradientUnits="userSpaceOnUse">
<stop stop-color="#04838D"/>
<stop offset="0.6" stop-color="#00ABC2"/>
<stop offset="1" stop-color="#04838D"/>
</linearGradient>
<linearGradient id="paint10_linear_54582_260982" x1="248.512" y1="194.603" x2="316.016" y2="213.196" gradientUnits="userSpaceOnUse">
<stop stop-color="#005057"/>
<stop offset="0.5" stop-color="#98D4C5"/>
<stop offset="1" stop-color="#04838D"/>
</linearGradient>
<linearGradient id="paint11_linear_54582_260982" x1="487.046" y1="36.5997" x2="517.256" y2="44.921" gradientUnits="userSpaceOnUse">
<stop stop-color="#04838D"/>
<stop offset="0.6" stop-color="#00ABC2"/>
<stop offset="1" stop-color="#04838D"/>
</linearGradient>
<linearGradient id="paint12_linear_54582_260982" x1="196.532" y1="347.503" x2="273.204" y2="368.622" gradientUnits="userSpaceOnUse">
<stop stop-color="#04838D"/>
<stop offset="0.3" stop-color="#00ABC2"/>
<stop offset="0.5" stop-color="#005057"/>
</linearGradient>
<linearGradient id="paint13_linear_54582_260982" x1="93.1418" y1="341.214" x2="189.741" y2="341.214" gradientUnits="userSpaceOnUse">
<stop stop-color="#EC008C"/>
<stop offset="0.3" stop-color="#9F1F63"/>
<stop offset="0.6" stop-color="#B41F76"/>
<stop offset="0.9" stop-color="#9F1F63"/>
</linearGradient>
<linearGradient id="paint14_linear_54582_260982" x1="111.728" y1="416.945" x2="169.648" y2="432.899" gradientUnits="userSpaceOnUse">
<stop stop-color="#EC008C"/>
<stop offset="0.3" stop-color="#9F1F63"/>
<stop offset="0.6" stop-color="#B41F76"/>
<stop offset="0.9" stop-color="#9F1F63"/>
</linearGradient>
<linearGradient id="paint15_linear_54582_260982" x1="362.41" y1="135.48" x2="432.86" y2="135.48" gradientUnits="userSpaceOnUse">
<stop stop-color="#EC008C"/>
<stop offset="0.3" stop-color="#9F1F63"/>
<stop offset="0.6" stop-color="#B41F76"/>
<stop offset="0.9" stop-color="#9F1F63"/>
</linearGradient>
<linearGradient id="paint16_linear_54582_260982" x1="362.626" y1="137.21" x2="428.322" y2="137.21" gradientUnits="userSpaceOnUse">
<stop stop-color="white"/>
<stop offset="1" stop-color="#EC008C"/>
</linearGradient>
<linearGradient id="paint17_linear_54582_260982" x1="362.194" y1="135.913" x2="429.619" y2="135.913" gradientUnits="userSpaceOnUse">
<stop stop-color="white"/>
<stop offset="1" stop-color="#EC008C"/>
</linearGradient>
<linearGradient id="paint18_linear_54582_260982" x1="288.638" y1="134.557" x2="281.047" y2="47.7979" gradientUnits="userSpaceOnUse">
<stop stop-color="#EC008C"/>
<stop offset="0.3" stop-color="#9F1F63"/>
<stop offset="0.6" stop-color="#B41F76"/>
<stop offset="0.9" stop-color="#9F1F63"/>
</linearGradient>
<linearGradient id="paint19_linear_54582_260982" x1="286.606" y1="133.65" x2="279.204" y2="49.044" gradientUnits="userSpaceOnUse">
<stop stop-color="white"/>
<stop offset="1" stop-color="#EC008C"/>
</linearGradient>
<linearGradient id="paint20_linear_54582_260982" x1="266.867" y1="174.39" x2="336.088" y2="230.044" gradientUnits="userSpaceOnUse">
<stop stop-color="#00BBD8"/>
<stop offset="1" stop-color="white"/>
</linearGradient>
<linearGradient id="paint21_linear_54582_260982" x1="579.736" y1="173.082" x2="469.316" y2="247.282" gradientUnits="userSpaceOnUse">
<stop stop-color="#EC008C"/>
<stop offset="0.3" stop-color="#9F1F63"/>
<stop offset="0.6" stop-color="#B41F76"/>
<stop offset="0.9" stop-color="#9F1F63"/>
</linearGradient>
<linearGradient id="paint22_linear_54582_260982" x1="494.52" y1="283.045" x2="579.604" y2="166.676" gradientUnits="userSpaceOnUse">
<stop stop-color="white"/>
<stop offset="1" stop-color="#EC008C"/>
</linearGradient>
<linearGradient id="paint23_linear_54582_260982" x1="752.343" y1="95.2638" x2="804.151" y2="97.707" gradientUnits="userSpaceOnUse">
<stop stop-color="#EC008C"/>
<stop offset="0.3" stop-color="#9F1F63"/>
<stop offset="0.6" stop-color="#B41F76"/>
<stop offset="0.9" stop-color="#9F1F63"/>
</linearGradient>
<linearGradient id="paint24_linear_54582_260982" x1="814.152" y1="723.242" x2="750.702" y2="698.873" gradientUnits="userSpaceOnUse">
<stop stop-color="white"/>
<stop offset="1" stop-color="#EC008C"/>
</linearGradient>
<linearGradient id="paint25_linear_54582_260982" x1="257.958" y1="139.148" x2="267.958" y2="141.903" gradientUnits="userSpaceOnUse">
<stop stop-color="white"/>
<stop offset="1" stop-color="#EC008C"/>
</linearGradient>
<linearGradient id="paint26_linear_54582_260982" x1="461.801" y1="50.9405" x2="472.635" y2="53.9247" gradientUnits="userSpaceOnUse">
<stop stop-color="#EC008C"/>
<stop offset="0.3" stop-color="#9F1F63"/>
<stop offset="0.6" stop-color="#B41F76"/>
<stop offset="0.9" stop-color="#9F1F63"/>
</linearGradient>
<linearGradient id="paint27_linear_54582_260982" x1="477.243" y1="90.1635" x2="474.156" y2="24.7273" gradientUnits="userSpaceOnUse">
<stop stop-color="white"/>
<stop offset="1" stop-color="#EC008C"/>
</linearGradient>
<linearGradient id="paint28_linear_54582_260982" x1="100.761" y1="146.278" x2="202.767" y2="174.375" gradientUnits="userSpaceOnUse">
<stop stop-color="#EC008C"/>
<stop offset="0.3" stop-color="#9F1F63"/>
<stop offset="0.6" stop-color="#B41F76"/>
<stop offset="0.9" stop-color="#9F1F63"/>
</linearGradient>
<linearGradient id="paint29_linear_54582_260982" x1="115.384" y1="155.686" x2="199.762" y2="163.892" gradientUnits="userSpaceOnUse">
<stop stop-color="white"/>
<stop offset="1" stop-color="#EC008C"/>
</linearGradient>
<linearGradient id="paint30_linear_54582_260982" x1="159.962" y1="73.3773" x2="243.509" y2="96.39" gradientUnits="userSpaceOnUse">
<stop stop-color="#EC008C"/>
<stop offset="0.3" stop-color="#9F1F63"/>
<stop offset="0.6" stop-color="#B41F76"/>
<stop offset="0.9" stop-color="#9F1F63"/>
</linearGradient>
<linearGradient id="paint31_linear_54582_260982" x1="172.394" y1="81.957" x2="236.532" y2="89.985" gradientUnits="userSpaceOnUse">
<stop stop-color="white"/>
<stop offset="1" stop-color="#EC008C"/>
</linearGradient>
<linearGradient id="paint32_linear_54582_260982" x1="546.037" y1="146.321" x2="591.36" y2="151.856" gradientUnits="userSpaceOnUse">
<stop stop-color="#EC008C"/>
<stop offset="0.3" stop-color="#9F1F63"/>
<stop offset="0.6" stop-color="#B41F76"/>
<stop offset="0.9" stop-color="#9F1F63"/>
</linearGradient>
<linearGradient id="paint33_linear_54582_260982" x1="547.522" y1="143.368" x2="591.747" y2="148.825" gradientUnits="userSpaceOnUse">
<stop stop-color="white"/>
<stop offset="1" stop-color="#EC008C"/>
</linearGradient>
<linearGradient id="paint34_linear_54582_260982" x1="554.312" y1="252.668" x2="670.074" y2="251.31" gradientUnits="userSpaceOnUse">
<stop stop-color="#EC008C"/>
<stop offset="0.3" stop-color="#9F1F63"/>
<stop offset="0.6" stop-color="#B41F76"/>
<stop offset="0.9" stop-color="#9F1F63"/>
</linearGradient>
<linearGradient id="paint35_linear_54582_260982" x1="559.313" y1="251.163" x2="670.063" y2="249.782" gradientUnits="userSpaceOnUse">
<stop stop-color="#EC008C"/>
<stop offset="1" stop-color="#FCE3EE"/>
</linearGradient>
<linearGradient id="paint36_linear_54582_260982" x1="501.64" y1="344.124" x2="663.796" y2="364.133" gradientUnits="userSpaceOnUse">
<stop stop-color="#EC008C"/>
<stop offset="0.3" stop-color="#9F1F63"/>
<stop offset="0.6" stop-color="#B41F76"/>
<stop offset="0.9" stop-color="#9F1F63"/>
</linearGradient>
<linearGradient id="paint37_linear_54582_260982" x1="502.936" y1="333.722" x2="665.092" y2="353.73" gradientUnits="userSpaceOnUse">
<stop stop-color="#EC008C"/>
<stop offset="1" stop-color="#FCE3EE"/>
</linearGradient>
<linearGradient id="paint38_linear_54582_260982" x1="460.209" y1="186.116" x2="522.088" y2="203.16" gradientUnits="userSpaceOnUse">
<stop stop-color="#EC008C"/>
<stop offset="0.3" stop-color="#9F1F63"/>
<stop offset="0.6" stop-color="#B41F76"/>
<stop offset="0.9" stop-color="#9F1F63"/>
</linearGradient>
<linearGradient id="paint39_linear_54582_260982" x1="457.918" y1="185.484" x2="529.693" y2="194.271" gradientUnits="userSpaceOnUse">
<stop stop-color="white"/>
<stop offset="1" stop-color="#EC008C"/>
</linearGradient>
<linearGradient id="paint40_linear_54582_260982" x1="217.691" y1="181.846" x2="225.638" y2="160.131" gradientUnits="userSpaceOnUse">
<stop stop-color="#04838D"/>
<stop offset="0.6" stop-color="#00ABC2"/>
<stop offset="1" stop-color="#04838D"/>
</linearGradient>
<linearGradient id="paint41_linear_54582_260982" x1="217.394" y1="182.658" x2="222.653" y2="156.968" gradientUnits="userSpaceOnUse">
<stop offset="0.3" stop-color="white"/>
<stop offset="1" stop-color="#00BBD7"/>
</linearGradient>
<linearGradient id="paint42_linear_54582_260982" x1="77.8597" y1="336.485" x2="52.8195" y2="315.358" gradientUnits="userSpaceOnUse">
<stop stop-color="white"/>
<stop offset="0.8" stop-color="#00ACC3"/>
<stop offset="1" stop-color="#00BBD7"/>
</linearGradient>
<linearGradient id="paint43_linear_54582_260982" x1="160.109" y1="557.826" x2="180.534" y2="510.02" gradientUnits="userSpaceOnUse">
<stop stop-color="#EC008C"/>
<stop offset="0.3" stop-color="#9F1F63"/>
<stop offset="0.6" stop-color="#B41F76"/>
<stop offset="0.9" stop-color="#9F1F63"/>
</linearGradient>
<linearGradient id="paint44_linear_54582_260982" x1="161.255" y1="550.165" x2="178.762" y2="509.188" gradientUnits="userSpaceOnUse">
<stop stop-color="#EC008C"/>
<stop offset="0.3" stop-color="#EC008C"/>
<stop offset="1" stop-color="#E4F5FD"/>
</linearGradient>
<linearGradient id="paint45_linear_54582_260982" x1="498.692" y1="40.7042" x2="519.705" y2="43.354" gradientUnits="userSpaceOnUse">
<stop stop-color="white"/>
<stop offset="0.8" stop-color="#00ACC3"/>
<stop offset="1" stop-color="#00BBD7"/>
</linearGradient>
<linearGradient id="paint46_linear_54582_260982" x1="554.143" y1="59.1158" x2="577.686" y2="65.6006" gradientUnits="userSpaceOnUse">
<stop stop-color="#FAF8D1"/>
<stop offset="0.6" stop-color="#F78F1E"/>
<stop offset="1" stop-color="#824A00"/>
</linearGradient>
<linearGradient id="paint47_linear_54582_260982" x1="554.2" y1="58.9074" x2="575.035" y2="64.6462" gradientUnits="userSpaceOnUse">
<stop stop-color="#FAF8D1"/>
<stop offset="1" stop-color="#FFC92F"/>
</linearGradient>
<linearGradient id="paint48_linear_54582_260982" x1="287.736" y1="33.4802" x2="328.721" y2="38.4929" gradientUnits="userSpaceOnUse">
<stop stop-color="white"/>
<stop offset="1" stop-color="#EC008C"/>
</linearGradient>
<linearGradient id="paint49_linear_54582_260982" x1="55.5394" y1="294.534" x2="251.331" y2="294.534" gradientUnits="userSpaceOnUse">
<stop stop-color="#EC008C"/>
<stop offset="0.3" stop-color="#9F1F63"/>
<stop offset="0.6" stop-color="#B41F76"/>
<stop offset="0.9" stop-color="#9F1F63"/>
</linearGradient>
<linearGradient id="paint50_linear_54582_260982" x1="57.9776" y1="280.872" x2="250.924" y2="304.654" gradientUnits="userSpaceOnUse">
<stop stop-color="white"/>
<stop offset="1" stop-color="#EC008C"/>
</linearGradient>
<linearGradient id="paint51_linear_54582_260982" x1="89.0047" y1="228.448" x2="277.558" y2="280.385" gradientUnits="userSpaceOnUse">
<stop stop-color="#EC008C"/>
<stop offset="0.3" stop-color="#9F1F63"/>
<stop offset="0.6" stop-color="#B41F76"/>
<stop offset="0.9" stop-color="#9F1F63"/>
</linearGradient>
<linearGradient id="paint52_linear_54582_260982" x1="96.0999" y1="240.938" x2="275.821" y2="263.094" gradientUnits="userSpaceOnUse">
<stop stop-color="white"/>
<stop offset="1" stop-color="#EC008C"/>
</linearGradient>
<linearGradient id="paint53_linear_54582_260982" x1="51.323" y1="161.807" x2="86.0358" y2="165.988" gradientUnits="userSpaceOnUse">
<stop stop-color="white"/>
<stop offset="0.8" stop-color="#00ACC3"/>
<stop offset="1" stop-color="#00BBD7"/>
</linearGradient>
<linearGradient id="paint54_linear_54582_260982" x1="407.059" y1="22.6372" x2="441.771" y2="26.819" gradientUnits="userSpaceOnUse">
<stop stop-color="white"/>
<stop offset="0.8" stop-color="#00ACC3"/>
<stop offset="1" stop-color="#00BBD7"/>
</linearGradient>
<linearGradient id="paint55_linear_54582_260982" x1="193.554" y1="243.573" x2="295.02" y2="256.054" gradientUnits="userSpaceOnUse">
<stop stop-color="white"/>
<stop offset="0.8" stop-color="#00ABC1"/>
<stop offset="1" stop-color="#00BBD7"/>
</linearGradient>
<linearGradient id="paint56_linear_54582_260982" x1="400.01" y1="261.437" x2="467.446" y2="269.701" gradientUnits="userSpaceOnUse">
<stop stop-color="white"/>
<stop offset="0.8" stop-color="#00ABC1"/>
<stop offset="1" stop-color="#00BBD7"/>
</linearGradient>
<linearGradient id="paint57_linear_54582_260982" x1="497.626" y1="274.877" x2="548.671" y2="288.937" gradientUnits="userSpaceOnUse">
<stop stop-color="#005057"/>
<stop offset="0.5" stop-color="#9DDCF9"/>
<stop offset="1" stop-color="#005158"/>
</linearGradient>
<linearGradient id="paint58_linear_54582_260982" x1="490.528" y1="271.352" x2="538.409" y2="277.367" gradientUnits="userSpaceOnUse">
<stop stop-color="#00BBD8"/>
<stop offset="1" stop-color="white"/>
</linearGradient>
<linearGradient id="paint59_linear_54582_260982" x1="490.758" y1="217.618" x2="559.235" y2="226.169" gradientUnits="userSpaceOnUse">
<stop stop-color="#EC008C"/>
<stop offset="0.3" stop-color="#9F1F63"/>
<stop offset="0.6" stop-color="#B41F76"/>
<stop offset="0.9" stop-color="#9F1F63"/>
</linearGradient>
<linearGradient id="paint60_linear_54582_260982" x1="490.965" y1="217.675" x2="559.234" y2="226.169" gradientUnits="userSpaceOnUse">
<stop stop-color="white"/>
<stop offset="1" stop-color="#EC008C"/>
</linearGradient>
<linearGradient id="paint61_linear_54582_260982" x1="582.41" y1="206.325" x2="608.653" y2="209.519" gradientUnits="userSpaceOnUse">
<stop stop-color="white"/>
<stop offset="0.8" stop-color="#00ACC3"/>
<stop offset="1" stop-color="#00BBD7"/>
</linearGradient>
<linearGradient id="paint62_linear_54582_260982" x1="631.699" y1="307.322" x2="676.815" y2="312.8" gradientUnits="userSpaceOnUse">
<stop stop-color="white"/>
<stop offset="0.4" stop-color="#F0F9FA"/>
<stop offset="0.8" stop-color="#00ABC1"/>
<stop offset="1" stop-color="#00BBD8"/>
</linearGradient>
<linearGradient id="paint63_linear_54582_260982" x1="-0.492904" y1="389.296" x2="178.776" y2="383.349" gradientUnits="userSpaceOnUse">
<stop stop-color="#EC008C"/>
<stop offset="0.3" stop-color="#9F1F63"/>
<stop offset="0.6" stop-color="#B41F76"/>
<stop offset="0.9" stop-color="#9F1F63"/>
</linearGradient>
<linearGradient id="paint64_linear_54582_260982" x1="8.28347" y1="393.113" x2="175.505" y2="362.916" gradientUnits="userSpaceOnUse">
<stop stop-color="white"/>
<stop offset="1" stop-color="#EC008C"/>
</linearGradient>
<linearGradient id="paint65_linear_54582_260982" x1="189.993" y1="340.323" x2="261.455" y2="360.007" gradientUnits="userSpaceOnUse">
<stop stop-color="white"/>
<stop offset="0.4" stop-color="#F0F9FA"/>
<stop offset="0.8" stop-color="#00ABC1"/>
<stop offset="1" stop-color="#00BBD8"/>
</linearGradient>
<linearGradient id="paint66_linear_54582_260982" x1="94.4747" y1="329.031" x2="188.153" y2="340.489" gradientUnits="userSpaceOnUse">
<stop stop-color="white"/>
<stop offset="1" stop-color="#EC008C"/>
</linearGradient>
<linearGradient id="paint67_linear_54582_260982" x1="190.078" y1="411.627" x2="263.624" y2="431.885" gradientUnits="userSpaceOnUse">
<stop stop-color="#EC008C"/>
<stop offset="0.8" stop-color="#FCE3EE"/>
</linearGradient>
<linearGradient id="paint68_linear_54582_260982" x1="254.445" y1="434.288" x2="281.313" y2="437.654" gradientUnits="userSpaceOnUse">
<stop stop-color="white"/>
<stop offset="0.4" stop-color="#F0F9FA"/>
<stop offset="0.8" stop-color="#00ABC1"/>
<stop offset="1" stop-color="#00BBD8"/>
</linearGradient>
<linearGradient id="paint69_linear_54582_260982" x1="297.622" y1="389.022" x2="336.999" y2="399.868" gradientUnits="userSpaceOnUse">
<stop stop-color="#EC008C"/>
<stop offset="1" stop-color="#FCE3EE"/>
</linearGradient>
<linearGradient id="paint70_linear_54582_260982" x1="322.13" y1="493.728" x2="436.928" y2="525.348" gradientUnits="userSpaceOnUse">
<stop stop-color="#EC008C"/>
<stop offset="0.3" stop-color="#9F1F63"/>
<stop offset="0.6" stop-color="#B41F76"/>
<stop offset="0.9" stop-color="#9F1F63"/>
</linearGradient>
<linearGradient id="paint71_linear_54582_260982" x1="335.285" y1="500.489" x2="423.734" y2="511.403" gradientUnits="userSpaceOnUse">
<stop stop-color="#EC008C"/>
<stop offset="1" stop-color="#FCE3EE"/>
</linearGradient>
<linearGradient id="paint72_linear_54582_260982" x1="389.26" y1="472.991" x2="486.387" y2="484.95" gradientUnits="userSpaceOnUse">
<stop stop-color="#EC008C"/>
<stop offset="1" stop-color="#FCE3EE"/>
</linearGradient>
<linearGradient id="paint73_linear_54582_260982" x1="378.133" y1="383.179" x2="432.969" y2="389.989" gradientUnits="userSpaceOnUse">
<stop stop-color="white"/>
<stop offset="0.8" stop-color="#00ACC3"/>
<stop offset="1" stop-color="#00BBD7"/>
</linearGradient>
<linearGradient id="paint74_linear_54582_260982" x1="403.132" y1="383.564" x2="542.077" y2="400.766" gradientUnits="userSpaceOnUse">
<stop stop-color="white"/>
<stop offset="0.4" stop-color="#F0F9FA"/>
<stop offset="0.8" stop-color="#00ABC1"/>
<stop offset="1" stop-color="#00BBD8"/>
</linearGradient>
<linearGradient id="paint75_linear_54582_260982" x1="528.112" y1="474.252" x2="660.829" y2="510.808" gradientUnits="userSpaceOnUse">
<stop stop-color="#EC008C"/>
<stop offset="0.3" stop-color="#9F1F63"/>
<stop offset="0.6" stop-color="#B41F76"/>
<stop offset="0.9" stop-color="#9F1F63"/>
</linearGradient>
<linearGradient id="paint76_linear_54582_260982" x1="534.51" y1="485.204" x2="655.739" y2="499.992" gradientUnits="userSpaceOnUse">
<stop stop-color="#EC008C"/>
<stop offset="1" stop-color="#FCE3EE"/>
</linearGradient>
<linearGradient id="paint77_linear_54582_260982" x1="626.383" y1="400.676" x2="726.542" y2="413.021" gradientUnits="userSpaceOnUse">
<stop stop-color="#FAF8D1"/>
<stop offset="0.3" stop-color="#F78F1E"/>
<stop offset="0.8" stop-color="#5A2E00"/>
</linearGradient>
<linearGradient id="paint78_linear_54582_260982" x1="628.531" y1="398.577" x2="726.965" y2="410.672" gradientUnits="userSpaceOnUse">
<stop stop-color="#FAF8D1"/>
<stop offset="1" stop-color="#FFC92F"/>
</linearGradient>
<linearGradient id="paint79_linear_54582_260982" x1="436.613" y1="358.042" x2="569.286" y2="374.413" gradientUnits="userSpaceOnUse">
<stop offset="0.3" stop-color="white"/>
<stop offset="1" stop-color="#00BBD7"/>
</linearGradient>
<linearGradient id="paint80_linear_54582_260982" x1="529.034" y1="536.82" x2="569.185" y2="541.604" gradientUnits="userSpaceOnUse">
<stop stop-color="#EC008C"/>
<stop offset="0.3" stop-color="#9F1F63"/>
<stop offset="0.6" stop-color="#B41F76"/>
<stop offset="0.9" stop-color="#9F1F63"/>
</linearGradient>
<linearGradient id="paint81_linear_54582_260982" x1="534.264" y1="537.365" x2="580.687" y2="542.979" gradientUnits="userSpaceOnUse">
<stop stop-color="#EC008C"/>
<stop offset="1" stop-color="#FCE3EE"/>
</linearGradient>
<linearGradient id="paint82_linear_54582_260982" x1="450.495" y1="534.689" x2="514.665" y2="552.364" gradientUnits="userSpaceOnUse">
<stop stop-color="#EC008C"/>
<stop offset="0.3" stop-color="#9F1F63"/>
<stop offset="0.6" stop-color="#B41F76"/>
<stop offset="0.9" stop-color="#9F1F63"/>
</linearGradient>
<linearGradient id="paint83_linear_54582_260982" x1="451.815" y1="529.897" x2="515.986" y2="547.572" gradientUnits="userSpaceOnUse">
<stop stop-color="#EC008C"/>
<stop offset="1" stop-color="#FCE3EE"/>
</linearGradient>
<linearGradient id="paint84_linear_54582_260982" x1="620.944" y1="452.974" x2="671.081" y2="458.939" gradientUnits="userSpaceOnUse">
<stop stop-color="#EC008C"/>
<stop offset="0.3" stop-color="#9F1F63"/>
<stop offset="0.6" stop-color="#B41F76"/>
<stop offset="0.9" stop-color="#9F1F63"/>
</linearGradient>
<linearGradient id="paint85_linear_54582_260982" x1="624.867" y1="453.382" x2="671.081" y2="458.939" gradientUnits="userSpaceOnUse">
<stop stop-color="#EC008C"/>
<stop offset="1" stop-color="#FCE3EE"/>
</linearGradient>
<linearGradient id="paint86_linear_54582_260982" x1="579.929" y1="422.848" x2="611.819" y2="426.7" gradientUnits="userSpaceOnUse">
<stop stop-color="#04838D"/>
<stop offset="0.6" stop-color="#00ABC2"/>
<stop offset="1" stop-color="#04838D"/>
</linearGradient>
<linearGradient id="paint87_linear_54582_260982" x1="584.827" y1="419.714" x2="612.112" y2="423.194" gradientUnits="userSpaceOnUse">
<stop stop-color="white"/>
<stop offset="0.4" stop-color="#F0F9FA"/>
<stop offset="0.8" stop-color="#00ABC1"/>
<stop offset="1" stop-color="#00BBD8"/>
</linearGradient>
<linearGradient id="paint88_linear_54582_260982" x1="73.6703" y1="521.756" x2="115.929" y2="499.989" gradientUnits="userSpaceOnUse">
<stop stop-color="#04838D"/>
<stop offset="0.6" stop-color="#00ABC2"/>
<stop offset="1" stop-color="#04838D"/>
</linearGradient>
<linearGradient id="paint89_linear_54582_260982" x1="78.2267" y1="516.103" x2="114.635" y2="497.795" gradientUnits="userSpaceOnUse">
<stop stop-color="white"/>
<stop offset="0.8" stop-color="#00ACC3"/>
<stop offset="1" stop-color="#00BBD7"/>
</linearGradient>
<linearGradient id="paint90_linear_54582_260982" x1="239.247" y1="531.9" x2="312.793" y2="552.158" gradientUnits="userSpaceOnUse">
<stop stop-color="#EC008C"/>
<stop offset="0.3" stop-color="#9F1F63"/>
<stop offset="0.6" stop-color="#B41F76"/>
<stop offset="0.9" stop-color="#9F1F63"/>
</linearGradient>
<linearGradient id="paint91_linear_54582_260982" x1="232.636" y1="534.742" x2="302.806" y2="545.897" gradientUnits="userSpaceOnUse">
<stop stop-color="#EC008C"/>
<stop offset="1" stop-color="#FCE3EE"/>
</linearGradient>
<linearGradient id="paint92_linear_54582_260982" x1="109.387" y1="420.559" x2="174.208" y2="428.551" gradientUnits="userSpaceOnUse">
<stop stop-color="#EC008C"/>
<stop offset="1" stop-color="#FCE3EE"/>
</linearGradient>
<linearGradient id="paint93_linear_54582_260982" x1="179.103" y1="442.523" x2="200.971" y2="456.546" gradientUnits="userSpaceOnUse">
<stop stop-color="#EC008C"/>
<stop offset="1" stop-color="#FCE3EE"/>
</linearGradient>
<linearGradient id="paint94_linear_54582_260982" x1="624.445" y1="162.762" x2="645.667" y2="165.469" gradientUnits="userSpaceOnUse">
<stop stop-color="#EC008C"/>
<stop offset="0.3" stop-color="#9F1F63"/>
<stop offset="0.6" stop-color="#B41F76"/>
<stop offset="0.9" stop-color="#9F1F63"/>
</linearGradient>
<linearGradient id="paint95_linear_54582_260982" x1="632.324" y1="157.759" x2="648.373" y2="159.714" gradientUnits="userSpaceOnUse">
<stop stop-color="white"/>
<stop offset="0.8" stop-color="#00ACC3"/>
<stop offset="1" stop-color="#00BBD7"/>
</linearGradient>
<linearGradient id="paint96_linear_54582_260982" x1="41.4006" y1="248.287" x2="68.4769" y2="251.71" gradientUnits="userSpaceOnUse">
<stop stop-color="white"/>
<stop offset="0.8" stop-color="#00ACC3"/>
<stop offset="1" stop-color="#00BBD7"/>
</linearGradient>
<linearGradient id="paint97_linear_54582_260982" x1="149.961" y1="363.591" x2="204.964" y2="378.742" gradientUnits="userSpaceOnUse">
<stop stop-color="#04838D"/>
<stop offset="0.6" stop-color="#00ABC2"/>
<stop offset="1" stop-color="#04838D"/>
</linearGradient>
<linearGradient id="paint98_linear_54582_260982" x1="149.459" y1="367.039" x2="208.217" y2="374.258" gradientUnits="userSpaceOnUse">
<stop stop-color="white"/>
<stop offset="0.8" stop-color="#00ACC3"/>
<stop offset="1" stop-color="#00BBD7"/>
</linearGradient>
<linearGradient id="paint99_linear_54582_260982" x1="208.308" y1="517.965" x2="234.352" y2="525.139" gradientUnits="userSpaceOnUse">
<stop stop-color="#EC008C"/>
<stop offset="0.3" stop-color="#9F1F63"/>
<stop offset="0.6" stop-color="#B41F76"/>
<stop offset="0.9" stop-color="#9F1F63"/>
</linearGradient>
<linearGradient id="paint100_linear_54582_260982" x1="209.069" y1="516.83" x2="234.213" y2="519.945" gradientUnits="userSpaceOnUse">
<stop stop-color="#EC008C"/>
<stop offset="1" stop-color="#FCE3EE"/>
</linearGradient>
<linearGradient id="paint101_linear_54582_260982" x1="257.494" y1="202.68" x2="312.954" y2="209.663" gradientUnits="userSpaceOnUse">
<stop stop-color="#00BBD8"/>
<stop offset="1" stop-color="white"/>
</linearGradient>
<linearGradient id="paint102_linear_54582_260982" x1="273.672" y1="321.836" x2="298.793" y2="304.003" gradientUnits="userSpaceOnUse">
<stop stop-color="white"/>
<stop offset="0.8" stop-color="#00ACC3"/>
<stop offset="1" stop-color="#00BBD7"/>
</linearGradient>
<linearGradient id="paint103_linear_54582_260982" x1="365.191" y1="336.577" x2="384.48" y2="338.976" gradientUnits="userSpaceOnUse">
<stop stop-color="white"/>
<stop offset="0.8" stop-color="#00ACC3"/>
<stop offset="1" stop-color="#00BBD7"/>
</linearGradient>
<linearGradient id="paint104_linear_54582_260982" x1="379.858" y1="308.562" x2="434.901" y2="315.43" gradientUnits="userSpaceOnUse">
<stop stop-color="white"/>
<stop offset="0.8" stop-color="#00ACC3"/>
<stop offset="1" stop-color="#00BBD7"/>
</linearGradient>
<linearGradient id="paint105_linear_54582_260982" x1="334.518" y1="578.956" x2="365.562" y2="587.507" gradientUnits="userSpaceOnUse">
<stop stop-color="#FAF8D1"/>
<stop offset="0.6" stop-color="#F78F1E"/>
<stop offset="1" stop-color="#824A00"/>
</linearGradient>
<linearGradient id="paint106_linear_54582_260982" x1="334.633" y1="578.539" x2="361.718" y2="586" gradientUnits="userSpaceOnUse">
<stop stop-color="#FAF8D1"/>
<stop offset="1" stop-color="#FFC92F"/>
</linearGradient>
<linearGradient id="paint107_linear_54582_260982" x1="460.154" y1="305.127" x2="524.741" y2="322.917" gradientUnits="userSpaceOnUse">
<stop stop-color="#005057"/>
<stop offset="0.5" stop-color="#9DDCF9"/>
<stop offset="1" stop-color="#005158"/>
</linearGradient>
<linearGradient id="paint108_linear_54582_260982" x1="457.348" y1="312.872" x2="523.268" y2="320.942" gradientUnits="userSpaceOnUse">
<stop stop-color="white"/>
<stop offset="0.8" stop-color="#00ACC3"/>
<stop offset="1" stop-color="#00BBD7"/>
</linearGradient>
</defs>
</svg>
