<svg  viewBox="0 0 54 91" fill="none" xmlns="http://www.w3.org/2000/svg">
<g clip-path="url(#clip0_180_45614)">
<path d="M11.4123 82.1875C9.22739 79.4151 9.05966 76.1401 8.54753 73C7.40249 65.9942 6.29771 58.9785 5.15268 51.9702C5.09453 51.6148 4.86195 51.2471 4.62041 50.9848C1.24793 47.325 0.402574 42.0669 2.42427 37.3874C2.58977 37.0074 2.65686 36.5 2.592 36.0857C1.76677 30.8179 0.903526 25.5549 0.060405 20.2895C-0.310837 17.9681 1.0556 15.7178 3.10861 15.2177C5.28686 14.6883 7.43604 16.0683 7.89002 18.4927C8.57212 22.1427 9.10886 25.8246 9.70821 29.4942C9.78649 29.9697 9.86923 30.4453 9.95869 30.9723C13.4765 30.3766 16.5963 31.2297 19.242 33.8158C21.2614 35.7891 22.4109 38.2968 22.7196 41.231C23.2608 46.3837 20.5167 52.6345 13.6868 54.2034C13.9529 55.8727 14.2213 57.547 14.4874 59.2212C15.3685 64.7587 16.2564 70.2962 17.1286 75.8362C17.4148 77.6551 17.189 79.4274 16.65 81.1629C16.5538 81.4766 16.4554 81.788 16.3414 82.1483H20.9327C20.7538 81.3345 20.5637 80.5746 20.4183 79.8048C19.9285 77.2016 20.6241 74.7012 21.0244 72.1837C22.7598 61.2582 24.5288 50.3377 26.2821 39.4171C27.3556 32.7372 28.4112 26.055 29.5003 19.3776C29.923 16.7817 31.9872 15.2349 34.2795 15.7203C36.4868 16.1885 37.804 18.4535 37.3881 21.0445C34.568 38.6179 31.7479 56.1889 28.93 73.7624C28.7556 74.8459 28.6617 75.9538 28.3866 77.0055C27.9326 78.741 27.3623 80.4422 26.8457 82.1434H41.4292C41.3308 81.8689 41.2526 81.6164 41.1497 81.3761C40.5056 79.8563 40.1813 78.2581 40.1813 76.5838C40.1813 57.4636 40.1791 38.3458 40.1813 19.2256C40.1813 16.6199 41.9056 14.6564 44.1599 14.6368C46.4522 14.6172 48.21 16.5905 48.21 19.2403C48.2145 38.3606 48.21 57.4783 48.2122 76.5985C48.2122 78.5277 47.7426 80.3319 46.8972 82.19C47.2931 82.19 47.5838 82.19 47.8745 82.19C54.4876 82.19 45.4458 82.19 52.0588 82.19C53.5997 82.19 53.9888 82.6141 53.9888 84.2957C53.9888 85.916 53.9955 87.5387 53.9888 89.159C53.9821 90.4779 53.517 90.9951 52.3183 90.9975C48.134 91.0024 26.5952 90.9975 4.35652 90.9975C2.58082 90.9975 2.25207 90.6396 2.25207 88.7154C2.25207 87.2176 2.25207 85.7174 2.25207 84.2197C2.25207 82.6484 2.66357 82.19 4.08144 82.19C11.3631 82.19 2.99232 82.19 10.274 82.19C10.5759 82.19 10.8778 82.19 11.4034 82.19L11.4123 82.1875ZM4.97377 87.9971H51.2806V85.1732H4.97377V87.9971ZM16.641 35.37C13.3625 32.7348 8.76445 33.3525 6.02934 36.7108C3.55589 39.748 3.32107 44.8786 5.56641 47.5186C6.3402 46.8274 7.09163 45.5159 8.20983 46.7048C9.37723 47.9452 8.14497 48.7958 7.5076 49.6684C10.2517 52.3232 15.1762 51.7668 17.927 48.558C21.002 44.9693 20.4071 39.748 18.5532 37.5908C17.0458 38.9145 16.4621 39.1058 15.8695 38.3409C14.8564 37.0344 15.9567 36.2696 16.6433 35.3724L16.641 35.37ZM44.2158 81.3173C45.1484 79.7534 45.5464 78.1502 45.5464 76.4024C45.5442 57.4342 45.5464 38.466 45.5442 19.4977C45.5442 18.2598 45.0611 17.5759 44.2046 17.5783C43.3458 17.5783 42.874 18.2574 42.8672 19.5002C42.8672 19.684 42.8672 19.8679 42.8672 20.0517C42.8672 36.451 42.8672 52.8478 42.8672 69.2471C42.8672 71.7547 42.8516 74.2649 42.8762 76.7726C42.8941 78.3855 43.3011 79.8784 44.218 81.3198L44.2158 81.3173ZM23.6342 81.3663C24.701 80.1039 25.3697 78.7802 25.6246 77.2457C26.5818 71.4459 27.5189 65.6436 28.4514 59.8389C30.5514 46.7857 32.6424 33.7325 34.7402 20.6793C34.9303 19.4977 34.5635 18.7158 33.7114 18.5417C32.9198 18.3799 32.3092 18.9658 32.1258 20.1105C30.869 27.8689 29.6144 35.6273 28.3687 43.3857C26.5796 54.5122 24.7882 65.6412 23.0192 76.7726C22.7755 78.3046 22.9902 79.8024 23.6365 81.3688L23.6342 81.3663ZM8.21207 53.5807C8.22325 53.8332 8.21207 54.0734 8.25008 54.3039C9.41525 61.5818 10.5826 68.8598 11.7568 76.1352C12.0385 77.8806 12.6379 79.4592 13.8813 80.8099C14.5232 79.2803 14.711 77.7654 14.4807 76.1965C14.1385 73.8751 13.7583 71.5611 13.3848 69.2471C12.6155 64.467 11.8462 59.6845 11.0545 54.9093C11.0098 54.6372 10.8063 54.2499 10.6028 54.1813C9.84016 53.9264 9.04624 53.7793 8.21207 53.5807ZM4.94246 33.654C5.72967 33.1025 6.42071 32.6465 7.07374 32.1342C7.22134 32.0166 7.33093 31.6783 7.29738 31.4724C6.66895 27.4718 6.0204 23.4737 5.3629 19.4757C5.19293 18.4437 4.53543 17.9289 3.71467 18.125C2.96325 18.3064 2.58306 19.0614 2.74184 20.0591C2.94535 21.3215 3.14887 22.5839 3.35238 23.8463C3.8757 27.0845 4.40125 30.3252 4.94022 33.6516L4.94246 33.654Z" fill="#00BBD6"/>
<path d="M45.0477 7.48141C45.0813 8.8713 44.2471 9.56257 43.2832 9.24635C42.5385 9.00122 41.8251 8.62862 41.0759 8.40555C40.7964 8.32221 40.3625 8.38839 40.1523 8.5845C38.9357 9.7072 37.5849 10.0112 36.0887 9.49393C35.2143 9.19242 34.3488 8.84188 33.499 8.46193C32.0386 7.81233 31.1977 6.621 30.9294 4.90263C30.8824 4.60357 30.5827 4.24813 30.3166 4.11086C29.639 3.76277 28.9077 3.5446 28.2099 3.23574C27.4115 2.88275 27.0738 2.12039 27.331 1.32862C27.5793 0.558906 28.2971 0.220625 29.1201 0.492721C29.3594 0.571162 29.601 0.652056 29.8291 0.767267C30.9338 1.31636 31.9827 1.74779 33.0338 0.531942C33.3514 0.164245 34.0134 -0.0171521 34.5076 0.00490972C36.668 0.100511 38.6919 0.789329 40.3066 2.39739C40.8523 2.93913 41.1229 3.90004 41.3308 4.72859C41.4628 5.25071 41.6305 5.50075 42.0711 5.65763C42.7845 5.91257 43.518 6.14789 44.1733 6.5352C44.5848 6.77788 44.8688 7.28285 45.0477 7.48386V7.48141ZM38.7433 5.0301C38.5823 4.81928 38.352 4.26774 37.9651 4.05938C37.0951 3.59363 36.1603 3.26025 35.2322 2.94403C34.5792 2.72341 33.8747 3.14259 33.6757 3.81915C33.452 4.57415 33.6041 5.28258 34.2817 5.61351C35.2188 6.0719 36.1916 6.46902 37.1823 6.75092C38.0344 6.9936 38.7523 6.27291 38.7433 5.0301Z" fill="#00BBD6"/>
<path d="M17.3544 14.6932C16.6343 14.6294 15.9052 14.627 15.1985 14.4872C14.0334 14.2568 13.141 13.5092 12.6155 12.3669C12.3494 11.7933 12.043 11.6584 11.5197 11.6879C10.8241 11.7271 10.1241 11.7197 9.42863 11.6879C8.58551 11.6511 8.02641 11.0235 8.0443 10.1926C8.06219 9.39588 8.60564 8.80266 9.4085 8.77079C10.189 8.73892 10.974 8.80266 11.75 8.73893C12.0139 8.71686 12.3673 8.49625 12.4947 8.25111C13.3311 6.6406 14.5746 5.83657 16.2541 5.82432C17.0905 5.81941 17.9292 5.80226 18.7633 5.83167C20.3065 5.88315 21.5074 6.6357 22.2342 8.12855C22.4914 8.65558 22.7687 8.80021 23.2652 8.77079C23.9607 8.72912 24.6607 8.74383 25.3562 8.76589C26.215 8.7953 26.7763 9.38362 26.7831 10.2146C26.7898 11.0456 26.2262 11.6413 25.3764 11.6903C25.155 11.7026 24.9291 11.7075 24.7077 11.6903C23.4866 11.6094 22.393 11.5408 21.6796 13.1072C21.1854 14.1931 20.0045 14.5583 18.8662 14.6172C18.3653 14.6441 17.8621 14.6221 17.3611 14.6221C17.3611 14.6441 17.3589 14.6662 17.3567 14.6883L17.3544 14.6932ZM17.3768 11.6854C17.88 11.6854 18.3876 11.7393 18.8819 11.6731C19.6087 11.5751 20.0314 11.075 20.0783 10.2636C20.1208 9.50618 19.5953 8.82472 18.8662 8.78305C17.8911 8.72912 16.9116 8.71686 15.9388 8.78795C15.2119 8.84188 14.7893 9.37872 14.7445 10.1901C14.7021 10.9476 15.2276 11.5996 15.9567 11.6756C16.4263 11.7246 16.9049 11.6854 17.379 11.6829L17.3768 11.6854Z" fill="#00BBD6"/>
<path d="M12.8861 40.0299C13.973 40.0078 14.749 41.2923 14.1474 42.1576C13.4474 43.1651 12.5685 44.0451 11.674 44.859C11.2133 45.2781 10.5916 45.0722 10.1577 44.5844C9.7216 44.0942 9.56729 43.4151 9.94971 42.9126C10.6765 41.9566 11.5264 41.1085 12.3494 40.2456C12.4947 40.0936 12.7586 40.0789 12.8861 40.0323V40.0299Z" fill="#00BBD6"/>
</g>
<defs>
<linearGradient id="paint0_linear_180_45614" x1="29.1372" y1="86.3331" x2="29.1372" y2="15.0608" gradientUnits="userSpaceOnUse">
<stop stop-color="#3D2876"/>
<stop offset="0.5" stop-color="#755AB8"/>
<stop offset="1" stop-color="#B79DF6"/>
</linearGradient>
<linearGradient id="paint1_linear_180_45614" x1="36.8536" y1="9.14341" x2="36.8536" y2="0.0571942" gradientUnits="userSpaceOnUse">
<stop stop-color="#3D2876"/>
<stop offset="0.5" stop-color="#755AB8"/>
<stop offset="1" stop-color="#B79DF6"/>
</linearGradient>
<linearGradient id="paint2_linear_180_45614" x1="18.1568" y1="14.1506" x2="18.1568" y2="5.8642" gradientUnits="userSpaceOnUse">
<stop stop-color="#3D2876"/>
<stop offset="0.5" stop-color="#755AB8"/>
<stop offset="1" stop-color="#B79DF6"/>
</linearGradient>
<linearGradient id="paint3_linear_180_45614" x1="12.2281" y1="44.776" x2="12.2281" y2="40.0577" gradientUnits="userSpaceOnUse">
<stop stop-color="#3D2876"/>
<stop offset="0.5" stop-color="#755AB8"/>
<stop offset="1" stop-color="#B79DF6"/>
</linearGradient>
<clipPath id="clip0_180_45614">
<rect width="54" height="91" fill="white"/>
</clipPath>
</defs>
</svg>
