<svg width="88" height="49" viewBox="0 0 88 49" fill="none" xmlns="http://www.w3.org/2000/svg">
<path d="M58.5754 30.9087L54.1387 47.1271C54.0204 47.5695 53.7883 47.9111 53.451 48.1476C53.1094 48.3841 52.6933 48.5024 52.2028 48.5024H47.5602C47.0828 48.5024 46.6667 48.3491 46.3119 48.0425C45.9572 47.7359 45.7864 47.3636 45.8039 46.9212L45.9835 37.5134C46.001 37.0185 46.0229 36.5718 46.0492 36.1601C46.0754 35.7527 46.0973 35.3104 46.1148 34.833H45.655C45.5849 35.2578 45.5104 35.6914 45.4272 36.1338C45.344 36.5761 45.2476 37.0097 45.1469 37.4346L42.6241 47.1227C42.5059 47.5651 42.2694 47.9067 41.9234 48.1432C41.573 48.3797 41.1613 48.498 40.6883 48.498H35.9187C35.4413 48.498 35.0252 48.3447 34.6704 48.0381C34.3157 47.7315 34.1448 47.3592 34.1624 46.9169L34.2149 30.9043H39.6459L38.9582 41.7925C38.9407 42.2173 38.9101 42.6728 38.8706 43.1546C38.8268 43.6408 38.7918 44.162 38.7568 44.7226H39.1904C39.2911 44.1795 39.405 43.632 39.5364 43.0802C39.6634 42.5283 39.786 42.0202 39.9043 41.5647L42.3526 32.4372C42.6241 31.4167 43.2767 30.9087 44.3147 30.9087H48.1646C48.6595 30.9087 49.0668 31.0751 49.3866 31.408C49.7107 31.7408 49.8727 32.1525 49.8727 32.6431V41.8232C49.8727 42.283 49.8683 42.7648 49.8596 43.2773C49.8508 43.7853 49.8377 44.2715 49.8202 44.7313H50.28C50.3326 44.2539 50.4071 43.7284 50.5078 43.1502C50.6085 42.5721 50.7136 42.0728 50.8144 41.648L53.162 30.9131H58.5929L58.5754 30.9087Z" fill="white"/>
<path d="M65.9468 30.9083L63.4722 48.502H57.9668L60.4414 30.9083H65.9468ZM67.5279 30.6543C69.328 30.6543 70.7471 30.8382 71.7851 31.2018C72.8231 31.5697 73.5282 32.2004 73.9005 33.1026C74.2728 34.0049 74.3517 35.2531 74.1283 36.8517C73.9224 38.3628 73.572 39.5365 73.0684 40.3687C72.5647 41.2009 71.8464 41.779 70.9004 42.1031C69.9587 42.4272 68.7105 42.5893 67.1644 42.5893C66.2972 42.5893 65.4431 42.5411 64.6022 42.4491C63.7613 42.3571 62.9773 42.2345 62.2546 42.0812C61.532 41.9279 60.9144 41.7659 60.4063 41.5951C59.8983 41.4242 59.5479 41.2709 59.3596 41.1352L59.5129 38.6869H66.6782C67.1206 38.6869 67.4666 38.6431 67.725 38.5599C67.979 38.4766 68.1805 38.2708 68.325 37.9467C68.4696 37.6226 68.5834 37.1233 68.671 36.4444C68.7367 35.967 68.7499 35.5947 68.7105 35.3232C68.6667 35.0516 68.544 34.8545 68.3426 34.7363C68.1367 34.618 67.8257 34.5567 67.4009 34.5567C65.649 34.5567 64.1686 34.5698 62.951 34.5961C61.7334 34.6224 60.9144 34.6618 60.4896 34.71L60.437 30.9127C61.2035 30.8295 61.9174 30.7682 62.5787 30.7331C63.2401 30.6981 63.9584 30.6762 64.7336 30.6674C65.5088 30.6587 66.4373 30.6543 67.5235 30.6543H67.5279Z" fill="white"/>
<path d="M82.1874 30.9082L80.3786 43.0972C80.3436 43.4695 80.3917 43.7367 80.5187 43.8856C80.6458 44.0345 80.9042 44.1133 81.2983 44.1133H87.1104L87.0096 48.2698C85.8358 48.423 84.5 48.515 83.0065 48.5501C81.5086 48.5851 80.0326 48.6026 78.5697 48.6026C77.72 48.6026 76.9886 48.423 76.3754 48.0683C75.7623 47.7135 75.3068 47.223 75.0133 46.6011C74.7155 45.9791 74.6279 45.2783 74.7462 44.4987L76.6339 30.9082H82.1918H82.1874Z" fill="white"/>
<path fill-rule="evenodd" clip-rule="evenodd" d="M42.3438 20.5234H49.9602V22.8404H47.7747V28.4158H44.5994V22.8404H42.3438V20.5234Z" fill="white"/>
<path fill-rule="evenodd" clip-rule="evenodd" d="M53.8193 23.7119L52.2163 28.4158H49.168L52.1594 20.5234H55.4705L58.532 28.4158H55.4442L53.8193 23.7119Z" fill="white"/>
<path fill-rule="evenodd" clip-rule="evenodd" d="M57.8047 20.5234H65.4256V22.8404H63.24V28.4158H60.0647V22.8404H57.8047V20.5234Z" fill="white"/>
<path fill-rule="evenodd" clip-rule="evenodd" d="M69.2837 23.7119L67.6763 28.4158H64.6279L67.6193 20.5234H70.9305L73.992 28.4158H70.9086L69.2837 23.7119Z" fill="white"/>
<path fill-rule="evenodd" clip-rule="evenodd" d="M69.3409 6.0398C69.0562 5.48357 68.6839 4.94923 68.2197 4.44555C67.1773 3.31994 65.7056 2.38266 63.9625 1.73445C62.2062 1.08186 60.2046 0.740234 58.168 0.740234C56.1314 0.740234 54.1298 1.08624 52.3735 1.73445C50.6304 2.38266 49.1587 3.31994 48.1163 4.44555C47.6521 4.94485 47.2798 5.47919 46.9951 6.0398C49.2639 5.49232 53.1444 4.76528 56.7446 4.69082C57.0906 4.68206 57.3315 4.79594 57.4891 4.99303C57.6818 5.2383 57.6643 6.1055 57.6599 6.49092L57.5592 16.5119C57.7607 16.5207 57.9665 16.5251 58.1724 16.5251C58.3782 16.5251 58.5841 16.5251 58.7856 16.5163L58.6848 6.4953C58.6804 6.10988 58.6629 5.24268 58.8556 4.99741C59.0133 4.79594 59.2542 4.68644 59.6002 4.6952C63.2004 4.76966 67.0809 5.49671 69.3453 6.04418L69.3409 6.0398Z" fill="white"/>
<path fill-rule="evenodd" clip-rule="evenodd" d="M69.8265 7.34071C66.5066 6.59177 64.2904 6.45161 62.1049 6.32898C60.1997 6.22386 60.1734 6.90273 60.3661 8.20354C60.3793 8.28237 60.3924 8.38311 60.4099 8.49698C61.0494 12.2855 61.8465 15.5441 61.9823 16.0959C66.6293 15.036 69.9842 12.0884 69.9842 8.62838C69.9842 8.19478 69.9316 7.76118 69.8309 7.33633L69.8265 7.34071Z" fill="white"/>
<path fill-rule="evenodd" clip-rule="evenodd" d="M55.9784 8.20744C56.1667 6.90664 56.1448 6.22777 54.2396 6.33289C52.0497 6.45552 49.8335 6.59129 46.5136 7.34462C46.4129 7.76946 46.3604 8.19868 46.3604 8.63666C46.3604 10.1346 46.9691 11.5799 48.121 12.8238C49.1634 13.9494 50.635 14.8866 52.3782 15.5349C53.0089 15.767 53.6746 15.9597 54.3623 16.113C54.4893 15.5962 55.3039 12.2675 55.9521 8.41329C55.9653 8.33884 55.974 8.27314 55.9828 8.2162L55.9784 8.20744Z" fill="white"/>
<path d="M26.7256 17.1557L26.7343 17.1426C26.7343 17.1426 26.73 17.1513 26.7256 17.1557Z" fill="#231F20"/>
<path d="M12.0268 10.4678C12.0268 10.4678 13.8007 10.6911 14.6547 12.0752C15.4518 13.3716 15.8811 15.1848 15.8811 15.1848L15.2153 15.0753C15.2153 15.0753 14.7993 11.335 12.0225 10.4722L12.0268 10.4678Z" fill="white"/>
<path d="M15.3161 12.1627L19.9281 15.8593L15.395 12.8284L14.8037 11.7598L15.3161 12.1627Z" fill="white"/>
<path d="M7.93164 16.4549C7.93164 16.4549 9.40326 15.798 10.6997 15.7498C11.3829 15.6578 12.2589 15.5746 13.5991 15.6578C14.9393 15.741 16.608 16.1483 16.8402 16.1702C17.0723 16.1921 17.2125 16.1702 17.2125 16.1702L16.3934 15.6272C16.3934 15.6272 11.7727 14.4008 7.93164 16.4593V16.4549Z" fill="white"/>
<path d="M8.78981 15.6797C8.84675 15.3205 9.10077 13.4985 8.43066 12.1846C8.43066 12.1846 9.15333 12.8853 9.24531 14.2475C9.30663 15.1103 9.27597 15.3818 9.27159 15.5001L8.78981 15.684V15.6797Z" fill="white"/>
<path d="M23.3789 16.7528C23.3789 16.7528 23.0154 16.8185 22.7658 17.6551C22.5643 18.3383 22.6431 18.6537 22.6431 18.6537C22.6431 18.6537 23.4008 18.0317 23.852 17.9792C23.852 17.9792 23.7775 17.4536 23.9965 17.1908C23.9965 17.1908 23.6724 16.6565 23.3789 16.7528Z" fill="white"/>
<path d="M24.7982 17.2084C24.6492 17.1164 24.4653 17.1296 24.3251 17.2303C24.2857 17.2566 24.2507 17.2916 24.2288 17.3267C24.1631 17.4449 24.1675 17.8128 24.1937 17.9223C24.1937 17.9223 24.7894 17.7865 25.1661 17.8435C25.0522 17.4712 24.9427 17.3004 24.7982 17.2084Z" fill="white"/>
<path d="M22.8975 19.2752L22.7617 19.4372C22.7617 19.4372 22.8406 20.1949 23.1384 20.9395C23.1866 21.0402 23.2347 21.1453 23.2347 21.1453C23.2347 21.1453 23.5326 20.8913 23.7559 20.7993C23.5895 20.0329 23.572 18.9554 23.6245 18.8284C23.6245 18.8284 23.4888 18.8109 23.1471 19.0474C23.0552 19.1131 22.9676 19.1919 22.8931 19.2752H22.8975Z" fill="white"/>
<path d="M23.8301 18.7855C23.8301 18.7855 24.3119 20.2615 24.3995 20.4104C24.5878 20.2877 25.5251 19.968 26.1163 20.0031C26.2872 19.9461 26.3791 19.3636 26.3003 19.057C26.2171 18.7504 26.055 18.5665 25.8798 18.5446C25.7046 18.5227 24.8199 18.4132 23.8345 18.7855H23.8301Z" fill="white"/>
<path d="M23.603 21.8812C23.603 21.8812 23.7607 22.1133 23.9972 22.1308C24.2337 22.1483 24.7637 21.8111 25.2235 21.7717C25.6834 21.7366 26.2309 21.6403 26.2309 21.6403C26.2309 21.6403 26.2397 20.922 26.0294 20.668C26.0294 20.668 24.8775 20.7862 23.5986 21.8856L23.603 21.8812Z" fill="white"/>
<path d="M29.3624 20.2174C29.3624 20.2174 29.6558 20.3269 29.9668 20.8087C30.0807 20.9839 29.9931 21.7722 29.9317 21.908C29.8704 22.0438 29.1697 21.6934 29.1346 21.5226C29.0996 21.3518 29.2616 20.4977 29.1346 20.2787C29.0076 20.0597 29.3667 20.2218 29.3667 20.2218L29.3624 20.2174Z" fill="white"/>
<path d="M29.169 22.9765C29.169 22.9765 29.3573 23.213 29.169 23.4145C28.9806 23.6159 28.3456 24.3211 28.2755 24.5532C28.2054 24.7853 28.1485 24.9824 28.2755 25.2365C28.4025 25.4905 28.5864 25.8496 28.5777 25.9328C28.5689 26.0161 28.2317 26.1781 28.0915 25.819C27.9514 25.4598 27.6054 23.8875 28.0915 23.2349C28.5777 22.5823 29.169 22.9809 29.169 22.9809V22.9765Z" fill="white"/>
<path d="M33.2605 25.3158L32.5685 24.6194C32.5685 24.6194 32.6648 24.2164 32.7393 23.8617C33.0503 23.6208 33.0459 22.5215 32.0604 22.1404C31.8283 21.7112 31.3158 20.9666 30.729 21.1506C30.6852 20.8265 30.2121 20.0337 29.599 20.3053C29.472 20.0118 28.942 19.8542 28.5478 20.0031C28.3901 20.0206 28.2544 20.06 28.1536 20.0994C27.9434 19.3943 27.4397 18.3913 27.2864 18.0978C27.2864 18.0978 27.2864 18.0891 27.282 18.0891C27.282 18.0891 27.282 18.0847 27.2777 18.076C27.2645 18.0453 27.2514 18.0234 27.2426 18.0146C27.155 17.8745 26.9185 17.6161 26.4762 17.8351C26.2484 17.5416 25.6834 17.1649 25.1797 17.3839C24.987 17.1562 24.295 16.3853 23.5242 16.8803C23.5242 16.8803 23.2526 16.3372 22.6657 16.5124C22.6132 16.5124 22.5694 16.5211 22.5212 16.5255C22.127 16.5824 22.0438 16.6438 21.8292 17.1299L7.87074 5.72927L7.83132 5.69862C7.83132 5.69862 7.7919 5.66796 7.71307 5.60664L2.49672 1.57722V1.58598C2.14633 1.31005 1.84413 1.07354 1.612 0.889587C1.49374 0.797611 1.23095 0.644317 1.01196 0.832649C1.01196 0.832649 0.556463 1.12172 0.525804 1.18303C0.525804 1.18303 0.249876 1.4721 0.495145 1.91446C0.736035 2.35682 2.69381 6.0271 4.08659 7.49872C4.96693 8.42285 6.24145 9.26816 7.64737 10.2011C7.80942 10.3106 21.3693 19.2016 21.3693 19.2016C21.3343 20.1082 21.6014 21.4265 21.8555 21.9083C22.1226 22.412 22.4686 22.8368 22.7489 22.9726C23.0249 23.104 23.3709 22.977 23.384 22.9726C23.4322 22.9857 23.4848 22.9989 23.5329 23.0076C23.4322 23.104 23.3227 23.2222 23.2614 23.2792C23.2614 23.2792 22.7095 23.8661 22.1883 24.2865C21.6671 24.707 21.5051 24.7289 20.9707 24.8296C20.4364 24.9303 20.3795 24.8515 19.648 24.8033C19.4378 24.7902 17.0683 24.5055 17.0683 24.5055C17.0508 24.5055 17.0289 24.5011 17.0026 24.4967C16.6347 24.4354 15.7369 24.3084 15.4171 24.1551C15.2069 24.0544 14.8828 23.6471 14.6901 23.3799C14.5543 23.3974 14.3748 23.4106 14.1251 23.4106C13.2667 23.4106 9.46499 22.7492 7.76563 22.2893C6.92908 22.0616 6.41226 22.2368 5.77281 21.7813L5.78157 22.9419C5.85603 23.1215 5.91735 23.174 5.93925 23.2222C5.19906 23.9624 4.54647 26.9538 4.39317 29.7262C4.02089 36.5456 7.20939 31.8285 4.63406 48.5025C7.65613 43.3912 14.1996 36.8785 14.1996 36.8785C14.1996 36.8785 10.0825 42.5153 8.77298 46.9082C10.4066 44.0307 13.328 41.6043 13.8317 40.2115C13.9061 41.3327 13.7703 43.4526 14.5675 45.3928C14.3222 39.1779 15.4171 39.3355 16.7004 36.1646C17.7034 33.6856 16.5778 31.7716 16.004 31.0796C16.9939 31.8242 19.6174 32.9848 21.0934 33.344C20.6423 34.106 21.2116 34.7762 21.9212 34.5791C22.7095 34.3645 27.7375 30.8606 28.3376 30.3744C28.8413 29.9671 28.9946 29.7788 29.034 29.5817C29.0865 29.5817 29.1259 29.5817 29.1522 29.5686C29.3625 29.4853 30.3216 28.8284 30.4486 28.7671C30.5143 28.732 30.6852 28.6488 30.6676 28.5437C30.8779 28.4079 31.1319 27.9174 31.3158 27.475C31.548 26.9275 31.4516 26.5947 31.4516 26.5947C31.5874 26.6472 31.8108 26.6867 31.986 26.6779C32.275 26.6604 32.4458 26.7173 32.4458 26.7173C32.4458 26.7173 32.5072 26.6735 32.5334 26.6604C32.7875 26.5509 33.2254 25.9727 33.3174 25.6837C33.37 25.5129 33.3393 25.3771 33.2561 25.3158H33.2605ZM26.7127 27.3524C26.6908 27.3787 26.4762 27.6283 26.4192 28.0663C26.4192 28.0751 26.4192 28.0838 26.4192 28.0663C26.0951 28.2678 22.6701 29.3408 21.5839 29.3408C20.4977 29.3408 22.3022 29.3408 23.9753 28.6751C25.6484 28.005 25.8148 27.9042 26.3667 25.4997C26.4937 25.8019 26.8484 26.4107 26.7915 26.7392C26.7652 26.8837 26.7915 27.0283 26.8572 27.1728C26.7915 27.2254 26.7477 27.2867 26.7127 27.348V27.3524Z" fill="#19398A"/>
<path d="M26.4141 28.0706C26.4097 28.0618 26.4141 28.0487 26.4141 28.0706V28.0706Z" fill="#19398A"/>
<path d="M23.9486 23.353C23.9486 23.353 24.3472 23.0114 24.7633 23.0858C25.1794 23.1646 24.6757 24.7589 24.207 25.5604C23.7384 26.3619 23.5676 26.4057 23.1822 26.5196C21.7894 26.9357 20.2871 26.7167 20.2871 26.7167L20.6506 25.6699C20.6506 25.6699 21.6054 25.7838 22.2449 25.2801C22.7486 24.8859 23.572 23.5676 23.9442 23.353H23.9486Z" fill="white"/>
<path d="M8.19431 24.5573C8.19431 24.5573 9.14472 24.058 10.2528 24.242C11.3609 24.4259 12.6617 25.3369 12.6617 25.3369L11.2032 26.7122L14.9918 24.9252L16.5028 25.0172L16.7349 24.8683C16.7349 24.8683 14.6501 24.5968 11.8076 23.9529C10.5156 23.6595 9.58709 23.4974 8.18555 24.5573H8.19431Z" fill="white"/>
<path d="M16.6259 24.9382L12.2461 27.7939L15.0273 24.7236L16.6259 24.9382Z" fill="white"/>
<path d="M20.2831 25.5078L19.0305 25.372L18.1457 25.21L15.6843 26.6203L13.1309 27.9035C13.1309 27.9035 14.6244 27.5094 16.0828 26.7779C17.3574 26.1385 17.8085 25.81 17.8085 25.81C16.9194 27.4349 16.6259 27.4261 16.6259 27.4261C19.14 25.8188 20.2787 25.5122 20.2787 25.5122L20.2831 25.5078Z" fill="white"/>
<path d="M29.4714 20.9877C29.4714 20.9877 29.3663 22.2053 29.3576 22.5206C29.3488 22.836 29.7649 23.2608 29.8963 23.2083C30.0277 23.1557 30.0977 22.7834 30.0977 22.7834C30.0977 22.7834 30.2729 22.7922 30.2729 23.2127C30.2729 23.6331 30.2992 23.9397 30.6014 23.9835C30.9036 24.0273 31.2934 23.6857 31.3547 23.4711C31.4161 23.2565 31.6657 22.1834 31.2584 21.9732C30.8511 21.7629 30.5313 21.8593 30.5313 21.8593C30.5313 21.8593 30.3737 21.0928 30.0715 20.9877C29.7693 20.8826 29.5021 20.8169 29.4714 20.9877Z" fill="white"/>
<path d="M31.7491 22.6826C31.7491 22.6826 32.082 22.7439 32.3754 23.1118C32.6689 23.4797 32.3754 24.255 32.3754 24.255C32.3754 24.255 31.7491 24.6579 31.6703 24.1499C31.5958 23.6418 31.7447 22.6826 31.7447 22.6826H31.7491Z" fill="white"/>
<path d="M15.5348 12.3024L12.539 9.95048L1.3661 1.0113C1.33982 0.993778 1.31354 0.976258 1.28289 0.976258C1.14273 0.963119 1.15149 0.976258 1.04638 1.04196C0.884324 1.14707 0.75293 1.25657 0.75293 1.25657C0.75293 1.25657 1.54567 2.15443 3.24942 3.84941C5.8773 6.46416 21.7234 17.3655 21.7234 17.3655L15.5304 12.2981L15.5348 12.3024Z" fill="white"/>
<path d="M22.7002 16.7528C22.7002 16.7528 22.3367 16.8185 22.087 17.6551C21.8856 18.3383 21.9644 18.6537 21.9644 18.6537C21.9644 18.6537 22.7221 18.0317 23.1732 17.9792C23.1732 17.9792 23.0988 17.4536 23.3178 17.1908C23.3178 17.1908 22.9937 16.6565 22.7002 16.7528Z" fill="white"/>
<path d="M24.1194 17.2084C23.9705 17.1164 23.7866 17.1296 23.6464 17.2303C23.607 17.2566 23.572 17.2916 23.5501 17.3267C23.4844 17.4449 23.4888 17.8128 23.515 17.9223C23.515 17.9223 24.1107 17.7865 24.4873 17.8435C24.3735 17.4712 24.264 17.3004 24.1194 17.2084Z" fill="white"/>
<path d="M22.2188 19.2752L22.083 19.4372C22.083 19.4372 22.1618 20.1949 22.4597 20.9395C22.5078 21.0402 22.556 21.1453 22.556 21.1453C22.556 21.1453 22.8539 20.8913 23.0772 20.7993C22.9108 20.0329 22.8933 18.9554 22.9458 18.8284C22.9458 18.8284 22.8101 18.8109 22.4684 19.0474C22.3765 19.1131 22.2889 19.1919 22.2144 19.2752H22.2188Z" fill="white"/>
<path d="M23.1514 18.7855C23.1514 18.7855 23.6331 20.2615 23.7207 20.4104C23.9091 20.2877 24.8464 19.968 25.4376 20.0031C25.6084 19.9461 25.7004 19.3636 25.6216 19.057C25.5427 18.7504 25.3763 18.5665 25.2011 18.5446C25.0259 18.5227 24.1412 18.4132 23.1557 18.7855H23.1514Z" fill="white"/>
<path d="M22.9243 21.8812C22.9243 21.8812 23.082 22.1133 23.3185 22.1308C23.555 22.1483 24.085 21.8111 24.5448 21.7717C25.0047 21.7366 25.5522 21.6403 25.5522 21.6403C25.5522 21.6403 25.5609 20.922 25.3507 20.668C25.3507 20.668 24.1988 20.7862 22.9199 21.8856L22.9243 21.8812Z" fill="white"/>
<path d="M28.626 24.3559L31.1619 26.3312C31.1619 26.3312 32.0729 26.6378 32.3707 26.4626C32.6685 26.2874 33.0846 25.7312 32.9883 25.648C32.8919 25.5648 32.3094 24.9954 32.3094 24.9954C32.3094 24.9954 31.5429 25.3677 31.2363 24.5924C31.2363 24.5924 30.1808 24.7501 29.9969 24.0012C29.9969 24.0012 29.1559 24.0975 29.1078 23.3311C28.9939 23.6771 28.626 24.3515 28.626 24.3515V24.3559Z" fill="white"/>
<path d="M27.9828 20.9136C27.9915 20.8348 27.9959 20.5501 28.1842 20.4888C28.4295 20.4099 28.7668 20.353 28.9639 20.5019C29.2223 20.6946 29.0077 21.8115 29.0339 22.1882C29.0602 22.5648 28.7492 22.5736 28.5609 22.5648C28.1711 22.5473 27.9434 22.2933 27.9434 21.7983C27.9434 21.4261 27.9521 21.1501 27.9828 20.9136Z" fill="white"/>
<path d="M26.5328 29.4626C26.4627 29.3313 26.6949 29.0071 26.8394 28.4947L26.6029 28.2275L26.4102 28.3195C26.4102 28.3195 26.5372 28.4947 26.5372 28.5823C26.5372 28.6611 26.1386 29.1385 26.1474 29.7254C26.1474 29.7692 26.0948 29.7911 26.0642 29.7561C25.981 29.6597 25.8583 29.5152 25.7795 29.3882C25.705 29.2787 25.6569 29.1823 25.6306 29.121C25.6087 29.0772 25.5605 29.0553 25.5123 29.0728L24.448 29.4495C24.4086 29.4626 24.3867 29.5064 24.3955 29.5502C24.4174 29.6291 24.4743 29.7955 24.6276 30.1196C24.9123 30.7284 25.1269 31.0657 25.2452 31.2058C25.2627 31.2277 25.2933 31.2321 25.3152 31.2146L27.4657 30.1065C27.4657 30.1065 27.4832 30.0627 27.4613 30.0539C27.2818 29.9882 26.6949 29.7605 26.5284 29.4626H26.5328Z" fill="white"/>
<path d="M27.4172 23.174C27.4172 23.174 26.8522 23.7215 26.9267 24.8252C27.0011 25.9289 27.2946 26.0559 27.3296 26.4194C27.3647 26.7829 27.4479 27.107 27.7457 27.2822C28.0435 27.4574 29.3443 28.1713 29.3443 28.1713C29.3443 28.1713 29.7341 28.4254 30.1064 28.386C30.1064 28.386 30.2597 28.3597 30.4612 28.2414C30.3867 27.983 30.378 26.599 30.378 26.599L29.9663 27.5888C29.9663 27.5888 28.9677 26.9187 28.6041 26.5289C28.2406 26.1391 28.2888 26.2223 28.1881 26.034C28.0873 25.8457 27.9778 25.6924 27.8859 25.5259C27.7939 25.3595 27.5661 25.0223 27.7807 24.6719C27.9954 24.3215 27.9603 24.374 28.3589 23.8923C28.7574 23.4105 28.4771 23.0207 28.2231 23.0864C27.9691 23.1521 27.8771 23.0776 27.7764 22.9287C27.7764 22.9287 27.5486 23.0338 27.4085 23.174H27.4172Z" fill="white"/>
<path d="M7.4279 21.4041C7.62062 21.15 7.59434 20.3179 6.87167 19.674C6.81911 19.6259 6.23222 18.9076 6.18404 18.8682C5.43071 20.2215 4.26568 20.0025 3.416 20.6113C2.05826 21.588 2.27287 22.5954 1.01149 22.2976C1.01149 22.2976 1.59838 23.3794 3.12256 22.5735C3.12256 22.5735 3.08752 23.4363 2.28601 24.1152C1.89621 24.4437 0.652344 24.8072 0.652344 24.8072C0.652344 24.8072 1.96629 25.197 3.24081 24.759C2.87729 25.2101 1.91811 25.7007 1.91811 25.7007C4.07735 26.0642 4.94893 24.2466 5.3475 23.4188C6.00009 22.0742 6.55632 22.5209 6.75341 22.2625C6.83225 22.3764 7.1257 22.2494 7.1476 22.28C7.0819 22.3983 7.27023 21.6231 7.43228 21.4085L7.4279 21.4041Z" fill="#19398A"/>
<path d="M14.1424 23.4103C14.3833 23.4103 14.5585 23.3972 14.6855 23.3796C14.5891 23.2482 14.1161 22.7052 14.1161 22.7052C14.1161 22.7052 15.4169 22.7095 15.9031 21.9869C16.0257 21.8336 16.0389 21.6978 16.0432 21.5752C16.0476 21.4613 16.0082 21.3693 15.9732 21.3124C16.0257 21.2423 16.0739 21.1328 16.0739 21.0058C16.0739 20.8788 16.052 20.8175 15.9556 20.6861C15.9863 20.4714 16.0389 20.1035 16.0213 19.7838C16.0345 19.7707 16.1921 19.6437 16.2491 19.5604C16.3367 19.4378 16.3498 19.2977 16.3279 19.1838C16.3192 19.1006 16.2885 18.9779 16.1264 18.8115C16.1264 18.8115 16.1352 18.8203 16.1396 18.8246C16.1834 18.7327 16.2097 18.6451 16.2097 18.5794C16.2097 18.4524 15.9337 18.2553 15.8111 18.1721C15.8242 18.1589 15.8374 18.1502 15.8505 18.137C16.0082 17.9706 16.2009 17.7078 16.214 17.5852C16.2184 17.5238 16.2272 17.3968 16.214 17.2786C16.2359 17.2435 16.2578 17.2085 16.2754 17.1866C16.3936 17.0464 16.836 16.8888 17.125 16.7048C17.125 16.7048 17.125 16.7048 17.1294 16.7048C17.1382 16.7004 17.1469 16.6961 17.1557 16.6873C17.1951 16.661 17.2126 16.6479 17.2433 16.6085C17.2433 16.6085 17.2433 16.6085 17.2389 16.6085C17.2827 16.5515 17.3046 16.4946 17.2915 16.4376C17.2959 16.4376 17.3002 16.442 17.3002 16.442C17.309 16.4508 17.3178 16.4552 17.3265 16.4639C17.0418 16.0128 16.3411 15.5704 16.3411 15.5704C16.3411 15.5704 15.9425 14.5105 15.2505 12.9645C14.5629 11.4184 12.8766 10.2928 10.7918 10.4767C9.32899 10.6037 8.65888 10.8753 8.39171 11.0242C8.39171 11.0242 8.40047 11.0286 8.40047 11.033C8.0676 11.2213 7.83109 11.4052 7.70846 11.5147C7.70846 11.5147 6.64417 12.0359 6.19304 13.3762C5.91712 14.1996 6.01347 16.5822 6.01347 16.5822C6.01347 16.5822 5.67623 16.6041 5.63681 16.6873C5.59739 16.7661 5.51855 17.3399 5.51855 17.445C5.51855 17.5501 5.55797 17.7078 5.65871 17.791L5.67185 18.6451L5.70251 19.3196L6.13611 20.1211L6.10983 21.8336C6.723 22.2715 7.53327 22.7533 8.33477 22.9723C9.96844 23.4191 13.3059 23.3972 14.1293 23.3972L14.1424 23.4103ZM15.5264 20.2349C15.5264 20.2349 15.5177 20.213 15.6228 20.1254C15.6622 20.0904 15.7498 20.0072 15.8461 19.9108C15.8461 20.0335 15.8549 20.3225 15.8286 20.5415C15.7498 20.4758 15.6447 20.4101 15.5352 20.3488V20.2393L15.5264 20.2349ZM15.452 20.0116L15.3425 19.6699C15.487 19.5692 15.649 19.451 15.7585 19.3546L15.8242 19.7137C15.6666 19.8451 15.452 20.0116 15.452 20.0116ZM15.5615 20.7386C15.649 20.7824 15.7542 20.8394 15.8374 20.8963C15.833 20.9751 15.798 21.1328 15.6184 21.2511C15.6096 21.0671 15.5921 20.8875 15.5615 20.743V20.7386ZM15.925 21.7197C15.8899 21.8423 15.649 22.0219 15.579 22.0394C15.579 21.9562 15.6315 21.7504 15.6315 21.6452C15.6666 21.619 15.7191 21.5752 15.7804 21.5226C15.8505 21.5533 15.9556 21.619 15.925 21.7197ZM16.1264 19.3721C16.1221 19.4247 16.052 19.5035 15.9907 19.5648L15.8943 19.2188C15.9162 19.1925 15.9337 19.1706 15.9556 19.1444C16.0213 19.1882 16.0564 19.2188 16.0564 19.2188C16.0564 19.2188 16.1396 19.2714 16.1308 19.3721H16.1264ZM15.6885 18.2859C15.7848 18.3385 15.8812 18.4261 15.9425 18.483C16.0345 18.5706 15.9425 18.7414 15.9425 18.8203C15.7673 18.6932 15.4826 18.5969 15.3687 18.5487C15.3687 18.5487 15.579 18.3735 15.6885 18.2859ZM15.36 18.8115C15.5439 18.8991 15.6885 18.9779 15.798 19.0436C15.6359 19.1663 15.36 19.3546 15.2417 19.4334C15.2987 19.1882 15.3468 18.9604 15.36 18.8115ZM15.0622 20.1298C15.0884 20.0378 15.1147 19.9415 15.141 19.832L15.2549 20.213C15.1848 20.1824 15.1147 20.1517 15.0534 20.1254C15.0534 20.1254 15.0622 20.1254 15.0665 20.1298H15.0622ZM14.6417 21.4438C14.7818 21.1153 14.9395 20.5415 14.9789 20.3839C15.1716 20.4496 15.2768 20.489 15.3381 20.5109C15.3556 20.6554 15.452 21.2029 15.4651 21.6014C15.4695 21.7942 15.4388 22 15.4082 22.127C15.2505 21.7723 14.6242 21.435 14.6417 21.4438ZM14.5585 21.6409C14.6986 21.6934 14.8475 21.8336 14.9833 21.9343C15.141 22.0482 15.233 22.184 15.2811 22.2497C14.9833 22.4161 14.4315 22.5256 14.195 22.473C14.3395 22.2234 14.484 21.8336 14.5541 21.6409H14.5585Z" fill="#19398A"/>
<path d="M12.1753 10.9848C12.1753 10.9848 13.879 11.1995 14.698 12.5265C15.4645 13.7704 15.8762 15.5092 15.8762 15.5092L15.2368 15.4041C15.2368 15.4041 14.8338 11.8126 12.1709 10.9805L12.1753 10.9848Z" fill="white"/>
<path d="M8.23828 16.7312C8.23828 16.7312 9.65296 16.1005 10.8968 16.0523C11.5538 15.9604 12.3947 15.8859 13.6824 15.9604C14.97 16.0348 16.5687 16.4334 16.792 16.4509C17.0154 16.4684 17.1468 16.4509 17.1468 16.4509L16.3628 15.9297C16.3628 15.9297 11.9261 14.7515 8.23828 16.7268V16.7312Z" fill="white"/>
<path d="M9.06183 15.9868C9.11876 15.6408 9.36403 13.8888 8.71582 12.6318C8.71582 12.6318 9.41221 13.3019 9.49981 14.6115C9.55674 15.4393 9.53046 15.6977 9.52608 15.8116L9.06183 15.9868Z" fill="white"/>
<path d="M8.03711 18.9955C8.03711 18.9955 9.6007 17.9137 11.265 17.7385C12.9294 17.5633 14.7689 18.0889 15.3601 18.6144C15.3733 18.6626 15.3601 18.8071 15.3601 18.8071C15.3601 18.8071 14.1645 17.9399 12.1716 17.9312C9.78903 17.918 8.04149 19.1619 8.04149 19.1619V18.9911L8.03711 18.9955Z" fill="white"/>
<path d="M8.16797 21.1109C8.16797 21.1109 8.19425 21.0934 8.21177 21.0846C8.76362 20.7343 9.75346 20.178 10.8221 19.9284C12.4558 19.5517 14.4004 19.6744 15.053 20.1255C15.0443 20.1824 14.9961 20.3138 14.9961 20.3138C14.9961 20.3138 13.7259 19.7795 11.7507 20.0116C10.1608 20.1999 8.91692 20.835 8.2687 21.2336C8.25118 21.2467 8.21177 21.2686 8.21177 21.2686L8.16797 21.1109Z" fill="white"/>
<path d="M9.05762 22.1878C9.05762 22.1878 9.07952 22.1747 9.09704 22.1659C9.4518 21.9426 10.7176 21.2199 12.3425 21.2112C14.2345 21.2024 14.6244 21.4652 14.6244 21.4652L14.5587 21.6229C14.5587 21.6229 13.9148 21.198 12.0052 21.3644C10.5424 21.4915 9.60509 22.017 9.24595 22.2535C9.22843 22.2667 9.19777 22.2886 9.19777 22.2886L9.06638 22.1922L9.05762 22.1878Z" fill="white"/>
<path d="M11.8914 18.1802L12.071 18.1758L12.0491 19.8138L11.8389 19.8094L11.8914 18.1802Z" fill="white"/>
<path d="M11.8385 20.1826L12.0181 20.1738L11.9392 21.2907L11.7334 21.2863L11.8385 20.1826Z" fill="white"/>
<path d="M11.751 21.4873L11.9305 21.4785L11.6634 22.6698H11.4531L11.751 21.4873Z" fill="white"/>
<path d="M13.6161 20.1738L13.7957 20.165L13.8001 21.2906L13.5898 21.2863L13.6161 20.1738Z" fill="white"/>
<path d="M13.5419 21.5268L13.7214 21.5225L13.5725 22.6043L13.3623 22.5999L13.5419 21.5268Z" fill="white"/>
<path d="M13.2529 18.2246L13.4456 18.2553L13.8311 19.8189H13.6165L13.2529 18.2246Z" fill="white"/>
<path d="M8.19886 15.7538C8.19886 15.7538 8.17696 17.2999 8.14192 17.7028C8.10688 18.1058 8.07622 19.6124 8.09374 20.173C8.12002 20.957 8.38281 21.4826 8.61056 21.7366C8.83831 21.9907 9.51718 22.5732 10.7523 22.6345C11.9874 22.6958 14.1423 22.4637 14.1423 22.4637L14.024 22.6695C14.024 22.6695 11.9436 22.8009 10.7523 22.7878C9.56098 22.7746 8.66312 21.9994 8.49231 21.8374C8.2558 21.6184 8.05871 21.1979 7.98425 20.6767C7.92293 20.2343 7.97987 19.4416 7.97987 18.2941C7.97987 17.1466 8.03681 15.7888 8.03681 15.7888C8.03681 15.7888 8.0806 15.456 7.63824 15.4647C7.28348 15.4735 7.27034 15.8239 7.27034 15.8239L7.14333 15.9202C7.14333 15.9202 7.06887 15.4166 7.51561 15.2808C7.96235 15.145 8.19886 15.4428 8.19886 15.7538Z" fill="white"/>
<path d="M6.70064 17.4405L8.03648 16.5996V16.8536L6.72692 17.6595C6.72692 17.6595 6.6875 17.6595 6.6875 17.6376V17.4624C6.6875 17.4624 6.69188 17.4449 6.70064 17.4405Z" fill="white"/>
<path d="M8.03717 17.5762L6.72323 18.4565C6.69257 18.4784 6.67943 18.5222 6.69257 18.5572L7.18749 19.6478C7.20063 19.6741 7.23567 19.6872 7.26195 19.6697L8.04155 19.1792V18.9427L7.36268 19.3456C7.3364 19.3588 7.30137 19.3456 7.29261 19.3237L7.00354 18.658C6.98602 18.6229 7.00354 18.5791 7.0342 18.5572L8.04155 17.9047V17.5762H8.03717Z" fill="white"/>
<path d="M12.0793 6.57415C13.4765 6.23253 14.9262 6.08361 16.3715 6.10551C17.0942 6.12303 17.8169 6.18435 18.5395 6.28508C19.2578 6.39896 19.9674 6.55225 20.6725 6.74934C21.3733 6.95081 22.0609 7.20046 22.7354 7.48953C23.4099 7.7786 24.0581 8.12022 24.6932 8.49251C27.2203 9.99916 29.3796 12.1759 30.8906 14.7775C31.2629 15.4301 31.6045 16.1002 31.898 16.7966C32.187 17.493 32.4367 18.2069 32.6469 18.9383C32.971 20.1034 33.1769 21.3034 33.2688 22.5166C33.2864 22.5473 33.2995 22.578 33.3126 22.6086C33.2864 21.3604 33.1331 20.1078 32.8528 18.8858C32.6776 18.1412 32.4542 17.401 32.1914 16.6784C31.9242 15.9557 31.6089 15.2549 31.2585 14.5717C29.8394 11.8387 27.7152 9.47358 25.1399 7.76546C24.4961 7.34062 23.826 6.95081 23.1296 6.61357C22.4332 6.27632 21.7193 5.9785 20.9835 5.72885C20.2477 5.48358 19.4987 5.28649 18.741 5.12881C17.9789 4.98428 17.2081 4.87917 16.4329 4.82223C14.8824 4.72149 13.3144 4.80909 11.7771 5.10692C10.8179 5.29087 9.87191 5.55804 8.95215 5.89528L10.4019 7.08221C10.9537 6.88512 11.5143 6.71431 12.0837 6.57415H12.0793Z" fill="url(#paint0_linear_17119_303905)"/>
<path d="M2.40013 10.8492C1.41468 12.1281 0.608793 13.5253 0 14.9837C0.854062 13.6567 1.87456 12.461 3.01331 11.4361C3.64838 10.8623 4.59442 10.1046 5.57987 9.46518C5.15503 9.16298 4.75647 8.85639 4.39295 8.5498C3.6221 9.30313 2.93009 10.1572 2.39575 10.8492H2.40013Z" fill="url(#paint1_linear_17119_303905)"/>
<path d="M1.20458 33.5537C2.18565 35.4283 3.51273 37.1452 5.10698 38.5905C5.08508 38.2007 5.05443 37.8415 5.01939 37.5131C3.56967 36.4181 2.27325 35.0823 1.2002 33.5581L1.20458 33.5537Z" fill="#582E8F"/>
<path d="M17.9658 41.9064C18.9556 41.74 19.9323 41.4991 20.8784 41.1706C21.8244 40.8421 22.7398 40.4392 23.6158 39.9618C24.4917 39.4844 25.3239 38.9325 26.1035 38.3194C26.3006 38.1704 26.4889 38.004 26.6816 37.8463C26.87 37.6843 27.0539 37.5179 27.2379 37.3514C27.597 37.0098 27.9518 36.6638 28.2846 36.2959C29.6249 34.8374 30.711 33.1556 31.5125 31.3555C30.5928 33.0943 29.4015 34.671 27.9956 35.9981C27.6452 36.3353 27.2773 36.6463 26.9094 36.9529C26.7167 37.1018 26.5327 37.2507 26.3356 37.3908C26.1385 37.531 25.9502 37.6755 25.7487 37.8069C24.9516 38.3413 24.1194 38.8143 23.2566 39.2085C22.3894 39.6026 21.4959 39.9224 20.5849 40.1676C19.6739 40.4129 18.7454 40.5706 17.8125 40.6582C17.0241 40.7326 16.2358 40.7502 15.4474 40.7107C15.3467 41.1356 15.2635 41.6042 15.2021 42.1473C16.1307 42.1342 17.0548 42.0553 17.9702 41.902L17.9658 41.9064Z" fill="url(#paint2_linear_17119_303905)"/>
<path d="M19.2801 8.04174C20.4758 8.21256 21.6584 8.53228 22.7971 8.99216C19.3108 7.17892 15.1631 6.83292 11.3965 7.89721L12.3425 8.66806C14.5631 7.92349 16.9588 7.70012 19.2801 8.03736V8.04174Z" fill="#E90E8B"/>
<path d="M6.5785 10.1523C5.69816 10.8137 4.88789 11.5583 4.15647 12.3685C3.20167 13.4284 2.38265 14.6066 1.75195 15.868C2.5447 14.703 3.49512 13.6693 4.54627 12.7802C5.40033 12.0576 6.4909 11.3218 7.53768 10.7874C7.4238 10.713 7.35373 10.6648 7.34497 10.6604C7.08656 10.4896 6.83253 10.3188 6.58288 10.1523H6.5785Z" fill="url(#paint3_linear_17119_303905)"/>
<path d="M4.23556 33.3038C3.54355 32.5679 2.92162 31.7621 2.3829 30.8905C1.70403 29.7911 1.15218 28.5998 0.762373 27.3428C0.674777 27.0275 0.578421 26.7121 0.499585 26.3924L0.394469 25.9063L0.341912 25.6654L0.315633 25.5427L0.298114 25.4201C0.249936 25.0916 0.192998 24.7675 0.1492 24.4346C0.109782 24.1062 0.0835031 23.7733 0.0659839 23.4404C0.0484647 23.7733 0.0397051 24.1062 0.0440849 24.4434C0.0484647 24.7763 0.0747435 25.1135 0.0878829 25.4464V25.5734L0.109782 25.7004L0.136061 25.9501L0.188618 26.4537C0.236796 26.7866 0.298114 27.1195 0.355051 27.4523C0.61784 28.7794 1.05582 30.0758 1.64709 31.3109C2.42232 32.9227 3.46909 34.4118 4.73486 35.7039C4.67792 35.4236 4.6166 35.1608 4.55967 34.898C4.44141 34.3812 4.32754 33.8731 4.23994 33.3081L4.23556 33.3038Z" fill="url(#paint4_linear_17119_303905)"/>
<path d="M16.4859 39.6418C17.9224 39.5629 19.3415 39.2958 20.6949 38.849C22.0438 38.3892 23.3227 37.7541 24.4922 36.9701C25.6572 36.173 26.7127 35.2313 27.6281 34.1758C26.612 35.1306 25.482 35.9496 24.2775 36.6022C23.0643 37.246 21.7811 37.7234 20.4715 38.0256C19.2933 38.284 17.5852 38.3892 16.3238 38.3629C16.118 38.8052 15.9296 39.2213 15.7676 39.6637C16.0085 39.6637 16.2494 39.6549 16.4902 39.6418H16.4859Z" fill="url(#paint5_linear_17119_303905)"/>
<defs>
<linearGradient id="paint0_linear_17119_303905" x1="7.30972" y1="13.6957" x2="34.1536" y2="13.6957" gradientUnits="userSpaceOnUse">
<stop stop-color="#E90E8B"/>
<stop offset="0.37" stop-color="#EA1288"/>
<stop offset="0.52" stop-color="#EC2D70"/>
<stop offset="0.86" stop-color="#F47235"/>
<stop offset="0.98" stop-color="#F78F1E"/>
</linearGradient>
<linearGradient id="paint1_linear_17119_303905" x1="-0.862822" y1="11.7646" x2="7.8092" y2="11.7646" gradientUnits="userSpaceOnUse">
<stop offset="0.05" stop-color="#774098"/>
<stop offset="0.19" stop-color="#774098"/>
<stop offset="0.37" stop-color="#953A90"/>
<stop offset="0.76" stop-color="#D23081"/>
<stop offset="0.95" stop-color="#EB2D7C"/>
</linearGradient>
<linearGradient id="paint2_linear_17119_303905" x1="11.9304" y1="36.7558" x2="32.2484" y2="36.7558" gradientUnits="userSpaceOnUse">
<stop offset="0.29" stop-color="#774098"/>
<stop offset="0.45" stop-color="#953A90"/>
<stop offset="0.78" stop-color="#D23081"/>
<stop offset="0.94" stop-color="#EB2D7C"/>
</linearGradient>
<linearGradient id="paint3_linear_17119_303905" x1="1.37529" y1="12.8722" x2="8.12019" y2="13.2007" gradientUnits="userSpaceOnUse">
<stop offset="0.54" stop-color="#774098"/>
<stop offset="0.65" stop-color="#953A90"/>
<stop offset="0.89" stop-color="#D23081"/>
<stop offset="1" stop-color="#EB2D7C"/>
</linearGradient>
<linearGradient id="paint4_linear_17119_303905" x1="-0.774939" y1="29.5678" x2="7.80948" y2="29.5678" gradientUnits="userSpaceOnUse">
<stop offset="0.02" stop-color="#F78F20"/>
<stop offset="0.34" stop-color="#F26766"/>
<stop offset="0.36" stop-color="#F16367"/>
<stop offset="0.67" stop-color="#EB2581"/>
<stop offset="0.82" stop-color="#E90E8B"/>
</linearGradient>
<linearGradient id="paint5_linear_17119_303905" x1="12.3557" y1="36.3263" x2="28.0705" y2="37.3205" gradientUnits="userSpaceOnUse">
<stop offset="0.13" stop-color="#E90E8B"/>
<stop offset="0.32" stop-color="#EB2676"/>
<stop offset="0.72" stop-color="#F26342"/>
<stop offset="0.98" stop-color="#F78F1E"/>
</linearGradient>
</defs>
</svg>
